# Blender 4.4.3
# www.blender.org
mtllib Artifact.mtl
o Icosphere
v -0.212663 -0.868567 0.000000
v -0.065715 -0.868566 -0.202254
v 0.172048 -0.868566 -0.124999
v 0.172048 -0.868566 0.124999
v -0.065715 -0.868566 0.202254
v 0.723600 -0.447215 0.275720
v 0.738787 -0.183694 0.419197
v 0.626982 -0.183695 0.573081
v 0.485836 -0.447215 0.602975
v 0.551552 -0.578649 0.400721
v -0.210670 -0.578649 0.648386
v -0.038621 -0.447215 0.773385
v -0.170384 -0.183694 0.832165
v -0.351285 -0.183695 0.773386
v -0.423333 -0.447215 0.648387
v -0.681762 -0.578648 0.000000
v -0.747477 -0.447215 0.202253
v -0.844096 -0.183694 0.095104
v -0.844096 -0.183694 -0.095104
v -0.747477 -0.447215 -0.202253
v -0.210670 -0.578649 -0.648386
v -0.423333 -0.447215 -0.648387
v -0.351285 -0.183695 -0.773386
v -0.170384 -0.183694 -0.832165
v -0.038621 -0.447215 -0.773385
v 0.723600 -0.447215 -0.275720
v 0.551552 -0.578649 -0.400721
v 0.485836 -0.447215 -0.602975
v 0.626982 -0.183695 -0.573081
v 0.738787 -0.183694 -0.419197
v 0.088096 0.234550 0.832165
v 0.417858 0.234552 0.725018
v 0.448762 0.396358 0.629912
v 0.210670 0.578649 0.648386
v 0.007190 0.396358 0.773384
v -0.764216 0.234551 0.340936
v -0.560409 0.234552 0.621449
v -0.460408 0.396358 0.621450
v -0.551552 0.578649 0.400721
v -0.733313 0.396358 0.245827
v -0.560409 0.234552 -0.621449
v -0.764216 0.234551 -0.340936
v -0.733313 0.396358 -0.245827
v -0.551552 0.578649 -0.400721
v -0.460408 0.396358 -0.621450
v 0.417858 0.234552 -0.725018
v 0.088096 0.234550 -0.832165
v 0.007190 0.396358 -0.773384
v 0.210670 0.578649 -0.648386
v 0.448762 0.396358 -0.629912
v 0.818667 0.234551 0.173365
v 0.818667 0.234551 -0.173365
v 0.737763 0.396358 -0.232145
v 0.681762 0.578648 0.000000
v 0.737763 0.396358 0.232145
v 0.065715 0.868566 0.202254
v 0.212663 0.868567 0.000000
v 0.065715 0.868566 -0.202254
v -0.172048 0.868566 -0.124999
v -0.172048 0.868566 0.124999
v 0.764216 -0.234551 0.400722
v 0.617269 -0.234552 0.602974
v -0.144955 -0.234550 0.850640
v -0.382716 -0.234552 0.773386
v -0.853809 -0.234551 0.124998
v -0.853809 -0.234551 -0.124998
v -0.382716 -0.234552 -0.773386
v -0.144955 -0.234550 -0.850640
v 0.617269 -0.234552 -0.602974
v 0.764216 -0.234551 -0.400722
v 0.038621 0.447215 0.773385
v 0.144955 0.234550 0.850640
v 0.382716 0.234552 0.773386
v 0.423333 0.447215 0.648387
v -0.723600 0.447215 0.275720
v -0.764216 0.234551 0.400722
v -0.617269 0.234552 0.602974
v -0.485836 0.447215 0.602975
v -0.485836 0.447215 -0.602975
v -0.617269 0.234552 -0.602974
v -0.764216 0.234551 -0.400722
v -0.723600 0.447215 -0.275720
v 0.423333 0.447215 -0.648387
v 0.382716 0.234552 -0.773386
v 0.144955 0.234550 -0.850640
v 0.038621 0.447215 -0.773385
v 0.747477 0.447215 0.202253
v 0.853809 0.234551 0.124998
v 0.853809 0.234551 -0.124998
v 0.747477 0.447215 -0.202253
v 0.656366 -0.203151 0.359313
v 0.544560 -0.203152 0.513197
v -0.138902 -0.203150 0.735272
v -0.319802 -0.203152 0.676493
v -0.742217 -0.203152 0.095104
v -0.742217 -0.203152 -0.095104
v -0.319802 -0.203152 -0.676493
v -0.138902 -0.203150 -0.735272
v 0.544560 -0.203152 -0.513197
v 0.656366 -0.203151 -0.359313
v 0.038673 0.376901 0.676491
v 0.119579 0.215093 0.735272
v 0.335437 0.215096 0.665134
v 0.366340 0.376901 0.570028
v -0.631434 0.376900 0.245827
v -0.662337 0.215093 0.340936
v -0.528926 0.215095 0.524556
v -0.428925 0.376901 0.524557
v -0.428925 0.376901 -0.524557
v -0.528926 0.215095 -0.524556
v -0.662337 0.215093 -0.340936
v -0.631434 0.376900 -0.245827
v 0.366340 0.376901 -0.570028
v 0.335437 0.215096 -0.665134
v 0.119579 0.215093 -0.735272
v 0.038673 0.376901 -0.676491
v 0.655342 0.376901 0.172261
v 0.736246 0.215094 0.113481
v 0.736246 0.215094 -0.113481
v 0.655342 0.376901 -0.172261
vn 0.6071 -0.7947 -0.0000
vn -0.4911 -0.7947 -0.3568
vn 0.1876 -0.7947 0.5774
vn 0.1876 -0.7947 -0.5774
vn 0.3035 -0.1876 0.9342
vn 0.5849 -0.4911 -0.6455
vn 0.9822 -0.1876 -0.0000
vn 0.1518 -0.9822 0.1103
vn -0.8526 -0.4911 -0.1784
vn -0.5849 0.4911 -0.6455
vn -0.7946 -0.1876 0.5774
vn -0.7946 -0.1876 -0.5774
vn 0.3035 -0.1876 -0.9342
vn -0.1518 0.9822 0.1103
vn 0.4911 0.7947 0.3568
vn -0.1876 0.7947 0.5774
vn -0.6071 0.7947 -0.0000
vn -0.1876 0.7947 -0.5774
vn 0.4911 0.7947 -0.3568
vn -0.0000 -1.0000 -0.0000
vn 0.7236 -0.4472 0.5257
vn -0.2764 -0.4472 0.8507
vn -0.8944 -0.4472 -0.0000
vn -0.2764 -0.4472 -0.8507
vn 0.7236 -0.4472 -0.5257
vn 0.2764 0.4472 0.8507
vn -0.7236 0.4472 0.5257
vn -0.7236 0.4472 -0.5257
vn 0.2764 0.4472 -0.8507
vn 0.8944 0.4472 -0.0000
vn -0.0000 1.0000 -0.0000
vn -0.4911 -0.7947 0.3568
vn 0.7946 0.1876 0.5774
vn -0.3035 0.1876 0.9342
vn -0.9822 0.1876 -0.0000
vn -0.3035 0.1876 -0.9342
vn 0.7946 0.1876 -0.5774
vn 0.0938 0.4911 -0.8660
vn -0.0938 -0.4911 -0.8660
vn 0.8526 0.4911 0.1784
vn 0.7947 -0.4911 0.3568
vn -0.0580 -0.9822 0.1784
vn 0.7947 -0.4911 -0.3568
vn 0.8526 0.4911 -0.1784
vn -0.0938 -0.4911 0.8660
vn 0.0938 0.4911 0.8660
vn 0.5849 -0.4911 0.6455
vn -0.1876 -0.9822 -0.0000
vn -0.8526 -0.4911 0.1784
vn 0.4332 0.4911 0.7558
vn -0.4332 -0.4911 0.7558
vn -0.1518 0.9822 -0.1103
vn -0.7947 0.4911 0.3568
vn -0.4332 -0.4911 -0.7558
vn 0.0580 0.9822 -0.1784
vn -0.0580 -0.9822 -0.1784
vn -0.7947 0.4911 -0.3568
vn 0.1876 0.9822 -0.0000
vn 0.1518 -0.9822 -0.1103
vn 0.4332 0.4911 -0.7558
vn 0.0580 0.9822 0.1784
vn -0.5849 0.4911 0.6455
vt 0.099076 0.650101
vt 0.150887 0.649508
vt 0.242646 0.724459
vt 0.232433 0.759030
vt 0.118147 0.760336
vt 0.076548 0.726357
vt 0.831880 0.704771
vt 0.774770 0.704783
vt 0.708359 0.602391
vt 0.735361 0.555960
vt 0.861335 0.555933
vt 0.891442 0.602352
vt 0.296117 0.704399
vt 0.162759 0.595470
vt 0.280704 0.551221
vt 0.322303 0.585200
vt 0.853592 0.733547
vt 0.940157 0.584697
vt 0.988049 0.648172
vt 0.961046 0.694603
vt 0.289701 0.498355
vt 0.118285 0.562665
vt 0.138130 0.446051
vt 0.191600 0.425991
vt 0.847939 0.757449
vt 0.858350 0.789736
vt 0.835996 0.790048
vt 0.825585 0.757762
vt 0.628744 0.339635
vt 0.573601 0.354935
vt 0.487246 0.296882
vt 0.503239 0.255263
vt 0.624874 0.221512
vt 0.664023 0.247830
vt 0.028209 0.505995
vt 0.105616 0.439592
vt 0.122135 0.448098
vt 0.044728 0.514501
vt 0.248590 0.827885
vt 0.248590 0.784264
vt 0.269980 0.784239
vt 0.269980 0.827859
vt 0.896818 0.191940
vt 0.872835 0.248315
vt 0.849778 0.248315
vt 0.873762 0.191940
vt 0.532687 0.648088
vt 0.483060 0.619422
vt 0.483060 0.492962
vt 0.532686 0.464296
vt 0.642155 0.527528
vt 0.642155 0.584858
vt 0.891443 0.509590
vt 0.708358 0.509629
vt 0.774769 0.407404
vt 0.831879 0.407391
vt 0.462300 0.215129
vt 0.421006 0.231943
vt 0.361249 0.146755
vt 0.375453 0.091319
vt 0.466541 0.054227
vt 0.493631 0.092847
vt 0.872835 0.291935
vt 0.849778 0.291935
vt 0.178967 0.058332
vt 0.201963 0.029666
vt 0.310939 0.068742
vt 0.337347 0.115122
vt 0.286621 0.178354
vt 0.237217 0.160638
vt 0.081086 0.207022
vt 0.054678 0.160641
vt 0.122026 0.058333
vt 0.206685 0.207020
vt 0.178970 0.355708
vt 0.122029 0.355708
vt 0.054680 0.253404
vt 0.237218 0.253400
vt 0.337347 0.298913
vt 0.310940 0.345295
vt 0.201966 0.384373
vt 0.286622 0.235684
vt 0.687005 0.158134
vt 0.639077 0.166076
vt 0.548774 0.077546
vt 0.555763 0.029470
vt 0.661483 0.011951
vt 0.702422 0.052085
vt 0.318951 0.726572
vt 0.279592 0.760336
vt 0.078926 0.596428
vt 0.445063 0.464296
vt 0.471206 0.417915
vt 0.525361 0.417915
vt 0.445064 0.648087
vt 0.525361 0.694468
vt 0.471207 0.694468
vt 0.940157 0.527367
vt 0.436423 0.282470
vt 0.109832 0.029667
vt 0.159235 0.011951
vt 0.011951 0.235688
vt 0.011951 0.178358
vt 0.159239 0.402089
vt 0.109835 0.384374
vt 0.504941 0.015058
vt 0.702422 0.208661
vt 0.361249 0.584856
vt 0.361250 0.527526
vt 0.081078 0.583786
vt 0.111024 0.558096
vt 0.537229 0.424771
vt 0.542802 0.460060
vt 0.542803 0.652324
vt 0.537229 0.687612
vt 0.896635 0.502762
vt 0.933699 0.516287
vt 0.475487 0.211470
vt 0.506636 0.242006
vt 0.658181 0.411740
vt 0.620422 0.389929
vt 0.618670 0.378837
vt 0.668297 0.407503
vt 0.128717 0.454125
vt 0.107767 0.426950
vt 0.672588 0.609429
vt 0.640403 0.595949
vt 0.684456 0.602573
vt 0.640403 0.516436
vt 0.672588 0.502956
vt 0.684456 0.509811
vt 0.860049 0.389917
vt 0.843529 0.411642
vt 0.853591 0.378837
vt 0.620422 0.722453
vt 0.658181 0.700642
vt 0.668297 0.704879
vt 0.618671 0.733544
vt 0.545377 0.090803
vt 0.503422 0.102445
vt 0.976399 0.460129
vt 0.955853 0.424878
vt 0.961046 0.418049
vt 0.988049 0.464381
vt 0.021364 0.546218
vt 0.011951 0.554293
vt 0.020948 0.501427
vt 0.615083 0.211914
vt 0.625890 0.169735
vt 0.127544 0.566603
vt 0.097597 0.592292
vt 0.037883 0.554725
vt 0.145237 0.462632
vt 0.825876 0.325781
vt 0.798106 0.348258
vt 0.726325 0.293645
vt 0.726325 0.250040
vt 0.798105 0.191940
vt 0.825876 0.213068
vt 0.389019 0.913763
vt 0.361249 0.891286
vt 0.361249 0.778574
vt 0.389020 0.757446
vt 0.460798 0.815544
vt 0.460798 0.859150
vt 0.921223 0.530056
vt 0.884159 0.516531
vt 0.831053 0.425412
vt 0.847573 0.403686
vt 0.943377 0.438647
vt 0.963923 0.473899
vt 0.764077 0.168038
vt 0.726325 0.146188
vt 0.726325 0.033642
vt 0.764078 0.011951
vt 0.861663 0.068430
vt 0.861663 0.111970
vt 0.069197 0.896784
vt 0.069197 0.784239
vt 0.085664 0.785275
vt 0.085664 0.897820
vt 0.562636 0.892026
vt 0.545437 0.853655
vt 0.565073 0.848617
vt 0.582272 0.886987
vt 0.683198 0.757447
vt 0.683198 0.869993
vt 0.666732 0.871029
vt 0.666732 0.758483
vt 0.521535 0.853657
vt 0.504336 0.892027
vt 0.484701 0.886988
vt 0.501899 0.848618
vt 0.504336 0.762485
vt 0.484701 0.757446
vt 0.768917 0.789736
vt 0.779328 0.757449
vt 0.801683 0.757762
vt 0.791271 0.790048
vt 0.779328 0.897110
vt 0.801683 0.897423
vt 0.315273 0.784264
vt 0.315273 0.827885
vt 0.293882 0.827859
vt 0.293882 0.784239
vt 0.626006 0.762686
vt 0.642830 0.852085
vt 0.622997 0.846846
vt 0.606174 0.757446
vt 0.109566 0.827875
vt 0.109566 0.784255
vt 0.132444 0.784239
vt 0.132444 0.827858
vt 0.562636 0.762485
vt 0.582272 0.757446
vt 0.178566 0.784239
vt 0.178566 0.825443
vt 0.156346 0.828228
vt 0.156346 0.787024
vt 0.896818 0.348311
vt 0.873762 0.348311
vt 0.202468 0.825442
vt 0.202468 0.784239
vt 0.224688 0.787024
vt 0.224688 0.828228
vt 0.883605 0.888688
vt 0.882253 0.848778
vt 0.906014 0.848408
vt 0.907367 0.888318
vt 0.909327 0.012322
vt 0.910679 0.103279
vt 0.886917 0.102909
vt 0.885565 0.011951
vt 0.034062 0.845818
vt 0.045295 0.887967
vt 0.023185 0.893843
vt 0.011951 0.851694
vt 0.725182 0.890842
vt 0.708358 0.852087
vt 0.728191 0.846848
vt 0.745014 0.885603
vt 0.725182 0.762689
vt 0.745014 0.757449
vt 0.626006 0.890840
vt 0.606174 0.885600
vt 0.045295 0.784238
vt 0.023185 0.790115
vt 0.847939 0.897110
vt 0.825585 0.897423
vt 0.909327 0.143188
vt 0.885565 0.142818
vt 0.883605 0.757820
vt 0.907367 0.757449
s 0
usemtl Material.003
f 6/1/1 10/2/1 4/3/1 3/4/1 27/5/1 26/6/1
f 2/7/2 1/8/2 16/9/2 20/10/2 22/11/2 21/12/2
f 5/13/3 4/3/3 10/2/3 9/14/3 12/15/3 11/16/3
f 3/17/4 2/7/4 21/12/4 25/18/4 28/19/4 27/20/4
f 63/21/5 12/15/5 9/14/5 62/22/5 73/23/5 72/24/5
f 33/25/6 32/26/6 103/27/6 104/28/6
f 61/29/7 6/30/7 26/31/7 70/32/7 89/33/7 88/34/7
f 55/35/8 33/36/8 104/37/8 117/38/8
f 31/39/9 35/40/9 101/41/9 102/42/9
f 52/43/10 30/44/10 100/45/10 119/46/10
f 65/47/11 17/48/11 15/49/11 64/50/11 77/51/11 76/52/11
f 67/53/12 22/11/12 20/10/12 66/54/12 81/55/12 80/56/12
f 69/57/13 28/58/13 25/59/13 68/60/13 85/61/13 84/62/13
f 30/44/14 29/63/14 99/64/14 100/45/14
f 34/65/15 74/66/15 87/67/15 54/68/15 57/69/15 56/70/15
f 39/71/16 78/72/16 71/73/16 34/65/16 56/70/16 60/74/16
f 44/75/17 82/76/17 75/77/17 39/71/17 60/74/17 59/78/17
f 49/79/18 86/80/18 79/81/18 44/75/18 59/78/18 58/82/18
f 54/83/19 90/84/19 83/85/19 49/86/19 58/87/19 57/88/19
f 1/89/20 2/90/20 3/4/20 4/3/20 5/13/20
f 6/1/21 61/91/21 62/22/21 9/14/21 10/2/21
f 11/92/22 12/93/22 63/94/22 64/50/22 15/49/22
f 16/95/23 17/48/23 65/47/23 66/96/23 20/97/23
f 21/12/24 22/11/24 67/53/24 68/98/24 25/18/24
f 26/31/25 27/99/25 28/58/25 69/57/25 70/32/25
f 72/100/26 73/101/26 74/66/26 34/65/26 71/73/26
f 76/102/27 77/103/27 78/72/27 39/71/27 75/77/27
f 80/104/28 81/105/28 82/76/28 44/75/28 79/81/28
f 84/62/29 85/61/29 86/106/29 49/86/29 83/85/29
f 88/34/30 89/33/30 90/84/30 54/83/30 87/107/30
f 56/70/31 57/69/31 58/82/31 59/78/31 60/74/31
f 1/108/32 5/109/32 11/92/32 15/49/32 17/48/32 16/95/32
f 7/110/33 8/111/33 62/22/33 61/91/33
f 13/112/34 14/113/34 64/50/34 63/94/34
f 18/114/35 19/115/35 66/96/35 65/47/35
f 23/116/36 24/117/36 68/98/36 67/53/36
f 29/118/37 30/119/37 70/32/37 69/57/37
f 35/120/34 31/121/34 72/122/34 71/123/34
f 32/124/33 33/36/33 74/125/33 73/23/33
f 40/126/35 36/127/35 76/52/35 75/128/35
f 37/129/34 38/130/34 78/131/34 77/51/34
f 45/132/36 41/133/36 80/56/36 79/134/36
f 42/135/35 43/136/35 82/137/35 81/138/35
f 50/139/37 46/140/37 84/62/37 83/85/37
f 47/141/36 48/142/36 86/143/36 85/144/36
f 55/35/33 51/145/33 88/146/33 87/147/33
f 52/148/37 53/149/37 90/84/37 89/33/37
f 31/121/34 13/112/34 63/94/34 72/122/34
f 8/111/33 32/124/33 73/23/33 62/22/33
f 51/145/33 7/110/33 61/91/33 88/146/33
f 30/119/37 52/148/37 89/33/37 70/32/37
f 33/36/33 55/35/33 87/147/33 74/125/33
f 36/127/35 18/114/35 65/47/35 76/52/35
f 14/113/34 37/129/34 77/51/34 64/50/34
f 38/130/34 35/120/34 71/123/34 78/131/34
f 41/133/36 23/116/36 67/53/36 80/56/36
f 19/115/35 42/135/35 81/138/35 66/96/35
f 43/136/35 40/126/35 75/128/35 82/137/35
f 46/140/37 29/118/37 69/57/37 84/62/37
f 24/117/36 47/141/36 85/144/36 68/98/36
f 48/142/36 45/132/36 79/134/36 86/143/36
f 53/149/37 50/139/37 83/85/37 90/84/37
f 92/150/33 91/151/33 118/152/33 117/38/33 104/37/33 103/153/33
f 94/154/34 93/155/34 102/156/34 101/157/34 108/158/34 107/159/34
f 96/160/35 95/161/35 106/162/35 105/163/35 112/164/35 111/165/35
f 98/166/36 97/167/36 110/168/36 109/169/36 116/170/36 115/171/36
f 100/172/37 99/173/37 114/174/37 113/175/37 120/176/37 119/177/37
f 18/178/38 36/179/38 106/180/38 95/181/38
f 36/182/39 40/183/39 105/184/39 106/185/39
f 37/186/40 14/187/40 94/188/40 107/189/40
f 38/190/41 37/191/41 107/192/41 108/193/41
f 35/194/42 38/190/42 108/193/42 101/195/42
f 41/196/43 45/197/43 109/198/43 110/199/43
f 23/200/44 41/196/44 110/199/44 97/201/44
f 43/202/45 42/203/45 111/204/45 112/205/45
f 42/206/46 19/207/46 96/208/46 111/209/46
f 46/210/47 50/211/47 113/212/47 114/213/47
f 40/183/48 43/214/48 112/215/48 105/184/48
f 48/216/49 47/217/49 115/218/49 116/219/49
f 29/63/50 46/220/50 114/221/50 99/64/50
f 51/222/51 55/223/51 117/224/51 118/225/51
f 8/226/52 7/227/52 91/228/52 92/229/52
f 47/230/53 24/231/53 98/232/53 115/233/53
f 53/234/54 52/235/54 119/236/54 120/237/54
f 14/238/55 13/239/55 93/240/55 94/241/55
f 45/132/56 48/142/56 116/170/56 109/169/56
f 13/239/57 31/242/57 102/243/57 93/240/57
f 19/207/58 18/244/58 95/245/58 96/208/58
f 50/246/59 53/234/59 120/237/59 113/247/59
f 32/26/60 8/248/60 92/249/60 103/27/60
f 24/231/61 23/250/61 97/251/61 98/232/61
f 7/227/62 51/252/62 118/253/62 91/228/62
