# Blender 4.4.3
# www.blender.org
mtllib PS1Pine.mtl
o Plane.037
v -0.726635 11.162086 0.157638
v -0.282082 11.414062 0.164456
v -0.749938 11.039042 -0.337542
v -0.192795 11.451395 -0.270902
v -0.459213 11.334074 0.210046
v -0.425305 11.243712 -0.411327
v -0.740222 11.120906 -0.214061
v -0.120060 11.711741 -0.040542
v -1.053361 10.990778 -0.058860
v -0.860603 11.043506 -0.189195
v -0.545281 11.262534 -0.040127
v -0.294163 11.285133 -0.310242
v -0.475596 11.244322 -0.146109
v -0.422690 11.251738 -0.200353
v -0.266848 11.293407 -0.333501
v -0.351878 11.318995 0.180982
v -0.337954 11.323628 0.194579
v -0.497663 11.243920 -0.117982
v -0.443953 11.291586 0.093568
v 1.730232 1.329128 1.422224
v 0.805334 2.864241 -0.071299
v -0.038942 0.918857 2.706903
v -0.906992 3.267308 0.757825
v 1.360304 2.329458 0.413470
v -0.968251 2.163294 1.837631
v 0.439369 1.260494 2.411236
v -0.059989 4.447109 0.083923
v 1.689609 0.340448 3.082274
v 0.773925 0.792984 2.738937
v 0.655406 2.016182 1.334312
v -0.928146 2.428988 1.113284
v 0.085664 2.028908 1.335087
v -0.236258 2.127165 1.283607
v -1.073766 2.498525 1.077738
v 0.960012 2.360964 0.074602
v 0.974419 2.389238 -0.009598
v 0.241513 1.998367 1.344273
v 0.876396 2.188002 0.627348
v -2.479239 1.541885 1.027519
v -0.599612 2.904435 0.797148
v -2.961539 1.175817 -1.113062
v -0.614269 3.310738 -1.104608
v -1.317271 2.435773 1.104238
v -1.674413 2.302969 -1.603682
v -2.856098 1.508938 -0.555541
v -0.236429 4.459816 -0.055636
v -4.063563 0.700047 0.309097
v -3.334723 1.085018 -0.384972
v -1.894935 2.176250 0.083489
v -1.008010 2.506214 -1.269798
v -1.661634 2.166750 -0.436366
v -1.474023 2.247533 -0.708789
v -0.909631 2.566669 -1.387995
v -0.843112 2.422129 0.878310
v -0.769877 2.443535 0.926008
v -1.736556 2.143227 -0.298020
v -1.327147 2.294617 0.575184
v 1.164656 1.541886 -2.327303
v -0.191580 2.904436 -1.005678
v 2.844793 1.175817 -0.915978
v 0.971789 3.310738 0.498803
v 0.193537 2.435772 -1.684665
v 2.117657 2.302968 0.253927
v 2.423250 1.508938 -1.295780
v 0.035857 4.459816 -0.107116
v 2.860488 0.700047 -2.715075
v 2.700829 1.085018 -1.721369
v 1.271390 2.176250 -1.222219
v 1.385154 2.506214 0.391807
v 1.400560 2.166750 -0.667248
v 1.416246 2.247532 -0.336845
v 1.378448 2.566669 0.545443
v -0.046962 2.422128 -1.217727
v -0.134126 2.443535 -1.211333
v 1.376399 2.143227 -0.822711
v 0.521791 2.294617 -1.269642
v 3.120092 2.290965 0.235017
v 1.073894 3.615606 -0.591455
v 2.376140 1.718393 2.502653
v -0.059057 3.876548 1.211787
v 1.975689 3.187760 -0.478595
v 0.759776 2.805771 2.255952
v 2.560726 2.129738 1.933738
v 0.059421 5.209052 0.058257
v 4.281440 1.421516 1.797510
v 3.155483 1.718990 2.036373
v 1.955130 2.848688 0.802409
v 0.307360 3.009215 1.562814
v 1.438343 2.769363 1.151610
v 1.096493 2.816713 1.299982
v 0.140217 3.056285 1.618324
v 1.404620 3.113810 -0.545102
v 1.361369 3.136223 -0.631602
v 1.590907 2.762918 1.065096
v 1.695841 2.982172 0.015850
v -2.780429 1.978836 -1.076843
v -1.138199 3.482082 0.214662
v -1.480696 1.574966 -3.119161
v 0.338402 3.930338 -1.275997
v -1.936674 2.965025 -0.108005
v -0.095687 2.818506 -2.493672
v -1.834907 1.942485 -2.603017
v -0.188466 5.198071 -0.164468
v -3.450600 1.050068 -2.875264
v -2.340643 1.474792 -2.844842
v -1.587312 2.678705 -1.353931
v 0.161400 3.042740 -1.712559
v -0.999097 2.668221 -1.575732
v -0.640019 2.757347 -1.640831
v 0.330402 3.109438 -1.727519
v -1.391097 2.949971 0.087267
v -1.371456 2.973589 0.181668
v -1.165618 2.642271 -1.526748
v -1.530405 2.809292 -0.527231
v -0.942888 3.281662 3.125252
v 0.122751 4.058350 1.315717
v -2.812844 2.733271 2.252990
v -1.250003 4.146146 0.054190
v -0.123090 3.842435 2.125981
v -2.316895 3.392844 0.757344
v -2.329007 3.099180 2.428425
v -0.206383 5.272295 0.116662
v -2.491005 2.770035 4.009463
v -2.522230 2.847719 2.978672
v -1.236176 3.584227 1.972657
v -1.648720 3.474327 0.446386
v -1.467414 3.442001 1.497843
v -1.544205 3.430944 1.180395
v -1.670381 3.488890 0.289961
v 0.009778 3.684701 1.665824
v 0.091155 3.694473 1.638617
v -1.414960 3.458929 1.640222
v -0.518719 3.634785 1.849180
v -2.923722 4.035473 2.492856
v -0.740909 4.936290 1.412323
v -4.185624 3.399441 0.459439
v -1.273102 5.038117 -0.683500
v -1.493741 4.685868 2.042948
v -2.755064 4.164425 -0.677867
v -3.827226 3.823829 0.936780
v -0.299568 6.344243 0.039391
v -4.987765 3.442080 2.368898
v -4.363977 3.532181 1.348363
v -2.477062 4.386394 1.187776
v -1.909058 4.258930 -0.555756
v -2.400257 4.221438 0.580078
v -2.273367 4.208615 0.223163
v -1.830826 4.275820 -0.721362
v -1.072750 4.502925 1.680528
v -0.976483 4.514260 1.705754
v -2.439681 4.241072 0.751588
v -1.702181 4.445033 1.523171
v -1.615204 3.405866 -2.158991
v -1.009705 4.768415 -0.364712
v 0.383728 3.039798 -3.063960
v 0.849843 5.174717 -0.763420
v -1.455500 4.299753 -1.005496
v 1.124358 4.166948 -1.902551
v -0.140978 3.372917 -2.848016
v -0.101119 6.323796 -0.181375
v -1.231807 2.564027 -3.855817
v -0.404760 2.948998 -3.282292
v -0.572565 4.040231 -1.777538
v 0.932047 4.370194 -1.182421
v -0.016286 4.030729 -1.654116
v 0.288432 4.111512 -1.525435
v 1.067690 4.430649 -1.109961
v -1.138404 4.286108 -0.586782
v -1.170318 4.307515 -0.505419
v -0.166919 4.007207 -1.699532
v -0.939360 4.158596 -1.122092
v 2.448769 3.475606 1.948133
v 1.188175 4.800247 0.136812
v 0.585369 2.903033 3.439231
v -0.746758 5.061188 1.026359
v 1.881276 4.372400 0.724675
v -0.632638 3.990410 2.348382
v 1.051142 3.314377 3.064012
v -0.016465 6.393692 0.125615
v 2.566004 2.606157 3.891422
v 1.492832 2.903631 3.475327
v 1.163203 4.033327 1.785695
v -0.632103 4.193856 1.520662
v 0.539569 3.954003 1.795248
v 0.172243 4.001354 1.732410
v -0.802382 4.240925 1.475678
v 1.439649 4.298450 0.356560
v 1.450772 4.320864 0.260492
v 0.714606 3.947558 1.806303
v 1.376507 4.166812 0.985440
v 2.368620 4.770000 -0.924703
v 0.579446 5.845143 -0.840577
v 2.588666 4.305272 0.999803
v 0.355195 6.056937 0.873315
v 1.282753 5.497883 -1.063039
v 1.313016 5.187840 1.365788
v 2.531942 4.639138 0.517673
v 0.051542 7.138463 -0.017543
v 3.754742 4.064312 -0.166084
v 3.005351 4.305756 0.391750
v 1.701830 5.222674 -0.111365
v 0.744409 5.352967 1.007979
v 1.439087 5.158291 0.321344
v 1.237278 5.196722 0.546645
v 0.639962 5.391171 1.105575
v 0.839060 5.437860 -0.918503
v 0.777842 5.456053 -0.967633
v 1.522272 5.153059 0.205825
v 1.243981 5.331017 -0.603535
v -2.427548 4.516659 0.108014
v -0.778651 5.736768 0.503774
v -2.161343 4.188859 -1.838726
v -0.195006 6.100595 -1.096088
v -1.476883 5.317100 0.536486
v -0.927907 5.198178 -1.846940
v -2.247601 4.487155 -1.338013
v -0.206768 7.129550 -0.097767
v -3.531416 3.762825 -0.991094
v -2.702540 4.107553 -1.344916
v -1.641587 5.084708 -0.500777
v -0.473528 5.380177 -1.358039
v -1.282981 5.076200 -0.863744
v -1.040238 5.148538 -1.033474
v -0.353965 5.434312 -1.426361
v -1.008341 5.304881 0.495553
v -0.961855 5.324050 0.558513
v -1.389181 5.055136 -0.771172
v -1.319381 5.190699 0.089600
v 0.352024 5.574097 2.584047
v 0.524503 6.204495 0.888331
v -1.322697 5.128996 2.574661
v -0.915501 6.275756 0.423331
v 0.617867 6.029249 1.569215
v -1.463947 5.664339 1.303545
v -0.906412 5.425986 2.540027
v -0.124683 7.189794 0.115632
v -0.489937 5.158835 3.760914
v -0.862384 5.221889 3.011318
v -0.254976 5.819674 1.833460
v -1.076596 5.730474 0.847722
v -0.586463 5.704237 1.561683
v -0.750703 5.695263 1.353605
v -1.145596 5.742294 0.739705
v 0.559869 5.901224 1.184821
v 0.610660 5.909155 1.137172
v -0.499515 5.717977 1.648902
v 0.232271 5.860710 1.499193
v -1.871446 6.943521 -1.772572
v -1.067021 7.533637 -0.394645
v -0.599320 6.526861 -2.688804
v 0.278735 7.600344 -0.836791
v -1.513048 7.369589 -0.858268
v 0.208349 7.027996 -1.805063
v -0.895151 6.804873 -2.433090
v -0.149886 8.455976 -0.168007
v -1.883338 6.554794 -3.127091
v -1.188298 6.613818 -2.765355
v -0.998416 7.173405 -1.539403
v 0.166623 7.089905 -1.246665
v -0.597802 7.065344 -1.516560
v -0.358832 7.056944 -1.449697
v 0.278375 7.100970 -1.202992
v -1.257242 7.249743 -0.599446
v -1.269395 7.257169 -0.535395
v -0.711666 7.078206 -1.534605
v -1.182733 7.211819 -1.017888
v 1.596465 5.953652 -1.431894
v 0.130853 7.095797 -0.822197
v 2.468384 5.646799 0.187611
v 0.571379 7.436376 0.709906
v 0.641040 6.702945 -1.231904
v 1.539800 6.591622 0.873863
v 2.257578 5.926033 -0.238742
v 0.029867 8.399582 -0.051823
v 3.037534 5.247988 -1.209004
v 2.605552 5.570687 -0.484345
v 1.337521 6.485403 -0.538006
v 0.926508 6.761992 0.754517
v 1.266348 6.477437 -0.065704
v 1.176287 6.545154 0.196531
v 0.873724 6.812668 0.872122
v 0.309150 6.691507 -0.942613
v 0.239271 6.709451 -0.964614
v 1.295651 6.457721 -0.194288
v 0.768273 6.584621 -0.806992
v -1.462532 6.190804 1.993669
v -0.155378 7.197248 0.943591
v -2.690048 5.755772 0.659072
v -0.930658 7.395507 -0.476631
v -0.564789 6.872176 1.499645
v -1.926782 6.581945 -0.321112
v -2.381319 6.068305 0.992536
v -0.209779 8.407925 0.029901
v -2.929406 5.530210 2.183981
v -2.670035 5.756225 1.348806
v -1.406518 6.614553 1.010742
v -1.299349 6.736520 -0.363918
v -1.446317 6.554284 0.538532
v -1.417861 6.590260 0.256824
v -1.274142 6.772283 -0.495336
v -0.308816 6.815989 1.145679
v -0.235417 6.833019 1.149094
v -1.445558 6.549387 0.671787
v -0.788797 6.715973 1.130648
v 2.535981 6.830061 1.685077
v 1.178873 7.436615 0.217254
v 1.280730 6.433764 3.180206
v -0.301477 7.588028 1.121802
v 1.844800 7.271204 0.657595
v 0.061653 6.978858 2.310216
v 1.559934 6.743537 2.764009
v 0.016352 8.562542 0.119384
v 2.939509 6.483890 3.331941
v 2.005727 6.535576 3.094370
v 1.426074 7.106843 1.634683
v -0.048764 7.000239 1.627605
v 0.941449 6.980521 1.732646
v 0.636955 6.968683 1.722226
v -0.194754 7.011866 1.606497
v 1.465467 7.104881 0.434436
v 1.461598 7.107581 0.353999
v 1.082550 6.995680 1.720303
v 1.496555 7.100103 0.957496
v 2.789188 7.410412 -0.135134
v 0.963670 7.971346 -0.477033
v 2.729270 7.211189 1.703125
v 0.407273 8.258251 1.014168
v 1.700166 7.801958 -0.523928
v 1.347528 7.741569 1.721895
v 2.697470 7.455534 1.214571
v 0.075295 9.080468 0.020874
v 4.026243 7.161222 0.860164
v 3.209662 7.254320 1.217324
v 1.954990 7.733791 0.439589
v 0.874555 7.728343 1.287248
v 1.656437 7.653461 0.798782
v 1.428353 7.661216 0.966411
v 0.756163 7.747117 1.354435
v 1.293033 7.659146 -0.454887
v 1.243965 7.657175 -0.511350
v 1.752379 7.657806 0.707801
v 1.616604 7.683406 -0.092205
v 0.043834 7.090993 2.431038
v 0.405923 7.877194 0.834428
v -1.624662 6.688378 2.200638
v -0.973668 8.026472 0.229092
v 0.423093 7.635157 1.500394
v -1.621200 7.346479 0.981328
v -1.203540 6.977331 2.239666
v -0.143100 8.946596 0.098404
v -0.924710 6.584342 3.464812
v -1.213186 6.727945 2.690315
v -0.475200 7.421677 1.648654
v -1.186443 7.447108 0.578108
v -0.776739 7.340800 1.333451
v -0.917613 7.355754 1.109413
v -1.243207 7.470878 0.465148
v 0.405218 7.546226 1.101558
v 0.460910 7.557517 1.060598
v -0.699576 7.344032 1.430258
v 0.045386 7.483305 1.373749
v 0.299019 6.476954 -1.787730
v -0.402895 7.661759 -0.603696
v 1.862247 6.232809 -1.083617
v 0.804381 8.038524 0.228480
v -0.272117 7.242129 -1.159750
v 1.593120 7.205580 -0.134347
v 1.467050 6.479401 -1.296627
v -0.015575 8.918893 -0.097360
v 1.468035 5.746099 -2.389988
v 1.574537 6.114356 -1.643843
v 0.631842 7.037458 -1.035443
v 1.079760 7.395022 0.115252
v 0.851630 7.062283 -0.650870
v 0.937802 7.145977 -0.414583
v 1.109647 7.452121 0.226578
v -0.347704 7.269555 -0.758710
v -0.411052 7.289290 -0.736251
v 0.798732 7.034657 -0.759382
v 0.063515 7.149547 -0.913702
v -2.411171 7.592258 -0.135803
v -1.024010 8.167652 0.354892
v -2.016847 7.072607 -1.493753
v -0.296686 8.118071 -0.741929
v -1.618088 8.017080 0.287169
v -0.912888 7.536556 -1.356403
v -2.081557 7.363428 -1.162424
v -0.212678 8.975632 -0.083758
v -3.204510 7.154193 -1.080049
v -2.488990 7.185884 -1.219855
v -1.637594 7.763120 -0.485421
v -0.621151 7.629169 -0.932079
v -1.333928 7.639128 -0.688786
v -1.121396 7.620121 -0.776195
v -0.514421 7.634872 -0.965219
v -1.284336 7.905205 0.339114
v -1.256238 7.916595 0.391972
v -1.427126 7.657185 -0.637857
v -1.471323 7.840890 -0.004319
v -1.787278 8.702091 1.069599
v -0.618936 9.068353 0.701903
v -2.273055 8.320820 -0.075802
v -0.705626 9.004464 -0.428952
v -1.036837 8.978854 0.958746
v -1.463130 8.613686 -0.542955
v -2.110474 8.525686 0.189434
v -0.210519 9.598330 -0.007978
v -2.788615 8.410558 0.820925
v -2.413560 8.413191 0.357120
v -1.455828 8.796555 0.432917
v -1.068479 8.674719 -0.399158
v -1.386177 8.701740 0.135104
v -1.300967 8.682511 -0.034642
v -1.018250 8.675647 -0.476803
v -0.825154 8.894402 0.821690
v -0.781048 8.902107 0.843838
v -1.416060 8.716986 0.218346
v -1.112953 8.851103 0.680180
v -0.918323 7.881839 -1.145477
v -0.719256 8.703634 -0.175167
v 0.521802 7.549125 -1.461064
v 0.585032 8.834829 -0.269663
v -0.942032 8.430151 -0.542396
v 0.890793 8.204256 -0.820051
v 0.155269 7.769114 -1.406503
v -0.086505 9.549423 -0.100335
v -0.456258 7.315305 -2.012271
v 0.025937 7.522197 -1.644908
v -0.257258 8.211484 -0.885025
v 0.669555 8.359139 -0.444235
v 0.094238 8.187654 -0.767582
v 0.281294 8.225789 -0.674663
v 0.751569 8.390598 -0.395980
v -0.790765 8.427423 -0.278517
v -0.822575 8.444483 -0.236814
v -0.000194 8.178864 -0.804373
v -0.588246 8.323160 -0.554719
v 1.041846 8.013538 1.475265
v 0.589455 8.707218 0.307066
v -0.276176 7.848306 2.196533
v -0.665325 8.951036 0.628945
v 0.903046 8.468678 0.705082
v -0.810855 8.433858 1.436652
v 0.060236 8.023354 1.991247
v -0.076929 9.563075 0.079672
v 0.815627 7.607304 2.597004
v 0.251508 7.803089 2.276654
v 0.323730 8.354294 1.253084
v -0.688982 8.521080 0.976970
v -0.045691 8.346597 1.223323
v -0.251325 8.387809 1.160953
v -0.781455 8.552443 0.937380
v 0.693787 8.447916 0.485493
v 0.714396 8.456879 0.432989
v 0.055354 8.334673 1.241539
v 0.564924 8.396276 0.828513
v 1.612803 8.118176 -1.579407
v 0.323498 8.788918 -0.909559
v 2.526749 7.888487 -0.262861
v 0.756952 8.975857 0.423111
v 0.748271 8.566584 -1.307816
v 1.695071 8.449427 0.443801
v 2.255656 8.082722 -0.582091
v 0.044118 9.625977 -0.083115
v 2.882424 7.704862 -1.490260
v 2.568951 7.871187 -0.837377
v 1.402341 8.425824 -0.755728
v 1.181095 8.539305 0.367386
v 1.405495 8.398024 -0.360402
v 1.352977 8.428499 -0.130934
v 1.143647 8.565983 0.473101
v 0.534592 8.531521 -1.066462
v 0.475381 8.541119 -1.082423
v 1.417029 8.391408 -0.471052
v 0.920107 8.476196 -0.967566
v 1.695618 8.741334 0.667112
v 0.658636 9.352680 -0.044319
v 1.138642 8.628556 1.852778
v -0.097984 9.610903 0.782998
v 1.130483 9.140909 0.122019
v 0.280074 9.156383 1.496291
v 1.263204 8.783046 1.525624
v -0.002091 10.163950 0.047405
v 2.190079 8.407789 1.649278
v 1.578597 8.584561 1.664104
v 1.020389 9.062192 0.820462
v 0.102334 9.217257 1.084938
v 0.729147 9.056688 0.974974
v 0.538804 9.094887 1.023440
v 0.009569 9.246132 1.097186
v 0.849424 9.112792 0.057322
v 0.834132 9.118734 0.007206
v 0.815181 9.045283 0.941227
v 0.953343 9.080517 0.381536
v -0.844782 8.857307 1.511420
v -0.122641 9.360012 0.629175
v -1.895841 8.746136 0.888120
v -0.836293 9.586658 -0.137764
v -0.307344 9.191216 1.046206
v -1.513567 9.191174 0.137833
v -1.606702 8.895671 1.036418
v -0.177226 10.111460 0.030486
v -1.782709 8.597392 1.874534
v -1.753973 8.727936 1.311250
v -0.942905 9.129089 0.880753
v -1.121009 9.224852 0.010845
v -1.063336 9.108167 0.597122
v -1.094525 9.133741 0.417483
v -1.125949 9.247000 -0.075431
v -0.225241 9.141693 0.790650
v -0.177865 9.144800 0.781037
v -1.038436 9.101964 0.679515
v -0.532263 9.127985 0.857636
v 0.358076 8.433010 -1.111008
v -0.276019 9.285869 -0.530279
v 1.152262 8.125888 -0.223213
v 0.315244 9.422997 0.355111
v -0.092208 8.994534 -0.856139
v 0.831778 8.796942 0.328021
v 0.976260 8.325528 -0.463786
v -0.046516 10.081141 -0.059091
v 1.183509 7.837593 -1.175665
v 1.098408 8.073120 -0.663091
v 0.431498 8.774096 -0.522958
v 0.461516 8.971504 0.342835
v 0.477652 8.770897 -0.216361
v 0.481037 8.818768 -0.039927
v 0.457868 9.006742 0.423429
v -0.236906 9.021090 -0.624512
v -0.280849 9.040197 -0.628054
v 0.468605 8.757316 -0.300894
v 0.051332 8.902367 -0.607052
v -0.000000 -0.109818 -0.905182
v -0.046103 1.388992 -0.535368
v 0.690726 -0.109818 -0.709746
v 0.350286 1.389690 -0.524291
v 0.788259 -0.109818 0.000001
v 0.541481 1.325834 -0.040737
v 0.332040 -0.109817 0.342314
v 0.201419 1.234827 0.245359
v -0.060758 -0.109818 0.917421
v -0.014655 1.169981 0.664530
v -0.618143 -0.109818 0.686545
v -0.411045 1.169282 0.536530
v -0.788260 -0.109817 0.000001
v -0.541482 1.233139 0.040739
v -0.434123 -0.109818 -0.513640
v -0.415485 1.324146 -0.349756
v 0.053193 3.275818 -0.333841
v -0.109428 3.275887 -0.486853
v 0.304138 3.274191 -0.075422
v 0.012663 3.271960 0.058102
v -0.107293 3.270432 0.250395
v -0.399286 3.270502 0.218070
v -0.520860 3.272129 -0.073295
v -0.400797 3.274360 -0.365284
v 0.029006 8.367693 -0.199389
v -0.116752 8.367727 -0.259323
v 0.089694 8.366880 -0.053943
v 0.029760 8.365767 0.091813
v -0.115686 8.365005 0.152498
v -0.261445 8.365040 0.092564
v -0.322132 8.365851 -0.052881
v -0.262198 8.366964 -0.198637
v -0.100611 11.598932 -0.060819
v -0.121278 11.598938 -0.069317
v -0.092005 11.598816 -0.040196
v -0.100503 11.598659 -0.019530
v -0.121126 11.598552 -0.010925
v -0.141793 11.598557 -0.019424
v -0.150398 11.598672 -0.040046
v -0.141900 11.598828 -0.060713
v -1.653129 9.425186 -0.756281
v -0.873256 9.695910 -0.067297
v -1.060034 9.021943 -1.556643
v -0.105216 9.574781 -0.592647
v -1.239880 9.645464 -0.265962
v -0.365973 9.234255 -1.170246
v -1.170642 9.223110 -1.344781
v -0.167046 10.136886 -0.104151
v -1.917634 9.181987 -1.581443
v -1.425407 9.140512 -1.492043
v -1.051898 9.462564 -0.779514
v -0.296880 9.281850 -0.821062
v -0.813538 9.352715 -0.841232
v -0.656606 9.320874 -0.845602
v -0.219835 9.275949 -0.815549
v -1.055071 9.548030 -0.155956
v -1.051652 9.554532 -0.114508
v -0.885134 9.373270 -0.830721
v -1.079216 9.512363 -0.425827
v -1.496041 9.707764 0.136592
v -0.576397 10.237936 0.307958
v -1.369246 9.448875 -0.898708
v -0.237235 10.316486 -0.563448
v -0.959912 10.069637 0.339871
v -0.669824 9.879512 -0.936936
v -1.392763 9.621121 -0.639158
v -0.167844 10.864269 -0.059929
v -2.097139 9.347323 -0.428001
v -1.651242 9.458266 -0.630159
v -1.049949 9.919113 -0.209456
v -0.433571 9.966663 -0.680894
v -0.867932 9.880795 -0.404630
v -0.739014 9.896397 -0.498425
v -0.368689 9.984073 -0.719474
v -0.727008 10.037910 0.317551
v -0.702936 10.047660 0.350677
v -0.923649 9.879948 -0.354095
v -0.887066 9.980239 0.103678
v -0.267758 9.537709 -0.726179
v -0.437992 10.263936 -0.210242
v 0.547657 9.288175 -0.377595
v 0.267482 10.362421 0.162409
v -0.445670 10.011345 -0.459725
v 0.564422 9.848338 0.030459
v 0.359231 9.438287 -0.496533
v -0.077993 10.859252 -0.052883
v 0.222302 9.014837 -0.990265
v 0.356766 9.227918 -0.645244
v 0.003700 9.818461 -0.394969
v 0.334447 10.013522 0.148466
v 0.140190 9.830041 -0.207469
v 0.206215 9.875709 -0.096540
v 0.361928 10.044775 0.199601
v -0.459727 10.058540 -0.260219
v -0.488947 10.076637 -0.249565
v 0.104172 9.815790 -0.259012
v -0.269690 9.944395 -0.334566
v 1.149430 9.672976 -0.425456
v 0.303169 10.322067 -0.454593
v 1.100517 9.351427 0.523594
v 0.059242 10.359280 0.387857
v 0.650434 10.110107 -0.534093
v 0.471505 9.852890 0.658622
v 1.110164 9.531308 0.293830
v -0.019190 10.921653 -0.031713
v 1.737607 9.189808 0.009669
v 1.342851 9.342080 0.248401
v 0.770614 9.902195 -0.047261
v 0.235048 9.996539 0.452425
v 0.614387 9.876568 0.148282
v 0.502261 9.901952 0.248750
v 0.178391 10.018915 0.495693
v 0.433412 10.116327 -0.492251
v 0.408805 10.132476 -0.519686
v 0.662338 9.871998 0.096052
v 0.596862 10.016132 -0.315228
v 0.074205 9.606563 0.959784
v 0.177613 10.216685 0.223481
v -0.865822 9.491320 0.946718
v -0.607409 10.419203 0.058334
v 0.229861 9.999484 0.525184
v -0.930373 9.993580 0.413731
v -0.619440 9.615251 0.960089
v -0.119114 10.866186 0.018773
v -0.387366 9.234137 1.499452
v -0.600434 9.426838 1.157150
v -0.252775 9.899067 0.652755
v -0.725267 10.089529 0.188275
v -0.446506 9.914423 0.514664
v -0.540547 9.958781 0.417782
v -0.764080 10.119452 0.139899
v 0.181058 10.014878 0.320799
v 0.208154 10.024814 0.297024
v -0.396553 9.899542 0.556144
v 0.007211 9.954507 0.479179
v 0.429689 10.357038 -0.989503
v -0.096781 10.899500 -0.516625
v 0.950226 10.088311 -0.389679
v 0.244551 10.930598 0.132023
v 0.066257 10.722360 -0.765743
v 0.649713 10.507396 0.056154
v 0.822883 10.238643 -0.533624
v -0.045825 11.400588 -0.075172
v 1.036026 9.953242 -1.068348
v 0.936670 10.080500 -0.695825
v 0.420751 10.548602 -0.542239
v 0.387832 10.627448 0.069021
v 0.440000 10.527184 -0.333955
v 0.430704 10.548398 -0.208478
v 0.378791 10.646148 0.127909
v -0.040177 10.727557 -0.614780
v -0.070893 10.741053 -0.617040
v 0.438605 10.523365 -0.393194
v 0.160834 10.643823 -0.602906
v 0.585003 10.301534 0.467744
v 0.220570 10.811430 -0.035555
v 0.011386 10.205223 1.004638
v -0.347844 10.980678 0.319935
v 0.426875 10.629908 0.115840
v -0.336360 10.624974 0.721104
v 0.167495 10.308795 0.869907
v -0.076738 11.354234 0.013137
v 0.619810 9.990289 1.060198
v 0.293140 10.151334 0.977555
v 0.210180 10.545987 0.472354
v -0.343510 10.705162 0.466481
v 0.013497 10.558821 0.501472
v -0.099275 10.595892 0.497632
v -0.394916 10.730168 0.459843
v 0.279043 10.642775 0.021050
v 0.281580 10.651077 -0.008969
v 0.067615 10.546385 0.497501
v 0.266143 10.592320 0.217167
v -0.534331 10.644863 -0.576803
v -0.347104 10.978425 -0.113178
v -0.001767 10.558536 -0.862555
v 0.154381 11.086222 -0.257134
v -0.476370 10.864000 -0.273117
v 0.214532 10.837469 -0.568493
v -0.141536 10.642445 -0.790955
v -0.096064 11.376917 -0.072856
v -0.450897 10.444127 -1.033882
v -0.218841 10.537509 -0.901248
v -0.245602 10.804229 -0.496817
v 0.170894 10.883004 -0.375231
v -0.092900 10.800412 -0.478141
v -0.008439 10.819882 -0.451272
v 0.208697 10.897835 -0.359107
v -0.385262 10.856380 -0.172185
v -0.392964 10.861128 -0.150121
v -0.134421 10.794840 -0.486551
v -0.337544 10.828583 -0.316964
v -0.135435 11.196086 -0.531256
v -0.210850 11.433490 -0.183476
v 0.292355 11.134645 -0.486222
v 0.141887 11.510212 -0.067440
v -0.222895 11.352052 -0.329342
v 0.301925 11.333168 -0.226588
v 0.181442 11.194365 -0.500039
v -0.079261 11.717106 -0.059253
v 0.096638 11.053218 -0.766835
v 0.180102 11.119679 -0.595889
v 0.002456 11.309511 -0.368605
v 0.198880 11.365577 -0.130328
v 0.084840 11.306794 -0.296487
v 0.123788 11.320651 -0.246864
v 0.214672 11.376132 -0.105705
v -0.209685 11.346628 -0.233475
v -0.223049 11.350007 -0.223574
v 0.063774 11.302828 -0.318057
v -0.123646 11.326844 -0.299571
v 0.105120 10.951731 0.531514
v 0.092138 11.314635 0.089450
v -0.447363 10.883184 0.617837
v -0.384666 11.435094 0.071103
v 0.152937 11.185443 0.261127
v -0.538501 11.181931 0.311778
v -0.301562 10.956899 0.601043
v -0.102312 11.700962 -0.000913
v -0.111563 10.730210 0.894091
v -0.270717 10.844830 0.714688
v -0.117298 11.125714 0.384181
v -0.440779 11.239002 0.159076
v -0.244698 11.134849 0.322581
v -0.309524 11.161233 0.275178
v -0.468373 11.256801 0.134592
v 0.103887 11.194599 0.146167
v 0.117398 11.200509 0.129518
v -0.211261 11.125998 0.341909
v 0.017788 11.158690 0.256413
v 0.542988 10.991234 -0.388211
v 0.043877 11.377316 -0.320686
v 0.609195 10.799975 0.173147
v -0.014920 11.399450 0.197665
v 0.239545 11.251243 -0.402019
v 0.253879 11.098248 0.315208
v 0.591879 10.906969 0.037462
v -0.102856 11.733953 -0.040504
v 0.931365 10.703843 -0.191885
v 0.723771 10.794415 -0.012439
v 0.358684 11.127575 -0.128586
v 0.094618 11.183691 0.217947
v 0.286633 11.112331 0.001690
v 0.230933 11.127430 0.071808
v 0.065724 11.197001 0.248982
v 0.116479 11.254941 -0.355788
v 0.099308 11.264546 -0.369414
v 0.309526 11.109613 -0.033730
v 0.230015 11.195345 -0.268334
v -0.687655 10.597092 0.698140
v -0.165817 10.951130 0.354744
v -1.106052 10.424212 0.141292
v -0.406141 11.003584 -0.221585
v -0.335567 10.838743 0.547689
v -0.787228 10.711781 -0.200975
v -0.997181 10.539233 0.277064
v -0.139594 11.369381 -0.011449
v -1.238313 10.356398 0.704830
v -1.117381 10.430483 0.401085
v -0.633259 10.738226 0.325072
v -0.554992 10.769979 -0.187179
v -0.636058 10.712638 0.146880
v -0.617462 10.723056 0.042053
v -0.541639 10.781605 -0.235786
v -0.233841 10.817556 0.429100
v -0.206919 10.824067 0.433893
v -0.639466 10.712073 0.196995
v -0.409888 10.779044 0.400312
v -2.481926 5.435885 0.479348
v -0.817692 6.121266 0.425638
v -2.874958 5.466403 -1.191780
v -0.721401 6.614662 -0.988685
v -1.447252 5.876098 0.619013
v -1.693775 6.112943 -1.463769
v -2.743670 5.638756 -0.732478
v -0.243231 7.293430 -0.073389
v -3.812540 5.176560 -0.142904
v -3.183586 5.395966 -0.640901
v -1.910849 5.892163 -0.183756
v -1.162558 6.106861 -1.192939
v -1.729088 5.893421 -0.584299
v -1.569001 5.945620 -0.786078
v -1.075677 6.145219 -1.278063
v -1.090782 5.800321 0.441133
v -1.032760 5.797869 0.479225
v -1.791898 5.876128 -0.480225
v -1.471881 5.825696 0.200058
v -1.606545 5.435884 -1.954740
v -0.825362 6.121265 -0.484259
v -0.279319 5.466403 -3.043599
v 0.486814 6.614662 -1.020706
v -1.276244 5.876098 -0.964306
v 0.485087 6.112943 -2.102932
v -0.633856 5.638756 -2.723445
v -0.124336 7.293429 -0.188294
v -1.633922 5.176560 -3.423406
v -0.909820 5.395965 -3.078065
v -0.759702 5.892162 -1.734076
v 0.475897 6.106862 -1.506732
v -0.320046 5.893421 -1.747299
v -0.068385 5.945620 -1.692443
v 0.590585 6.145218 -1.466220
v -0.959548 5.800321 -0.722612
v -0.968192 5.797869 -0.653745
v -0.441146 5.876128 -1.757854
v -0.910956 5.825696 -1.170934
v -0.081740 2.956345 -2.322652
v -0.593972 4.059737 -0.808473
v 1.646356 2.508530 -1.829316
v 0.816386 4.266348 -0.040549
v -0.554600 3.696286 -1.472530
v 1.548448 3.402303 -0.651428
v 1.217995 2.822570 -1.963355
v -0.032019 5.289500 -0.141910
v 1.030357 2.218061 -3.221015
v 1.262751 2.485434 -2.396781
v 0.404703 3.414343 -1.493834
v 1.049025 3.589857 -0.292078
v 0.687705 3.369360 -1.115677
v 0.814577 3.416552 -0.866599
v 1.098682 3.631310 -0.170662
v -0.582373 3.666601 -1.036986
v -0.645304 3.687199 -1.001946
v 0.616075 3.359794 -1.226666
v -0.174450 3.542900 -1.272905
v 2.600643 3.408348 -1.979344
v 0.638289 4.045276 -1.152093
v 3.684938 3.114466 -0.182008
v 1.034488 4.315603 0.637671
v 1.315585 3.860042 -1.661521
v 2.373562 3.707879 0.714640
v 3.353007 3.411284 -0.623286
v 0.106155 5.289165 -0.081726
v 4.407175 3.099586 -1.801333
v 3.845107 3.185691 -0.946486
v 2.159626 3.750268 -0.896347
v 1.647964 3.703603 0.590774
v 2.095135 3.642678 -0.368054
v 1.980179 3.643427 -0.064682
v 1.576120 3.721581 0.729706
v 0.965366 3.690147 -1.346736
v 0.883005 3.689421 -1.370537
v 2.130836 3.651801 -0.515075
v 1.502596 3.708177 -1.198666
v -3.089083 2.962032 0.451470
v -1.057614 3.887895 0.622233
v -3.184976 2.654175 -1.659059
v -0.624417 4.225616 -1.161554
v -1.866249 3.588387 0.763616
v -1.692598 3.462565 -1.852123
v -3.133943 2.961893 -1.109997
v -0.265106 5.262659 -0.086058
v -4.566074 2.447474 -0.545519
v -3.687477 2.656493 -1.049424
v -2.248077 3.426496 -0.312088
v -1.105834 3.537824 -1.405093
v -1.933771 3.361071 -0.754897
v -1.692787 3.395304 -0.972948
v -0.980872 3.573418 -1.496020
v -1.388182 3.481447 0.644053
v -1.326017 3.489119 0.703506
v -2.034124 3.356359 -0.639933
v -1.798792 3.444202 0.262696
v -0.534928 1.129068 2.372492
v 0.162531 2.203955 0.744891
v -2.459096 1.044994 1.934285
v -1.302259 2.740730 0.004660
v 0.075986 1.818373 1.450157
v -2.222375 1.982986 0.684621
v -1.937588 1.277591 2.057722
v -0.190721 3.623912 0.078884
v -1.809848 0.578316 3.380372
v -2.035587 0.925701 2.517932
v -0.984621 1.730404 1.520899
v -1.678802 2.078991 0.277329
v -1.308466 1.752761 1.132736
v -1.443042 1.834863 0.874757
v -1.727697 2.135648 0.151132
v 0.076747 1.790930 0.984445
v 0.145095 1.799633 0.943996
v -1.230269 1.724889 1.247015
v -0.363733 1.744572 1.256109
vn -0.7329 0.5436 -0.4091
vn 0.0353 0.9344 -0.3545
vn -0.4192 0.8392 -0.3464
vn -0.6178 0.5879 -0.5222
vn -0.4736 0.8803 -0.0276
vn -0.4503 0.8920 0.0401
vn -0.3409 0.8679 -0.3613
vn -0.4659 0.8837 0.0449
vn -0.2958 0.9552 -0.0076
vn -0.6365 0.5950 -0.4908
vn -0.6091 0.5863 -0.5342
vn -0.7441 0.5981 0.2976
vn -0.6739 0.6383 0.3721
vn -0.6206 0.5870 -0.5199
vn -0.6254 0.6293 0.4614
vn -0.3276 0.8404 -0.4317
vn 0.1582 0.3821 0.9105
vn -0.1693 0.9427 0.2876
vn 0.0838 0.7550 0.6504
vn -0.0018 0.4594 0.8882
vn 0.4123 0.7650 0.4948
vn 0.4606 0.7758 0.4313
vn 0.0295 0.8017 0.5970
vn 0.4728 0.7633 0.4402
vn 0.3361 0.8780 0.3407
vn 0.0381 0.4610 0.8866
vn -0.0177 0.4603 0.8876
vn 0.7991 0.3805 0.4654
vn 0.8267 0.4300 0.3629
vn 0.0017 0.4578 0.8891
vn 0.8671 0.4228 0.2635
vn -0.0458 0.7786 0.6259
vn -0.8548 0.4655 -0.2295
vn -0.1022 0.9567 -0.2724
vn -0.5528 0.8112 -0.1906
vn -0.7618 0.5343 -0.3662
vn -0.5449 0.8205 0.1728
vn -0.5059 0.8276 0.2430
vn -0.4777 0.8510 -0.2181
vn -0.5202 0.8165 0.2505
vn -0.3631 0.9167 0.1667
vn -0.7765 0.5373 -0.3292
vn -0.7547 0.5345 -0.3804
vn -0.7128 0.4504 0.5377
vn -0.6263 0.4917 0.6049
vn -0.7642 0.5329 -0.3634
vn -0.5532 0.4776 0.6825
vn -0.4754 0.8275 -0.2987
vn 0.8192 0.4655 -0.3351
vn 0.2463 0.9567 0.1548
vn 0.5553 0.8112 -0.1831
vn 0.8280 0.5343 -0.1699
vn 0.3289 0.8205 -0.4675
vn 0.2554 0.8276 -0.4998
vn 0.5123 0.8510 -0.1157
vn 0.2623 0.8165 -0.5144
vn 0.1880 0.9167 -0.3525
vn 0.8173 0.5373 -0.2083
vn 0.8310 0.5345 -0.1543
vn 0.2416 0.4504 -0.8595
vn 0.1321 0.4917 -0.8607
vn 0.8282 0.5329 -0.1736
vn 0.0269 0.4776 -0.8782
vn 0.5592 0.8275 -0.0502
vn 0.5526 0.5026 0.6649
vn -0.1583 0.9337 0.3211
vn 0.2809 0.8282 0.4850
vn 0.3951 0.5523 0.7341
vn 0.4635 0.8690 0.1732
vn 0.4666 0.8795 0.0934
vn 0.1987 0.8600 0.4701
vn 0.4837 0.8701 0.0942
vn 0.2964 0.9512 0.0858
vn 0.4266 0.5596 0.7106
vn 0.3816 0.5507 0.7423
vn 0.8360 0.5454 -0.0609
vn 0.7937 0.5863 -0.1621
vn 0.3987 0.5513 0.7329
vn 0.7741 0.5739 -0.2672
vn 0.1571 0.8294 0.5362
vn -0.4399 0.4655 -0.7680
vn 0.1211 0.9567 -0.2646
vn -0.2546 0.8112 -0.5264
vn -0.2774 0.5343 -0.7985
vn -0.5067 0.8205 -0.2646
vn -0.5290 0.8276 -0.1875
vn -0.1821 0.8510 -0.4926
vn -0.5444 0.8165 -0.1924
vn -0.3742 0.9167 -0.1400
vn -0.3140 0.5373 -0.7828
vn -0.2623 0.5345 -0.8034
vn -0.8838 0.4504 -0.1265
vn -0.8706 0.4917 -0.0178
vn -0.2811 0.5329 -0.7982
vn -0.8741 0.4776 0.0888
vn -0.1233 0.8275 -0.5477
vn -0.7127 0.6174 0.3331
vn -0.2331 0.8973 -0.3749
vn -0.4716 0.8808 0.0419
vn -0.7524 0.6390 0.1598
vn -0.1914 0.9452 0.2644
vn -0.1126 0.9537 0.2790
vn -0.4418 0.8962 -0.0409
vn -0.1167 0.9477 0.2972
vn -0.0733 0.9920 0.1025
vn -0.7339 0.6513 0.1930
vn -0.7585 0.6352 0.1455
vn -0.0406 0.6897 0.7230
vn 0.0684 0.7189 0.6918
vn -0.7519 0.6386 0.1637
vn 0.1743 0.6998 0.6928
vn -0.5021 0.8604 -0.0870
vn -0.7788 0.6174 -0.1111
vn 0.0100 0.8973 -0.4413
vn -0.4177 0.8808 -0.2230
vn -0.7172 0.6390 -0.2780
vn -0.3049 0.9452 0.1166
vn -0.2469 0.9537 0.1719
vn -0.3474 0.8962 -0.2759
vn -0.2603 0.9477 0.1849
vn -0.1174 0.9920 0.0457
vn -0.7199 0.6513 -0.2400
vn -0.7146 0.6352 -0.2932
vn -0.4296 0.6897 0.5829
vn -0.3212 0.7189 0.6165
vn -0.7189 0.6386 -0.2744
vn -0.2332 0.6998 0.6753
vn -0.3727 0.8604 -0.3475
vn 0.0520 0.4655 -0.8835
vn 0.2461 0.9567 -0.1552
vn 0.0749 0.8112 -0.5799
vn 0.2047 0.5343 -0.8201
vn -0.2794 0.8205 -0.4987
vn -0.3403 0.8276 -0.4464
vn 0.1171 0.8510 -0.5120
vn -0.3504 0.8165 -0.4588
vn -0.2366 0.9167 -0.3219
vn 0.1654 0.5373 -0.8270
vn 0.2201 0.5345 -0.8160
vn -0.6706 0.4504 -0.5894
vn -0.7190 0.4917 -0.4912
vn 0.2014 0.5329 -0.8219
vn -0.7803 0.4776 -0.4039
vn 0.1964 0.8275 -0.5259
vn 0.0988 0.5026 0.8589
vn -0.3082 0.9337 0.1822
vn -0.0302 0.8282 0.5596
vn -0.0709 0.5523 0.8306
vn 0.2932 0.8690 0.3986
vn 0.3394 0.8795 0.3334
vn -0.0908 0.8600 0.5022
vn 0.3534 0.8701 0.3435
vn 0.2011 0.9512 0.2339
vn -0.0317 0.5596 0.8282
vn -0.0867 0.5507 0.8302
vn 0.7331 0.5454 0.4064
vn 0.7531 0.5863 0.2985
vn -0.0672 0.5513 0.8316
vn 0.7941 0.5739 0.1999
vn -0.1619 0.8294 0.5347
vn 0.7798 0.5026 0.3733
vn -0.0097 0.9337 0.3579
vn 0.4578 0.8282 0.3233
vn 0.6656 0.5523 0.5020
vn 0.4935 0.8690 -0.0362
vn 0.4629 0.8795 -0.1100
vn 0.3769 0.8600 0.3441
vn 0.4789 0.8701 -0.1164
vn 0.3051 0.9512 -0.0458
vn 0.6844 0.5596 0.4675
vn 0.6568 0.5507 0.5151
vn 0.7341 0.5454 -0.4045
vn 0.6534 0.5863 -0.4788
vn 0.6684 0.5513 0.4994
vn 0.5918 0.5739 -0.5661
vn 0.3666 0.8294 0.4216
vn -0.7205 0.4655 -0.5141
vn -0.0005 0.9567 -0.2910
vn -0.4512 0.8112 -0.3720
vn -0.5855 0.5343 -0.6097
vn -0.5709 0.8205 -0.0288
vn -0.5590 0.8276 0.0506
vn -0.3712 0.8510 -0.3715
vn -0.5750 0.8165 0.0526
vn -0.3985 0.9167 0.0291
vn -0.6122 0.5373 -0.5801
vn -0.5738 0.5345 -0.6205
vn -0.8559 0.4504 0.2542
vn -0.7984 0.4917 0.3475
vn -0.5887 0.5329 -0.6078
vn -0.7571 0.4776 0.4458
vn -0.3408 0.8275 -0.4461
vn -0.5084 0.6174 0.6003
vn -0.3683 0.8973 -0.2433
vn -0.4110 0.8808 0.2350
vn -0.6170 0.6390 0.4594
vn -0.0635 0.9452 0.3202
vn 0.0142 0.9537 0.3005
vn -0.4185 0.8962 0.1474
vn 0.0181 0.9477 0.3188
vn -0.0238 0.9920 0.1237
vn -0.5863 0.6513 0.4818
vn -0.6284 0.6352 0.4490
vn 0.2650 0.6897 0.6739
vn 0.3511 0.7189 0.6000
vn -0.6148 0.6386 0.4627
vn 0.4477 0.6998 0.5567
vn -0.4925 0.8604 0.1306
vn 0.0574 0.6174 -0.7846
vn 0.4410 0.8973 -0.0204
vn 0.1937 0.8808 -0.4320
vn 0.2280 0.6390 -0.7347
vn -0.1373 0.9452 -0.2961
vn -0.1885 0.9537 -0.2345
vn 0.2514 0.8962 -0.3656
vn -0.2023 0.9477 -0.2470
vn -0.0537 0.9920 -0.1140
vn 0.1900 0.6513 -0.7347
vn 0.2434 0.6352 -0.7330
vn -0.6111 0.6897 -0.3885
vn -0.6371 0.7189 -0.2781
vn 0.2243 0.6386 -0.7361
vn -0.6897 0.6998 -0.1862
vn 0.3211 0.8604 -0.3957
vn 0.8850 0.4655 -0.0089
vn 0.1717 0.9567 0.2349
vn 0.5837 0.8112 0.0349
vn 0.8323 0.5343 0.1479
vn 0.4784 0.8205 -0.3130
vn 0.4219 0.8276 -0.3701
vn 0.5188 0.8510 0.0816
vn 0.4337 0.8165 -0.3811
vn 0.3049 0.9167 -0.2582
vn 0.8364 0.5373 0.1082
vn 0.8292 0.5345 0.1635
vn 0.5420 0.4504 -0.7095
vn 0.4406 0.4917 -0.7510
vn 0.8338 0.5329 0.1445
vn 0.3493 0.4776 -0.8062
vn 0.5382 0.8275 0.1598
vn -0.8501 0.5026 0.1576
vn -0.2029 0.9337 -0.2950
vn -0.5604 0.8282 0.0083
vn -0.8335 0.5523 -0.0137
vn -0.3775 0.8690 0.3199
vn -0.3093 0.8795 0.3616
vn -0.5072 0.8600 -0.0561
vn -0.3184 0.8701 0.3761
vn -0.2196 0.9512 0.2167
vn -0.8284 0.5596 0.0253
vn -0.8342 0.5507 -0.0295
vn -0.3551 0.5454 0.7593
vn -0.2461 0.5863 0.7718
vn -0.8343 0.5513 -0.0099
vn -0.1448 0.5739 0.8060
vn -0.5446 0.8294 -0.1247
vn 0.1261 0.6776 0.7245
vn -0.4259 0.9033 0.0508
vn -0.0894 0.9149 0.3936
vn -0.0516 0.6981 0.7141
vn 0.2006 0.9631 0.1796
vn 0.2360 0.9658 0.1072
vn -0.1610 0.9260 0.3413
vn 0.2524 0.9606 0.1166
vn 0.0767 0.9969 0.0188
vn -0.0146 0.7097 0.7043
vn -0.0669 0.6944 0.7164
vn 0.6834 0.7077 0.1792
vn 0.6829 0.7277 0.0638
vn -0.0477 0.6978 0.7147
vn 0.7126 0.7007 -0.0360
vn -0.2217 0.8939 0.3896
vn 0.5577 0.7118 0.4270
vn -0.2897 0.9317 0.2192
vn 0.1870 0.9419 0.2790
vn 0.4122 0.7436 0.5264
vn 0.2827 0.9565 -0.0715
vn 0.2657 0.9523 -0.1501
vn 0.0986 0.9546 0.2812
vn 0.2843 0.9465 -0.1524
vn 0.0863 0.9885 -0.1240
vn 0.4353 0.7521 0.4949
vn 0.4015 0.7412 0.5380
vn 0.6577 0.6693 -0.3457
vn 0.5861 0.6820 -0.4375
vn 0.4156 0.7431 0.5245
vn 0.5472 0.6467 -0.5314
vn 0.0804 0.9298 0.3593
vn -0.5621 0.5684 0.6008
vn -0.3284 0.9249 -0.1915
vn -0.4226 0.8634 0.2756
vn -0.6546 0.6060 0.4520
vn -0.0854 0.9112 0.4030
vn -0.0059 0.9197 0.3926
vn -0.4203 0.8873 0.1896
vn -0.0042 0.9118 0.4105
vn -0.0242 0.9758 0.2175
vn -0.6263 0.6153 0.4787
vn -0.6649 0.6035 0.4402
vn 0.1997 0.6152 0.7627
vn 0.2936 0.6493 0.7016
vn -0.6528 0.6053 0.4555
vn 0.3941 0.6322 0.6671
vn -0.4926 0.8551 0.1617
vn 0.6959 0.4024 -0.5948
vn 0.2942 0.9557 -0.0099
vn 0.4915 0.7700 -0.4068
vn 0.7525 0.4845 -0.4461
vn 0.1934 0.7645 -0.6149
vn 0.1139 0.7719 -0.6255
vn 0.4701 0.8170 -0.3339
vn 0.1161 0.7593 -0.6403
vn 0.0927 0.8756 -0.4740
vn 0.7313 0.4847 -0.4799
vn 0.7598 0.4859 -0.4320
vn -0.0077 0.3666 -0.9303
vn -0.1124 0.4121 -0.9042
vn 0.7516 0.4827 -0.4495
vn -0.2184 0.4008 -0.8898
vn 0.5334 0.7973 -0.2824
vn -0.4321 0.5613 -0.7059
vn 0.3465 0.8620 -0.3699
vn -0.1028 0.8365 -0.5383
vn -0.2669 0.5743 -0.7739
vn -0.2775 0.9318 -0.2339
vn -0.2793 0.9476 -0.1549
vn -0.0161 0.8521 -0.5232
vn -0.2980 0.9418 -0.1556
vn -0.0983 0.9842 -0.1472
vn -0.2966 0.5891 -0.7517
vn -0.2539 0.5696 -0.7818
vn -0.7102 0.7039 0.0091
vn -0.6618 0.7417 0.1088
vn -0.2707 0.5741 -0.7727
vn -0.6464 0.7321 0.2149
vn 0.0194 0.8098 -0.5864
vn -0.6625 0.7065 -0.2490
vn 0.0677 0.8927 -0.4455
vn -0.3330 0.8923 -0.3048
vn -0.5902 0.7137 -0.3771
vn -0.2907 0.9561 -0.0367
vn -0.2533 0.9673 0.0116
vn -0.2678 0.9014 -0.3402
vn -0.2663 0.9637 0.0201
vn -0.1273 0.9894 -0.0705
vn -0.5951 0.7251 -0.3464
vn -0.5868 0.7100 -0.3894
vn -0.4872 0.8071 0.3334
vn -0.4038 0.8340 0.3760
vn -0.5920 0.7137 -0.3744
vn -0.3438 0.8262 0.4463
vn -0.2798 0.8728 -0.3999
vn 0.1868 0.3675 -0.9111
vn 0.2957 0.9418 -0.1598
vn 0.1951 0.7615 -0.6181
vn 0.3217 0.4507 -0.8327
vn -0.1174 0.7850 -0.6083
vn -0.1752 0.8023 -0.5706
vn 0.2258 0.8092 -0.5424
vn -0.1834 0.7900 -0.5850
vn -0.0943 0.8997 -0.4263
vn 0.2870 0.4519 -0.8446
vn 0.3354 0.4519 -0.8266
vn -0.4772 0.4137 -0.7754
vn -0.5348 0.4772 -0.6973
vn 0.3189 0.4489 -0.8348
vn -0.6095 0.4825 -0.6290
vn 0.2960 0.7866 -0.5418
vn 0.0475 0.6269 0.7777
vn -0.1926 0.9770 0.0912
vn -0.0026 0.8805 0.4740
vn -0.0865 0.6815 0.7267
vn -0.0959 0.6814 0.7256
vn -0.0840 0.6814 0.7271
vn 0.2668 0.8792 0.3947
vn 0.3110 0.8836 0.3501
vn -0.0434 0.9091 0.4143
vn 0.3200 0.8757 0.3616
vn 0.2192 0.9463 0.2377
vn -0.0506 0.6834 0.7283
vn -0.0973 0.6816 0.7252
vn 0.6093 0.6011 0.5172
vn 0.6461 0.6310 0.4294
vn -0.0811 0.6803 0.7285
vn 0.7028 0.6155 0.3567
vn -0.1068 0.8951 0.4330
vn 0.7108 0.6997 -0.0716
vn 0.0962 0.9694 0.2260
vn 0.4299 0.9028 0.0100
vn 0.6750 0.7355 0.0586
vn 0.6749 0.7348 0.0684
vn 0.6751 0.7356 0.0568
vn 0.3334 0.9138 -0.2317
vn 0.2894 0.9186 -0.2692
vn 0.3796 0.9236 0.0536
vn 0.2990 0.9127 -0.2786
vn 0.1947 0.9652 -0.1746
vn 0.6725 0.7397 0.0259
vn 0.6748 0.7348 0.0694
vn 0.4244 0.6989 -0.5756
vn 0.3400 0.7223 -0.6022
vn 0.6761 0.7349 0.0540
vn 0.2691 0.7076 -0.6533
vn 0.4032 0.9084 0.1105
vn 0.4453 0.6765 0.5865
vn -0.1340 0.9785 0.1569
vn 0.2361 0.9043 0.3558
vn 0.3011 0.7216 0.6235
vn 0.2924 0.7209 0.6284
vn 0.3033 0.7216 0.6223
vn 0.4245 0.8980 0.1155
vn 0.4378 0.8977 0.0493
vn 0.1688 0.9283 0.3313
vn 0.4517 0.8906 0.0533
vn 0.2987 0.9543 0.0122
vn 0.3327 0.7250 0.6031
vn 0.2908 0.7212 0.6288
vn 0.7810 0.6245 0.0080
vn 0.7605 0.6431 -0.0893
vn 0.3065 0.7207 0.6218
vn 0.7647 0.6177 -0.1836
vn 0.1247 0.9135 0.3873
vn -0.6466 0.6635 0.3765
vn -0.1087 0.9688 -0.2227
vn -0.3700 0.9158 0.1562
vn -0.6675 0.7122 0.2173
vn -0.1306 0.9143 0.3835
vn -0.0599 0.9133 0.4029
vn -0.3339 0.9389 0.0834
vn -0.0660 0.9058 0.4184
vn -0.0026 0.9686 0.2488
vn -0.6510 0.7165 0.2507
vn -0.6726 0.7115 0.2032
vn -0.0618 0.6121 0.7883
vn 0.0452 0.6334 0.7725
vn -0.6673 0.7113 0.2209
vn 0.1436 0.6061 0.7823
vn -0.3891 0.9206 0.0321
vn 0.9115 0.3029 -0.2784
vn 0.3858 0.9125 0.1364
vn 0.6986 0.6970 -0.1619
vn 0.9165 0.3812 -0.1210
vn 0.5188 0.7260 -0.4515
vn 0.4548 0.7446 -0.4887
vn 0.6562 0.7478 -0.1014
vn 0.4613 0.7317 -0.5019
vn 0.3871 0.8511 -0.3546
vn 0.9099 0.3831 -0.1589
vn 0.9181 0.3821 -0.1056
vn 0.4251 0.3586 -0.8311
vn 0.3289 0.4204 -0.8456
vn 0.9168 0.3795 -0.1245
vn 0.2285 0.4259 -0.8754
vn 0.6905 0.7225 -0.0341
vn 0.1827 0.2018 -0.9623
vn 0.9544 0.2018 -0.2201
vn 0.6064 0.1212 0.7859
vn 0.8459 0.0971 0.5244
vn -0.3466 0.1793 0.9207
vn -0.9519 0.1752 0.2514
vn 0.8630 0.1297 0.4883
vn -0.8819 0.1179 -0.4565
vn -0.5851 0.1399 -0.7988
vn -0.0000 -1.0000 -0.0000
vn 0.6221 0.0078 0.7829
vn -0.9406 -0.0027 -0.3395
vn 0.8560 0.1395 -0.4978
vn -0.2239 0.1632 0.9608
vn -0.4218 0.0024 -0.9067
vn 0.2805 0.0873 -0.9559
vn 0.5397 0.1042 0.8354
vn -0.9507 0.0396 0.3077
vn -0.9241 0.0440 -0.3796
vn -0.9238 0.0506 -0.3795
vn 0.5680 0.0310 -0.8225
vn -0.3849 0.0406 -0.9221
vn -0.3852 0.0410 -0.9219
vn -0.3845 0.0531 -0.9216
vn -0.9223 0.0344 0.3850
vn -0.9217 0.0471 0.3851
vn -0.9224 0.0346 0.3847
vn 0.6899 0.0040 0.7239
vn 0.7915 0.0279 -0.6106
vn -0.9243 0.0376 -0.3798
vn -0.2062 0.0241 0.9782
vn -0.0025 1.0000 0.0066
vn -0.3799 0.0461 0.9239
vn 0.9236 0.0503 0.3801
vn 0.3797 0.0548 -0.9235
vn -0.3848 0.0536 -0.9215
vn -0.9218 0.0474 0.3849
vn 0.3844 0.0472 0.9219
vn 0.9217 0.0535 -0.3843
vn -0.0603 0.6380 -0.7677
vn 0.5383 0.8247 -0.1738
vn 0.1970 0.8505 -0.4877
vn 0.1097 0.6316 -0.7675
vn 0.1189 0.6279 -0.7692
vn 0.1070 0.6327 -0.7670
vn -0.0428 0.9551 -0.2931
vn -0.0692 0.9713 -0.2275
vn 0.2685 0.8556 -0.4425
vn -0.0854 0.9681 -0.2354
vn 0.0863 0.9847 -0.1513
vn 0.0753 0.6493 -0.7568
vn 0.1205 0.6270 -0.7696
vn -0.5284 0.8073 -0.2630
vn -0.5192 0.8399 -0.1584
vn 0.1033 0.6329 -0.7673
vn -0.5491 0.8335 -0.0610
vn 0.3168 0.8146 -0.4858
vn -0.6537 0.5436 -0.5264
vn 0.0944 0.9344 -0.3436
vn -0.3550 0.8392 -0.4120
vn -0.5212 0.5879 -0.6186
vn -0.4623 0.8803 -0.1068
vn -0.4506 0.8920 -0.0362
vn -0.2753 0.8679 -0.4134
vn -0.4669 0.8837 -0.0341
vn -0.2903 0.9552 -0.0572
vn -0.5449 0.5950 -0.5908
vn -0.5106 0.5863 -0.6290
vn -0.7836 0.5981 0.1683
vn -0.7269 0.6383 0.2535
vn -0.5244 0.5870 -0.6168
vn -0.6940 0.6293 0.3497
vn -0.2504 0.8404 -0.4806
vn 0.6995 0.1621 -0.6960
vn 0.4729 0.8643 -0.1712
vn 0.5951 0.5880 -0.5479
vn 0.7827 0.2514 -0.5694
vn 0.3046 0.6163 -0.7263
vn 0.2323 0.6397 -0.7327
vn 0.5894 0.6484 -0.4819
vn 0.2309 0.6251 -0.7456
vn 0.2424 0.7644 -0.5975
vn 0.7595 0.2511 -0.6001
vn 0.7912 0.2533 -0.5566
vn 0.0185 0.2345 -0.9719
vn -0.0685 0.3067 -0.9494
vn 0.7811 0.2494 -0.5724
vn -0.1706 0.3224 -0.9311
vn 0.6490 0.6245 -0.4346
vn 0.7475 0.4494 0.4891
vn 0.1086 0.8962 0.4301
vn 0.5080 0.7461 0.4304
vn 0.6406 0.4902 0.5911
vn 0.5844 0.7994 0.1395
vn 0.5706 0.8177 0.0760
vn 0.4417 0.7801 0.4431
vn 0.5836 0.8089 0.0719
vn 0.4400 0.8905 0.1157
vn 0.6603 0.4973 0.5627
vn 0.6317 0.4886 0.6019
vn 0.8182 0.5491 -0.1705
vn 0.7651 0.5965 -0.2425
vn 0.6432 0.4893 0.5890
vn 0.7279 0.5994 -0.3328
vn 0.4210 0.7521 0.5071
vn -0.3715 0.4524 0.8108
vn -0.2392 0.9623 0.1296
vn -0.2602 0.7878 0.5583
vn -0.4746 0.5296 0.7031
vn 0.0629 0.7779 0.6252
vn 0.1333 0.7846 0.6055
vn -0.2685 0.8315 0.4864
vn 0.1365 0.7731 0.6194
vn 0.0992 0.8799 0.4647
vn -0.4431 0.5294 0.7235
vn -0.4863 0.5310 0.6939
vn 0.3437 0.4127 0.8436
vn 0.4257 0.4542 0.7826
vn -0.4725 0.5279 0.7057
vn 0.5153 0.4422 0.7342
vn -0.3419 0.8156 0.4669
vn 0.8778 0.4494 -0.1660
vn 0.3765 0.8962 0.2346
vn 0.6645 0.7461 -0.0421
vn 0.8714 0.4902 -0.0183
vn 0.5178 0.7994 -0.3047
vn 0.4639 0.8177 -0.3409
vn 0.6255 0.7801 0.0130
vn 0.4704 0.8089 -0.3529
vn 0.3973 0.8905 -0.2218
vn 0.8660 0.4972 -0.0524
vn 0.8725 0.4886 -0.0044
vn 0.4713 0.5491 -0.6902
vn 0.3831 0.5965 -0.7053
vn 0.8719 0.4893 -0.0216
vn 0.2937 0.5994 -0.7446
vn 0.6549 0.7521 0.0735
vn 0.2946 0.4524 0.8418
vn -0.0824 0.9623 0.2592
vn 0.1997 0.7878 0.5826
vn 0.1427 0.5299 0.8360
vn 0.1326 0.5305 0.8373
vn 0.1456 0.5296 0.8357
vn 0.4789 0.7779 0.4068
vn 0.5159 0.7846 0.3439
vn 0.1439 0.8315 0.5366
vn 0.5278 0.7731 0.3517
vn 0.3937 0.8799 0.2660
vn 0.1824 0.5294 0.8285
vn 0.1308 0.5310 0.8372
vn 0.8326 0.4127 0.3695
vn 0.8494 0.4542 0.2687
vn 0.1490 0.5279 0.8361
vn 0.8804 0.4422 0.1717
vn 0.0775 0.8156 0.5735
vn -0.0255 0.5007 -0.8652
vn 0.2243 0.9659 -0.1295
vn 0.0243 0.8353 -0.5493
vn 0.1264 0.5710 -0.8112
vn -0.3034 0.8392 -0.4513
vn -0.3567 0.8456 -0.3971
vn 0.0704 0.8731 -0.4824
vn -0.3676 0.8350 -0.4094
vn -0.2473 0.9292 -0.2748
vn 0.0881 0.5732 -0.8147
vn 0.1416 0.5714 -0.8083
vn -0.6897 0.4784 -0.5435
vn -0.7304 0.5192 -0.4437
vn 0.1231 0.5695 -0.8127
vn -0.7863 0.5048 -0.3561
vn 0.1448 0.8526 -0.5021
vn 0.4656 0.5007 -0.7297
vn 0.2582 0.9659 0.0191
vn 0.3290 0.8353 -0.4405
vn 0.5608 0.5710 -0.5996
vn 0.0029 0.8392 -0.5438
vn -0.0716 0.8456 -0.5290
vn 0.3295 0.8731 -0.3592
vn -0.0736 0.8350 -0.5453
vn -0.0500 0.9292 -0.3663
vn 0.5311 0.5732 -0.6240
vn 0.5718 0.5714 -0.5887
vn -0.2645 0.4784 -0.8373
vn -0.3544 0.5192 -0.7777
vn 0.5589 0.5695 -0.6027
vn -0.4499 0.5048 -0.7367
vn 0.4022 0.8526 -0.3337
vn -0.2299 0.4524 0.8617
vn -0.2139 0.9623 0.1679
vn -0.1626 0.7878 0.5940
vn -0.3496 0.5296 0.7729
vn 0.1671 0.7779 0.6057
vn 0.2332 0.7846 0.5745
vn -0.1829 0.8315 0.5246
vn 0.2386 0.7731 0.5877
vn 0.1759 0.8799 0.4414
vn -0.3152 0.5294 0.7877
vn -0.3628 0.5310 0.7658
vn 0.4806 0.4127 0.7738
vn 0.5511 0.4542 0.6999
vn -0.3471 0.5279 0.7751
vn 0.6314 0.4422 0.6371
vn -0.2585 0.8156 0.5177
vn 0.8191 0.4494 0.3565
vn 0.1794 0.8962 0.4057
vn 0.5731 0.7461 0.3389
vn 0.7308 0.4902 0.4750
vn 0.5995 0.7994 0.0393
vn 0.5753 0.8177 -0.0210
vn 0.5099 0.7801 0.3625
vn 0.5874 0.8089 -0.0272
vn 0.4533 0.8905 0.0401
vn 0.7455 0.4973 0.4437
vn 0.7239 0.4886 0.4871
vn 0.7779 0.5491 -0.3056
vn 0.7135 0.5965 -0.3677
vn 0.7330 0.4893 0.4725
vn 0.6616 0.5994 -0.4505
vn 0.5002 0.7521 0.4291
vn -0.8361 0.5436 0.0740
vn -0.1703 0.9344 -0.3130
vn -0.5414 0.8392 -0.0507
vn -0.8045 0.5879 -0.0843
vn -0.4072 0.8803 0.2436
vn -0.3498 0.8920 0.2864
vn -0.4850 0.8679 -0.1070
vn -0.3600 0.8837 0.2992
vn -0.2489 0.9552 0.1601
vn -0.8023 0.5950 -0.0479
vn -0.8040 0.5863 -0.0991
vn -0.4479 0.5981 0.6646
vn -0.3479 0.6383 0.6867
vn -0.8056 0.5870 -0.0808
vn -0.2576 0.6293 0.7332
vn -0.5137 0.8404 -0.1726
vn -0.7129 0.6831 -0.1584
vn 0.1363 0.9801 -0.1445
vn -0.3377 0.9380 -0.0778
vn -0.6032 0.7446 -0.2860
vn -0.3358 0.8982 0.2836
vn -0.2977 0.8867 0.3537
vn -0.2547 0.9618 -0.1007
vn -0.3144 0.8785 0.3598
vn -0.1361 0.9478 0.2882
vn -0.6175 0.7462 -0.2487
vn -0.5959 0.7449 -0.3001
vn -0.5955 0.5356 0.5987
vn -0.5031 0.5460 0.6699
vn -0.6059 0.7434 -0.2833
vn -0.4373 0.5047 0.7444
vn -0.2563 0.9490 -0.1836
vn -0.1717 0.6831 -0.7098
vn 0.1897 0.9801 0.0587
vn -0.0789 0.9380 -0.3375
vn -0.0089 0.7446 -0.6675
vn -0.4025 0.8982 -0.1765
vn -0.4487 0.8867 -0.1115
vn -0.0217 0.9618 -0.2730
vn -0.4615 0.8785 -0.1238
vn -0.3187 0.9479 0.0048
vn -0.0487 0.7462 -0.6640
vn 0.0070 0.7449 -0.6672
vn -0.7998 0.5356 -0.2709
vn -0.8230 0.5460 -0.1566
vn -0.0125 0.7434 -0.6687
vn -0.8609 0.5047 -0.0647
vn 0.0520 0.9490 -0.3110
vn 0.6459 0.4511 -0.6159
vn 0.3528 0.9317 0.0860
vn 0.4895 0.7967 -0.3544
vn 0.7249 0.5078 -0.4655
vn 0.1693 0.8359 -0.5222
vn 0.0897 0.8485 -0.5215
vn 0.4800 0.8335 -0.2736
vn 0.0894 0.8381 -0.5381
vn 0.0933 0.9299 -0.3557
vn 0.6999 0.5139 -0.4960
vn 0.7339 0.5067 -0.4523
vn -0.0931 0.4983 -0.8620
vn -0.1907 0.5445 -0.8168
vn 0.7235 0.5066 -0.4690
vn -0.2948 0.5362 -0.7909
vn 0.5475 0.8035 -0.2338
vn 0.7071 0.7029 0.0770
vn -0.1150 0.9220 0.3697
vn 0.3178 0.9344 0.1612
vn 0.6393 0.7304 0.2404
vn 0.2079 0.9606 -0.1844
vn 0.1508 0.9587 -0.2413
vn 0.2449 0.9462 0.2115
vn 0.1651 0.9532 -0.2534
vn 0.0148 0.9926 -0.1208
vn 0.6416 0.7400 0.2017
vn 0.6366 0.7275 0.2559
vn 0.3708 0.6852 -0.6269
vn 0.2610 0.7001 -0.6647
vn 0.6411 0.7300 0.2369
vn 0.1770 0.6674 -0.7234
vn 0.2718 0.9188 0.2861
vn -0.6825 0.6166 -0.3923
vn 0.1443 0.9510 -0.2736
vn -0.3331 0.8980 -0.2876
vn -0.5521 0.6625 -0.5062
vn -0.3974 0.9150 0.0699
vn -0.3728 0.9162 0.1467
vn -0.2476 0.9217 -0.2986
vn -0.3902 0.9083 0.1509
vn -0.2029 0.9738 0.1024
vn -0.5731 0.6693 -0.4729
vn -0.5423 0.6610 -0.5186
vn -0.7050 0.5941 0.3874
vn -0.6275 0.6197 0.4714
vn -0.5552 0.6617 -0.5039
vn -0.5759 0.5936 0.5621
vn -0.2336 0.8961 -0.3773
vn -0.5113 0.5597 0.6522
vn -0.1600 0.9854 -0.0583
vn -0.3004 0.8718 0.3869
vn -0.5841 0.6342 0.5065
vn 0.0286 0.8419 0.5388
vn 0.1089 0.8382 0.5344
vn -0.2874 0.9076 0.3061
vn 0.1080 0.8276 0.5508
vn 0.1142 0.9221 0.3697
vn -0.5570 0.6345 0.5359
vn -0.5937 0.6353 0.4939
vn 0.2326 0.4514 0.8615
vn 0.3354 0.4777 0.8120
vn -0.5828 0.6327 0.5100
vn 0.4343 0.4491 0.7808
vn -0.3614 0.8926 0.2694
vt 1.005744 0.690159
vt 0.842525 0.875687
vt 0.723412 0.935218
vt 0.702063 0.920240
vt 0.612584 0.516846
vt 0.683685 0.535405
vt 0.673065 0.543508
vt 0.085628 0.725085
vt 0.529826 0.708224
vt 0.552239 0.765573
vt 0.233025 0.818656
vt 0.604194 0.833542
vt 0.566712 0.787528
vt 0.302699 0.941197
vt 0.602591 0.995604
vt 0.365988 0.565701
vt 0.604303 0.612063
vt 0.344892 0.836724
vt 0.761470 0.555708
vt 0.072242 0.013759
vt 0.087768 0.078869
vt 0.068666 0.080893
vt 0.043312 0.017608
vt 0.280442 0.520688
vt 0.281166 0.453748
vt 0.308416 0.457280
vt 0.314595 0.520574
vt 0.133181 0.519766
vt 0.140942 0.456841
vt 0.165258 0.460484
vt 0.164170 0.519250
vt 0.189955 0.463915
vt 0.201770 0.519766
vt 0.267494 0.011919
vt 0.260710 0.068646
vt 0.246704 0.068262
vt 0.245192 0.011763
vt 0.219074 0.073933
vt 0.206760 0.015856
vt 0.164981 0.371350
vt 0.177113 0.371630
vt 0.133181 0.011763
vt 0.125816 0.070917
vt 0.110241 0.074633
vt 0.103156 0.012432
vt 0.317487 0.029646
vt 0.352610 0.011763
vt 0.383009 0.036727
vt 0.377390 0.067535
vt 0.383009 0.105358
vt 0.351938 0.116841
vt 0.319479 0.095519
vt 0.314595 0.061614
vt 0.148500 0.371875
vt 0.156913 0.151675
vt 0.164910 0.152001
vt 0.201770 0.080847
vt 0.222103 0.162208
vt 0.209374 0.164634
vt 0.284576 0.370511
vt 0.304174 0.372040
vt 0.246466 0.161227
vt 0.239332 0.160552
vt 0.114498 0.158668
vt 0.097249 0.159925
vt 0.267494 0.451029
vt 0.272502 0.369546
vt 0.125841 0.379048
vt 0.132376 0.379012
vt 0.133181 0.519129
vt 0.132255 0.519134
vt 0.295664 0.150694
vt 0.303123 0.151644
vt 0.117231 0.379675
vt 0.256702 0.380305
vt 0.248102 0.381131
vt 0.172902 0.151703
vt 0.311474 0.151938
vt 0.127588 0.158596
vt 0.187154 0.370436
vt 0.176209 0.150957
vt 0.314595 0.117709
vt 0.315462 0.116841
vt 0.316689 0.116841
vt 0.317557 0.117709
vt 0.317557 0.118936
vt 0.316689 0.119803
vt 0.315462 0.119803
vt 0.314595 0.118936
vt 0.262512 0.380347
vt 0.267494 0.520104
vt 0.266671 0.520098
vt 0.164022 0.011763
vt 0.165156 0.011809
vt 0.312353 0.011763
vt 0.313411 0.011898
vt 0.131034 0.519223
vt 0.265451 0.520216
vt 0.166289 0.011767
vt 0.314595 0.011940
s 1
usemtl Tree_tex
f 8/1/1 4/2/1 15/3/1 12/4/1
f 5/5/2 17/6/2 16/7/2
f 9/8/3 11/9/3 18/10/3 10/11/3
f 8/1/4 14/12/4 13/13/4
f 3/14/5 14/12/5 12/4/5 6/15/5
f 9/8/6 1/16/6 19/17/6 11/9/6
f 1/16/7 5/5/7 16/7/7 19/17/7
f 10/11/8 18/10/8 13/13/8 7/18/8
f 12/4/9 15/3/9 6/15/9
f 13/13/10 18/10/10 8/1/10
f 12/4/11 14/12/11 8/1/11
f 16/7/12 17/6/12 2/19/12 8/1/12
f 11/9/13 19/17/13 8/1/13
f 18/10/14 11/9/14 8/1/14
f 19/17/15 16/7/15 8/1/15
f 13/13/16 14/12/16 3/14/16 7/18/16
f 27/1/17 23/2/17 34/3/17 31/4/17
f 24/5/18 36/6/18 35/7/18
f 28/8/19 30/9/19 37/10/19 29/11/19
f 27/1/20 33/12/20 32/13/20
f 22/14/21 33/12/21 31/4/21 25/15/21
f 28/8/22 20/16/22 38/17/22 30/9/22
f 20/16/23 24/5/23 35/7/23 38/17/23
f 29/11/24 37/10/24 32/13/24 26/18/24
f 31/4/25 34/3/25 25/15/25
f 32/13/26 37/10/26 27/1/26
f 31/4/27 33/12/27 27/1/27
f 35/7/28 36/6/28 21/19/28 27/1/28
f 30/9/29 38/17/29 27/1/29
f 37/10/30 30/9/30 27/1/30
f 38/17/31 35/7/31 27/1/31
f 32/13/32 33/12/32 22/14/32 26/18/32
f 46/1/33 42/2/33 53/3/33 50/4/33
f 43/5/34 55/6/34 54/7/34
f 47/8/35 49/9/35 56/10/35 48/11/35
f 46/1/36 52/12/36 51/13/36
f 41/14/37 52/12/37 50/4/37 44/15/37
f 47/8/38 39/16/38 57/17/38 49/9/38
f 39/16/39 43/5/39 54/7/39 57/17/39
f 48/11/40 56/10/40 51/13/40 45/18/40
f 50/4/41 53/3/41 44/15/41
f 51/13/42 56/10/42 46/1/42
f 50/4/43 52/12/43 46/1/43
f 54/7/44 55/6/44 40/19/44 46/1/44
f 49/9/45 57/17/45 46/1/45
f 56/10/46 49/9/46 46/1/46
f 57/17/47 54/7/47 46/1/47
f 51/13/48 52/12/48 41/14/48 45/18/48
f 65/1/49 61/2/49 72/3/49 69/4/49
f 62/5/50 74/6/50 73/7/50
f 66/8/51 68/9/51 75/10/51 67/11/51
f 65/1/52 71/12/52 70/13/52
f 60/14/53 71/12/53 69/4/53 63/15/53
f 66/8/54 58/16/54 76/17/54 68/9/54
f 58/16/55 62/5/55 73/7/55 76/17/55
f 67/11/56 75/10/56 70/13/56 64/18/56
f 69/4/57 72/3/57 63/15/57
f 70/13/58 75/10/58 65/1/58
f 69/4/59 71/12/59 65/1/59
f 73/7/60 74/6/60 59/19/60 65/1/60
f 68/9/61 76/17/61 65/1/61
f 75/10/62 68/9/62 65/1/62
f 76/17/63 73/7/63 65/1/63
f 70/13/64 71/12/64 60/14/64 64/18/64
f 84/1/65 80/2/65 91/3/65 88/4/65
f 81/5/66 93/6/66 92/7/66
f 85/8/67 87/9/67 94/10/67 86/11/67
f 84/1/68 90/12/68 89/13/68
f 79/14/69 90/12/69 88/4/69 82/15/69
f 85/8/70 77/16/70 95/17/70 87/9/70
f 77/16/71 81/5/71 92/7/71 95/17/71
f 86/11/72 94/10/72 89/13/72 83/18/72
f 88/4/73 91/3/73 82/15/73
f 89/13/74 94/10/74 84/1/74
f 88/4/75 90/12/75 84/1/75
f 92/7/76 93/6/76 78/19/76 84/1/76
f 87/9/77 95/17/77 84/1/77
f 94/10/78 87/9/78 84/1/78
f 95/17/79 92/7/79 84/1/79
f 89/13/80 90/12/80 79/14/80 83/18/80
f 103/1/81 99/2/81 110/3/81 107/4/81
f 100/5/82 112/6/82 111/7/82
f 104/8/83 106/9/83 113/10/83 105/11/83
f 103/1/84 109/12/84 108/13/84
f 98/14/85 109/12/85 107/4/85 101/15/85
f 104/8/86 96/16/86 114/17/86 106/9/86
f 96/16/87 100/5/87 111/7/87 114/17/87
f 105/11/88 113/10/88 108/13/88 102/18/88
f 107/4/89 110/3/89 101/15/89
f 108/13/90 113/10/90 103/1/90
f 107/4/91 109/12/91 103/1/91
f 111/7/92 112/6/92 97/19/92 103/1/92
f 106/9/93 114/17/93 103/1/93
f 113/10/94 106/9/94 103/1/94
f 114/17/95 111/7/95 103/1/95
f 108/13/96 109/12/96 98/14/96 102/18/96
f 122/1/97 118/2/97 129/3/97 126/4/97
f 119/5/98 131/6/98 130/7/98
f 123/8/99 125/9/99 132/10/99 124/11/99
f 122/1/100 128/12/100 127/13/100
f 117/14/101 128/12/101 126/4/101 120/15/101
f 123/8/102 115/16/102 133/17/102 125/9/102
f 115/16/103 119/5/103 130/7/103 133/17/103
f 124/11/104 132/10/104 127/13/104 121/18/104
f 126/4/105 129/3/105 120/15/105
f 127/13/106 132/10/106 122/1/106
f 126/4/107 128/12/107 122/1/107
f 130/7/108 131/6/108 116/19/108 122/1/108
f 125/9/109 133/17/109 122/1/109
f 132/10/110 125/9/110 122/1/110
f 133/17/111 130/7/111 122/1/111
f 127/13/112 128/12/112 117/14/112 121/18/112
f 141/1/113 137/2/113 148/3/113 145/4/113
f 138/5/114 150/6/114 149/7/114
f 142/8/115 144/9/115 151/10/115 143/11/115
f 141/1/116 147/12/116 146/13/116
f 136/14/117 147/12/117 145/4/117 139/15/117
f 142/8/118 134/16/118 152/17/118 144/9/118
f 134/16/119 138/5/119 149/7/119 152/17/119
f 143/11/120 151/10/120 146/13/120 140/18/120
f 145/4/121 148/3/121 139/15/121
f 146/13/122 151/10/122 141/1/122
f 145/4/123 147/12/123 141/1/123
f 149/7/124 150/6/124 135/19/124 141/1/124
f 144/9/125 152/17/125 141/1/125
f 151/10/126 144/9/126 141/1/126
f 152/17/127 149/7/127 141/1/127
f 146/13/128 147/12/128 136/14/128 140/18/128
f 160/1/129 156/2/129 167/3/129 164/4/129
f 157/5/130 169/6/130 168/7/130
f 161/8/131 163/9/131 170/10/131 162/11/131
f 160/1/132 166/12/132 165/13/132
f 155/14/133 166/12/133 164/4/133 158/15/133
f 161/8/134 153/16/134 171/17/134 163/9/134
f 153/16/135 157/5/135 168/7/135 171/17/135
f 162/11/136 170/10/136 165/13/136 159/18/136
f 164/4/137 167/3/137 158/15/137
f 165/13/138 170/10/138 160/1/138
f 164/4/139 166/12/139 160/1/139
f 168/7/140 169/6/140 154/19/140 160/1/140
f 163/9/141 171/17/141 160/1/141
f 170/10/142 163/9/142 160/1/142
f 171/17/143 168/7/143 160/1/143
f 165/13/144 166/12/144 155/14/144 159/18/144
f 179/1/145 175/2/145 186/3/145 183/4/145
f 176/5/146 188/6/146 187/7/146
f 180/8/147 182/9/147 189/10/147 181/11/147
f 179/1/148 185/12/148 184/13/148
f 174/14/149 185/12/149 183/4/149 177/15/149
f 180/8/150 172/16/150 190/17/150 182/9/150
f 172/16/151 176/5/151 187/7/151 190/17/151
f 181/11/152 189/10/152 184/13/152 178/18/152
f 183/4/153 186/3/153 177/15/153
f 184/13/154 189/10/154 179/1/154
f 183/4/155 185/12/155 179/1/155
f 187/7/156 188/6/156 173/19/156 179/1/156
f 182/9/157 190/17/157 179/1/157
f 189/10/158 182/9/158 179/1/158
f 190/17/159 187/7/159 179/1/159
f 184/13/160 185/12/160 174/14/160 178/18/160
f 198/1/161 194/2/161 205/3/161 202/4/161
f 195/5/162 207/6/162 206/7/162
f 199/8/163 201/9/163 208/10/163 200/11/163
f 198/1/164 204/12/164 203/13/164
f 193/14/165 204/12/165 202/4/165 196/15/165
f 199/8/166 191/16/166 209/17/166 201/9/166
f 191/16/167 195/5/167 206/7/167 209/17/167
f 200/11/168 208/10/168 203/13/168 197/18/168
f 202/4/169 205/3/169 196/15/169
f 203/13/170 208/10/170 198/1/170
f 202/4/171 204/12/171 198/1/171
f 206/7/172 207/6/172 192/19/172 198/1/172
f 201/9/173 209/17/173 198/1/173
f 208/10/174 201/9/174 198/1/174
f 209/17/175 206/7/175 198/1/175
f 203/13/176 204/12/176 193/14/176 197/18/176
f 217/1/177 213/2/177 224/3/177 221/4/177
f 214/5/178 226/6/178 225/7/178
f 218/8/179 220/9/179 227/10/179 219/11/179
f 217/1/180 223/12/180 222/13/180
f 212/14/181 223/12/181 221/4/181 215/15/181
f 218/8/182 210/16/182 228/17/182 220/9/182
f 210/16/183 214/5/183 225/7/183 228/17/183
f 219/11/184 227/10/184 222/13/184 216/18/184
f 221/4/185 224/3/185 215/15/185
f 222/13/186 227/10/186 217/1/186
f 221/4/187 223/12/187 217/1/187
f 225/7/188 226/6/188 211/19/188 217/1/188
f 220/9/189 228/17/189 217/1/189
f 227/10/190 220/9/190 217/1/190
f 228/17/191 225/7/191 217/1/191
f 222/13/192 223/12/192 212/14/192 216/18/192
f 236/1/193 232/2/193 243/3/193 240/4/193
f 233/5/194 245/6/194 244/7/194
f 237/8/195 239/9/195 246/10/195 238/11/195
f 236/1/196 242/12/196 241/13/196
f 231/14/197 242/12/197 240/4/197 234/15/197
f 237/8/198 229/16/198 247/17/198 239/9/198
f 229/16/199 233/5/199 244/7/199 247/17/199
f 238/11/200 246/10/200 241/13/200 235/18/200
f 240/4/201 243/3/201 234/15/201
f 241/13/202 246/10/202 236/1/202
f 240/4/203 242/12/203 236/1/203
f 244/7/204 245/6/204 230/19/204 236/1/204
f 239/9/205 247/17/205 236/1/205
f 246/10/206 239/9/206 236/1/206
f 247/17/207 244/7/207 236/1/207
f 241/13/208 242/12/208 231/14/208 235/18/208
f 255/1/209 251/2/209 262/3/209 259/4/209
f 252/5/210 264/6/210 263/7/210
f 256/8/211 258/9/211 265/10/211 257/11/211
f 255/1/212 261/12/212 260/13/212
f 250/14/213 261/12/213 259/4/213 253/15/213
f 256/8/214 248/16/214 266/17/214 258/9/214
f 248/16/215 252/5/215 263/7/215 266/17/215
f 257/11/216 265/10/216 260/13/216 254/18/216
f 259/4/217 262/3/217 253/15/217
f 260/13/218 265/10/218 255/1/218
f 259/4/219 261/12/219 255/1/219
f 263/7/220 264/6/220 249/19/220 255/1/220
f 258/9/221 266/17/221 255/1/221
f 265/10/222 258/9/222 255/1/222
f 266/17/223 263/7/223 255/1/223
f 260/13/224 261/12/224 250/14/224 254/18/224
f 274/1/225 270/2/225 281/3/225 278/4/225
f 271/5/226 283/6/226 282/7/226
f 275/8/227 277/9/227 284/10/227 276/11/227
f 274/1/228 280/12/228 279/13/228
f 269/14/229 280/12/229 278/4/229 272/15/229
f 275/8/230 267/16/230 285/17/230 277/9/230
f 267/16/231 271/5/231 282/7/231 285/17/231
f 276/11/232 284/10/232 279/13/232 273/18/232
f 278/4/233 281/3/233 272/15/233
f 279/13/234 284/10/234 274/1/234
f 278/4/235 280/12/235 274/1/235
f 282/7/236 283/6/236 268/19/236 274/1/236
f 277/9/237 285/17/237 274/1/237
f 284/10/238 277/9/238 274/1/238
f 285/17/239 282/7/239 274/1/239
f 279/13/240 280/12/240 269/14/240 273/18/240
f 293/1/241 289/2/241 300/3/241 297/4/241
f 290/5/242 302/6/242 301/7/242
f 294/8/243 296/9/243 303/10/243 295/11/243
f 293/1/244 299/12/244 298/13/244
f 288/14/245 299/12/245 297/4/245 291/15/245
f 294/8/246 286/16/246 304/17/246 296/9/246
f 286/16/247 290/5/247 301/7/247 304/17/247
f 295/11/248 303/10/248 298/13/248 292/18/248
f 297/4/249 300/3/249 291/15/249
f 298/13/250 303/10/250 293/1/250
f 297/4/251 299/12/251 293/1/251
f 301/7/252 302/6/252 287/19/252 293/1/252
f 296/9/253 304/17/253 293/1/253
f 303/10/254 296/9/254 293/1/254
f 304/17/255 301/7/255 293/1/255
f 298/13/256 299/12/256 288/14/256 292/18/256
f 312/1/257 308/2/257 319/3/257 316/4/257
f 309/5/258 321/6/258 320/7/258
f 313/8/259 315/9/259 322/10/259 314/11/259
f 312/1/260 318/12/260 317/13/260
f 307/14/261 318/12/261 316/4/261 310/15/261
f 313/8/262 305/16/262 323/17/262 315/9/262
f 305/16/263 309/5/263 320/7/263 323/17/263
f 314/11/264 322/10/264 317/13/264 311/18/264
f 316/4/265 319/3/265 310/15/265
f 317/13/266 322/10/266 312/1/266
f 316/4/267 318/12/267 312/1/267
f 320/7/268 321/6/268 306/19/268 312/1/268
f 315/9/269 323/17/269 312/1/269
f 322/10/270 315/9/270 312/1/270
f 323/17/271 320/7/271 312/1/271
f 317/13/272 318/12/272 307/14/272 311/18/272
f 331/1/273 327/2/273 338/3/273 335/4/273
f 328/5/274 340/6/274 339/7/274
f 332/8/275 334/9/275 341/10/275 333/11/275
f 331/1/276 337/12/276 336/13/276
f 326/14/277 337/12/277 335/4/277 329/15/277
f 332/8/278 324/16/278 342/17/278 334/9/278
f 324/16/279 328/5/279 339/7/279 342/17/279
f 333/11/280 341/10/280 336/13/280 330/18/280
f 335/4/281 338/3/281 329/15/281
f 336/13/282 341/10/282 331/1/282
f 335/4/283 337/12/283 331/1/283
f 339/7/284 340/6/284 325/19/284 331/1/284
f 334/9/285 342/17/285 331/1/285
f 341/10/286 334/9/286 331/1/286
f 342/17/287 339/7/287 331/1/287
f 336/13/288 337/12/288 326/14/288 330/18/288
f 350/1/289 346/2/289 357/3/289 354/4/289
f 347/5/290 359/6/290 358/7/290
f 351/8/291 353/9/291 360/10/291 352/11/291
f 350/1/292 356/12/292 355/13/292
f 345/14/293 356/12/293 354/4/293 348/15/293
f 351/8/294 343/16/294 361/17/294 353/9/294
f 343/16/295 347/5/295 358/7/295 361/17/295
f 352/11/296 360/10/296 355/13/296 349/18/296
f 354/4/297 357/3/297 348/15/297
f 355/13/298 360/10/298 350/1/298
f 354/4/299 356/12/299 350/1/299
f 358/7/300 359/6/300 344/19/300 350/1/300
f 353/9/301 361/17/301 350/1/301
f 360/10/302 353/9/302 350/1/302
f 361/17/303 358/7/303 350/1/303
f 355/13/304 356/12/304 345/14/304 349/18/304
f 369/1/305 365/2/305 376/3/305 373/4/305
f 366/5/306 378/6/306 377/7/306
f 370/8/307 372/9/307 379/10/307 371/11/307
f 369/1/308 375/12/308 374/13/308
f 364/14/309 375/12/309 373/4/309 367/15/309
f 370/8/310 362/16/310 380/17/310 372/9/310
f 362/16/311 366/5/311 377/7/311 380/17/311
f 371/11/312 379/10/312 374/13/312 368/18/312
f 373/4/313 376/3/313 367/15/313
f 374/13/314 379/10/314 369/1/314
f 373/4/315 375/12/315 369/1/315
f 377/7/316 378/6/316 363/19/316 369/1/316
f 372/9/317 380/17/317 369/1/317
f 379/10/318 372/9/318 369/1/318
f 380/17/319 377/7/319 369/1/319
f 374/13/320 375/12/320 364/14/320 368/18/320
f 388/1/321 384/2/321 395/3/321 392/4/321
f 385/5/322 397/6/322 396/7/322
f 389/8/323 391/9/323 398/10/323 390/11/323
f 388/1/324 394/12/324 393/13/324
f 383/14/325 394/12/325 392/4/325 386/15/325
f 389/8/326 381/16/326 399/17/326 391/9/326
f 381/16/327 385/5/327 396/7/327 399/17/327
f 390/11/328 398/10/328 393/13/328 387/18/328
f 392/4/329 395/3/329 386/15/329
f 393/13/330 398/10/330 388/1/330
f 392/4/331 394/12/331 388/1/331
f 396/7/332 397/6/332 382/19/332 388/1/332
f 391/9/333 399/17/333 388/1/333
f 398/10/334 391/9/334 388/1/334
f 399/17/335 396/7/335 388/1/335
f 393/13/336 394/12/336 383/14/336 387/18/336
f 407/1/337 403/2/337 414/3/337 411/4/337
f 404/5/338 416/6/338 415/7/338
f 408/8/339 410/9/339 417/10/339 409/11/339
f 407/1/340 413/12/340 412/13/340
f 402/14/341 413/12/341 411/4/341 405/15/341
f 408/8/342 400/16/342 418/17/342 410/9/342
f 400/16/343 404/5/343 415/7/343 418/17/343
f 409/11/344 417/10/344 412/13/344 406/18/344
f 411/4/345 414/3/345 405/15/345
f 412/13/346 417/10/346 407/1/346
f 411/4/347 413/12/347 407/1/347
f 415/7/348 416/6/348 401/19/348 407/1/348
f 410/9/349 418/17/349 407/1/349
f 417/10/350 410/9/350 407/1/350
f 418/17/351 415/7/351 407/1/351
f 412/13/352 413/12/352 402/14/352 406/18/352
f 426/1/353 422/2/353 433/3/353 430/4/353
f 423/5/354 435/6/354 434/7/354
f 427/8/355 429/9/355 436/10/355 428/11/355
f 426/1/356 432/12/356 431/13/356
f 421/14/357 432/12/357 430/4/357 424/15/357
f 427/8/358 419/16/358 437/17/358 429/9/358
f 419/16/359 423/5/359 434/7/359 437/17/359
f 428/11/360 436/10/360 431/13/360 425/18/360
f 430/4/361 433/3/361 424/15/361
f 431/13/362 436/10/362 426/1/362
f 430/4/363 432/12/363 426/1/363
f 434/7/364 435/6/364 420/19/364 426/1/364
f 429/9/365 437/17/365 426/1/365
f 436/10/366 429/9/366 426/1/366
f 437/17/367 434/7/367 426/1/367
f 431/13/368 432/12/368 421/14/368 425/18/368
f 445/1/369 441/2/369 452/3/369 449/4/369
f 442/5/370 454/6/370 453/7/370
f 446/8/371 448/9/371 455/10/371 447/11/371
f 445/1/372 451/12/373 450/13/374
f 440/14/375 451/12/375 449/4/375 443/15/375
f 446/8/376 438/16/376 456/17/376 448/9/376
f 438/16/377 442/5/377 453/7/377 456/17/377
f 447/11/378 455/10/378 450/13/378 444/18/378
f 449/4/379 452/3/379 443/15/379
f 450/13/380 455/10/380 445/1/380
f 449/4/381 451/12/373 445/1/372
f 453/7/382 454/6/382 439/19/382 445/1/382
f 448/9/383 456/17/383 445/1/383
f 455/10/384 448/9/384 445/1/384
f 456/17/385 453/7/385 445/1/385
f 450/13/386 451/12/386 440/14/386 444/18/386
f 464/1/387 460/2/387 471/3/387 468/4/387
f 461/5/388 473/6/388 472/7/388
f 465/8/389 467/9/389 474/10/389 466/11/389
f 464/1/390 470/12/391 469/13/392
f 459/14/393 470/12/393 468/4/393 462/15/393
f 465/8/394 457/16/394 475/17/394 467/9/394
f 457/16/395 461/5/395 472/7/395 475/17/395
f 466/11/396 474/10/396 469/13/396 463/18/396
f 468/4/397 471/3/397 462/15/397
f 469/13/398 474/10/398 464/1/398
f 468/4/399 470/12/391 464/1/390
f 472/7/400 473/6/400 458/19/400 464/1/400
f 467/9/401 475/17/401 464/1/401
f 474/10/402 467/9/402 464/1/402
f 475/17/403 472/7/403 464/1/403
f 469/13/404 470/12/404 459/14/404 463/18/404
f 483/1/405 479/2/405 490/3/405 487/4/405
f 480/5/406 492/6/406 491/7/406
f 484/8/407 486/9/407 493/10/407 485/11/407
f 483/1/408 489/12/409 488/13/410
f 478/14/411 489/12/411 487/4/411 481/15/411
f 484/8/412 476/16/412 494/17/412 486/9/412
f 476/16/413 480/5/413 491/7/413 494/17/413
f 485/11/414 493/10/414 488/13/414 482/18/414
f 487/4/415 490/3/415 481/15/415
f 488/13/416 493/10/416 483/1/416
f 487/4/417 489/12/409 483/1/408
f 491/7/418 492/6/418 477/19/418 483/1/418
f 486/9/419 494/17/419 483/1/419
f 493/10/420 486/9/420 483/1/420
f 494/17/421 491/7/421 483/1/421
f 488/13/422 489/12/422 478/14/422 482/18/422
f 502/1/423 498/2/423 509/3/423 506/4/423
f 499/5/424 511/6/424 510/7/424
f 503/8/425 505/9/425 512/10/425 504/11/425
f 502/1/426 508/12/426 507/13/426
f 497/14/427 508/12/427 506/4/427 500/15/427
f 503/8/428 495/16/428 513/17/428 505/9/428
f 495/16/429 499/5/429 510/7/429 513/17/429
f 504/11/430 512/10/430 507/13/430 501/18/430
f 506/4/431 509/3/431 500/15/431
f 507/13/432 512/10/432 502/1/432
f 506/4/433 508/12/433 502/1/433
f 510/7/434 511/6/434 496/19/434 502/1/434
f 505/9/435 513/17/435 502/1/435
f 512/10/436 505/9/436 502/1/436
f 513/17/437 510/7/437 502/1/437
f 507/13/438 508/12/438 497/14/438 501/18/438
f 521/1/439 517/2/439 528/3/439 525/4/439
f 518/5/440 530/6/440 529/7/440
f 522/8/441 524/9/441 531/10/441 523/11/441
f 521/1/442 527/12/442 526/13/442
f 516/14/443 527/12/443 525/4/443 519/15/443
f 522/8/444 514/16/444 532/17/444 524/9/444
f 514/16/445 518/5/445 529/7/445 532/17/445
f 523/11/446 531/10/446 526/13/446 520/18/446
f 525/4/447 528/3/447 519/15/447
f 526/13/448 531/10/448 521/1/448
f 525/4/449 527/12/449 521/1/449
f 529/7/450 530/6/450 515/19/450 521/1/450
f 524/9/451 532/17/451 521/1/451
f 531/10/452 524/9/452 521/1/452
f 532/17/453 529/7/453 521/1/453
f 526/13/454 527/12/454 516/14/454 520/18/454
f 533/20/455 534/21/455 536/22/455 535/23/455
f 535/24/456 536/25/456 538/26/456 537/27/456
f 537/28/457 538/29/457 540/30/457 539/31/457
f 539/31/458 540/30/458 542/32/458 541/33/458
f 541/34/459 542/35/459 544/36/459 543/37/459
f 543/37/460 544/36/460 546/38/460 545/39/460
f 542/32/461 540/30/461 552/40/461 553/41/461
f 545/42/462 546/43/462 548/44/462 547/45/462
f 547/45/463 548/44/463 534/21/463 533/20/463
f 533/46/464 535/47/464 537/48/464 539/49/464 541/50/464 543/51/464 545/52/464 547/53/464
f 552/40/465 551/54/465 559/55/465 560/56/465
f 548/57/466 546/38/466 555/58/466 556/59/466
f 538/26/467 536/25/467 549/60/467 551/61/467
f 544/36/468 542/35/468 553/62/468 554/63/468
f 534/21/469 548/44/469 556/64/469 550/65/469
f 536/25/470 534/66/470 550/67/470 549/60/470
f 540/30/471 538/29/471 551/54/471 552/40/471
f 546/38/472 544/36/472 554/63/472 555/58/472
f 564/68/473 563/69/473 571/70/474 572/71/474
f 549/60/475 550/67/475 558/72/475 557/73/475
f 550/65/476 556/64/476 564/68/477 558/74/478
f 555/58/479 554/63/479 562/75/480 563/76/481
f 553/41/482 552/40/482 560/56/482 561/77/482
f 551/61/483 549/60/483 557/73/483 559/78/483
f 556/64/484 555/79/484 563/69/473 564/68/473
f 554/80/485 553/41/485 561/77/485 562/81/485
f 565/82/486 566/83/486 572/84/486 571/85/486 570/86/486 569/87/486 568/88/486 567/89/486
f 562/75/487 561/90/487 569/91/487 570/92/487
f 560/56/488 559/55/488 567/93/488 568/94/488
f 557/73/489 558/72/489 566/95/489 565/96/489
f 558/74/478 564/68/477 572/71/490 566/97/490
f 563/76/481 562/75/480 570/92/491 571/98/491
f 561/77/492 560/56/492 568/94/492 569/99/492
f 559/78/493 557/73/493 565/96/493 567/100/493
f 580/1/494 576/2/494 587/3/494 584/4/494
f 577/5/495 589/6/495 588/7/495
f 581/8/496 583/9/496 590/10/496 582/11/496
f 580/1/497 586/12/498 585/13/499
f 575/14/500 586/12/500 584/4/500 578/15/500
f 581/8/501 573/16/501 591/17/501 583/9/501
f 573/16/502 577/5/502 588/7/502 591/17/502
f 582/11/503 590/10/503 585/13/503 579/18/503
f 584/4/504 587/3/504 578/15/504
f 585/13/505 590/10/505 580/1/505
f 584/4/506 586/12/498 580/1/497
f 588/7/507 589/6/507 574/19/507 580/1/507
f 583/9/508 591/17/508 580/1/508
f 590/10/509 583/9/509 580/1/509
f 591/17/510 588/7/510 580/1/510
f 585/13/511 586/12/511 575/14/511 579/18/511
f 599/1/512 595/2/512 606/3/512 603/4/512
f 596/5/513 608/6/513 607/7/513
f 600/8/514 602/9/514 609/10/514 601/11/514
f 599/1/515 605/12/515 604/13/515
f 594/14/516 605/12/516 603/4/516 597/15/516
f 600/8/517 592/16/517 610/17/517 602/9/517
f 592/16/518 596/5/518 607/7/518 610/17/518
f 601/11/519 609/10/519 604/13/519 598/18/519
f 603/4/520 606/3/520 597/15/520
f 604/13/521 609/10/521 599/1/521
f 603/4/522 605/12/522 599/1/522
f 607/7/523 608/6/523 593/19/523 599/1/523
f 602/9/524 610/17/524 599/1/524
f 609/10/525 602/9/525 599/1/525
f 610/17/526 607/7/526 599/1/526
f 604/13/527 605/12/527 594/14/527 598/18/527
f 618/1/528 614/2/528 625/3/528 622/4/528
f 615/5/529 627/6/529 626/7/529
f 619/8/530 621/9/530 628/10/530 620/11/530
f 618/1/531 624/12/531 623/13/531
f 613/14/532 624/12/532 622/4/532 616/15/532
f 619/8/533 611/16/533 629/17/533 621/9/533
f 611/16/534 615/5/534 626/7/534 629/17/534
f 620/11/535 628/10/535 623/13/535 617/18/535
f 622/4/536 625/3/536 616/15/536
f 623/13/537 628/10/537 618/1/537
f 622/4/538 624/12/538 618/1/538
f 626/7/539 627/6/539 612/19/539 618/1/539
f 621/9/540 629/17/540 618/1/540
f 628/10/541 621/9/541 618/1/541
f 629/17/542 626/7/542 618/1/542
f 623/13/543 624/12/543 613/14/543 617/18/543
f 637/1/544 633/2/544 644/3/544 641/4/544
f 634/5/545 646/6/545 645/7/545
f 638/8/546 640/9/546 647/10/546 639/11/546
f 637/1/547 643/12/547 642/13/547
f 632/14/548 643/12/548 641/4/548 635/15/548
f 638/8/549 630/16/549 648/17/549 640/9/549
f 630/16/550 634/5/550 645/7/550 648/17/550
f 639/11/551 647/10/551 642/13/551 636/18/551
f 641/4/552 644/3/552 635/15/552
f 642/13/553 647/10/553 637/1/553
f 641/4/554 643/12/554 637/1/554
f 645/7/555 646/6/555 631/19/555 637/1/555
f 640/9/556 648/17/556 637/1/556
f 647/10/557 640/9/557 637/1/557
f 648/17/558 645/7/558 637/1/558
f 642/13/559 643/12/559 632/14/559 636/18/559
f 656/1/560 652/2/560 663/3/560 660/4/560
f 653/5/561 665/6/561 664/7/561
f 657/8/562 659/9/562 666/10/562 658/11/562
f 656/1/563 662/12/563 661/13/563
f 651/14/564 662/12/564 660/4/564 654/15/564
f 657/8/565 649/16/565 667/17/565 659/9/565
f 649/16/566 653/5/566 664/7/566 667/17/566
f 658/11/567 666/10/567 661/13/567 655/18/567
f 660/4/568 663/3/568 654/15/568
f 661/13/569 666/10/569 656/1/569
f 660/4/570 662/12/570 656/1/570
f 664/7/571 665/6/571 650/19/571 656/1/571
f 659/9/572 667/17/572 656/1/572
f 666/10/573 659/9/573 656/1/573
f 667/17/574 664/7/574 656/1/574
f 661/13/575 662/12/575 651/14/575 655/18/575
f 675/1/576 671/2/576 682/3/576 679/4/576
f 672/5/577 684/6/577 683/7/577
f 676/8/578 678/9/578 685/10/578 677/11/578
f 675/1/579 681/12/579 680/13/579
f 670/14/580 681/12/580 679/4/580 673/15/580
f 676/8/581 668/16/581 686/17/581 678/9/581
f 668/16/582 672/5/582 683/7/582 686/17/582
f 677/11/583 685/10/583 680/13/583 674/18/583
f 679/4/584 682/3/584 673/15/584
f 680/13/585 685/10/585 675/1/585
f 679/4/586 681/12/586 675/1/586
f 683/7/587 684/6/587 669/19/587 675/1/587
f 678/9/588 686/17/588 675/1/588
f 685/10/589 678/9/589 675/1/589
f 686/17/590 683/7/590 675/1/590
f 680/13/591 681/12/591 670/14/591 674/18/591
f 694/1/592 690/2/592 701/3/592 698/4/592
f 691/5/593 703/6/593 702/7/593
f 695/8/594 697/9/594 704/10/594 696/11/594
f 694/1/595 700/12/596 699/13/597
f 689/14/598 700/12/598 698/4/598 692/15/598
f 695/8/599 687/16/599 705/17/599 697/9/599
f 687/16/600 691/5/600 702/7/600 705/17/600
f 696/11/601 704/10/601 699/13/601 693/18/601
f 698/4/602 701/3/602 692/15/602
f 699/13/603 704/10/603 694/1/603
f 698/4/604 700/12/596 694/1/595
f 702/7/605 703/6/605 688/19/605 694/1/605
f 697/9/606 705/17/606 694/1/606
f 704/10/607 697/9/607 694/1/607
f 705/17/608 702/7/608 694/1/608
f 699/13/609 700/12/609 689/14/609 693/18/609
f 713/1/610 709/2/610 720/3/610 717/4/610
f 710/5/611 722/6/611 721/7/611
f 714/8/612 716/9/612 723/10/612 715/11/612
f 713/1/613 719/12/613 718/13/613
f 708/14/614 719/12/614 717/4/614 711/15/614
f 714/8/615 706/16/615 724/17/615 716/9/615
f 706/16/616 710/5/616 721/7/616 724/17/616
f 715/11/617 723/10/617 718/13/617 712/18/617
f 717/4/618 720/3/618 711/15/618
f 718/13/619 723/10/619 713/1/619
f 717/4/620 719/12/620 713/1/620
f 721/7/621 722/6/621 707/19/621 713/1/621
f 716/9/622 724/17/622 713/1/622
f 723/10/623 716/9/623 713/1/623
f 724/17/624 721/7/624 713/1/624
f 718/13/625 719/12/625 708/14/625 712/18/625
f 732/1/626 728/2/626 739/3/626 736/4/626
f 729/5/627 741/6/627 740/7/627
f 733/8/628 735/9/628 742/10/628 734/11/628
f 732/1/629 738/12/629 737/13/629
f 727/14/630 738/12/630 736/4/630 730/15/630
f 733/8/631 725/16/631 743/17/631 735/9/631
f 725/16/632 729/5/632 740/7/632 743/17/632
f 734/11/633 742/10/633 737/13/633 731/18/633
f 736/4/634 739/3/634 730/15/634
f 737/13/635 742/10/635 732/1/635
f 736/4/636 738/12/636 732/1/636
f 740/7/637 741/6/637 726/19/637 732/1/637
f 735/9/638 743/17/638 732/1/638
f 742/10/639 735/9/639 732/1/639
f 743/17/640 740/7/640 732/1/640
f 737/13/641 738/12/641 727/14/641 731/18/641
f 751/1/642 747/2/642 758/3/642 755/4/642
f 748/5/643 760/6/643 759/7/643
f 752/8/644 754/9/644 761/10/644 753/11/644
f 751/1/645 757/12/645 756/13/645
f 746/14/646 757/12/646 755/4/646 749/15/646
f 752/8/647 744/16/647 762/17/647 754/9/647
f 744/16/648 748/5/648 759/7/648 762/17/648
f 753/11/649 761/10/649 756/13/649 750/18/649
f 755/4/650 758/3/650 749/15/650
f 756/13/651 761/10/651 751/1/651
f 755/4/652 757/12/652 751/1/652
f 759/7/653 760/6/653 745/19/653 751/1/653
f 754/9/654 762/17/654 751/1/654
f 761/10/655 754/9/655 751/1/655
f 762/17/656 759/7/656 751/1/656
f 756/13/657 757/12/657 746/14/657 750/18/657
f 770/1/658 766/2/658 777/3/658 774/4/658
f 767/5/659 779/6/659 778/7/659
f 771/8/660 773/9/660 780/10/660 772/11/660
f 770/1/661 776/12/661 775/13/661
f 765/14/662 776/12/662 774/4/662 768/15/662
f 771/8/663 763/16/663 781/17/663 773/9/663
f 763/16/664 767/5/664 778/7/664 781/17/664
f 772/11/665 780/10/665 775/13/665 769/18/665
f 774/4/666 777/3/666 768/15/666
f 775/13/667 780/10/667 770/1/667
f 774/4/668 776/12/668 770/1/668
f 778/7/669 779/6/669 764/19/669 770/1/669
f 773/9/670 781/17/670 770/1/670
f 780/10/671 773/9/671 770/1/671
f 781/17/672 778/7/672 770/1/672
f 775/13/673 776/12/673 765/14/673 769/18/673
f 789/1/674 785/2/674 796/3/674 793/4/674
f 786/5/675 798/6/675 797/7/675
f 790/8/676 792/9/676 799/10/676 791/11/676
f 789/1/677 795/12/677 794/13/677
f 784/14/678 795/12/678 793/4/678 787/15/678
f 790/8/679 782/16/679 800/17/679 792/9/679
f 782/16/680 786/5/680 797/7/680 800/17/680
f 791/11/681 799/10/681 794/13/681 788/18/681
f 793/4/682 796/3/682 787/15/682
f 794/13/683 799/10/683 789/1/683
f 793/4/684 795/12/684 789/1/684
f 797/7/685 798/6/685 783/19/685 789/1/685
f 792/9/686 800/17/686 789/1/686
f 799/10/687 792/9/687 789/1/687
f 800/17/688 797/7/688 789/1/688
f 794/13/689 795/12/689 784/14/689 788/18/689
f 808/1/690 804/2/690 815/3/690 812/4/690
f 805/5/691 817/6/691 816/7/691
f 809/8/692 811/9/692 818/10/692 810/11/692
f 808/1/693 814/12/693 813/13/693
f 803/14/694 814/12/694 812/4/694 806/15/694
f 809/8/695 801/16/695 819/17/695 811/9/695
f 801/16/696 805/5/696 816/7/696 819/17/696
f 810/11/697 818/10/697 813/13/697 807/18/697
f 812/4/698 815/3/698 806/15/698
f 813/13/699 818/10/699 808/1/699
f 812/4/700 814/12/700 808/1/700
f 816/7/701 817/6/701 802/19/701 808/1/701
f 811/9/702 819/17/702 808/1/702
f 818/10/703 811/9/703 808/1/703
f 819/17/704 816/7/704 808/1/704
f 813/13/705 814/12/705 803/14/705 807/18/705
f 827/1/706 823/2/706 834/3/706 831/4/706
f 824/5/707 836/6/707 835/7/707
f 828/8/708 830/9/708 837/10/708 829/11/708
f 827/1/709 833/12/709 832/13/709
f 822/14/710 833/12/710 831/4/710 825/15/710
f 828/8/711 820/16/711 838/17/711 830/9/711
f 820/16/712 824/5/712 835/7/712 838/17/712
f 829/11/713 837/10/713 832/13/713 826/18/713
f 831/4/714 834/3/714 825/15/714
f 832/13/715 837/10/715 827/1/715
f 831/4/716 833/12/716 827/1/716
f 835/7/717 836/6/717 821/19/717 827/1/717
f 830/9/718 838/17/718 827/1/718
f 837/10/719 830/9/719 827/1/719
f 838/17/720 835/7/720 827/1/720
f 832/13/721 833/12/721 822/14/721 826/18/721
f 846/1/722 842/2/722 853/3/722 850/4/722
f 843/5/723 855/6/723 854/7/723
f 847/8/724 849/9/724 856/10/724 848/11/724
f 846/1/725 852/12/725 851/13/725
f 841/14/726 852/12/726 850/4/726 844/15/726
f 847/8/727 839/16/727 857/17/727 849/9/727
f 839/16/728 843/5/728 854/7/728 857/17/728
f 848/11/729 856/10/729 851/13/729 845/18/729
f 850/4/730 853/3/730 844/15/730
f 851/13/731 856/10/731 846/1/731
f 850/4/732 852/12/732 846/1/732
f 854/7/733 855/6/733 840/19/733 846/1/733
f 849/9/734 857/17/734 846/1/734
f 856/10/735 849/9/735 846/1/735
f 857/17/736 854/7/736 846/1/736
f 851/13/737 852/12/737 841/14/737 845/18/737
f 865/1/738 861/2/738 872/3/738 869/4/738
f 862/5/739 874/6/739 873/7/739
f 866/8/740 868/9/740 875/10/740 867/11/740
f 865/1/741 871/12/741 870/13/741
f 860/14/742 871/12/742 869/4/742 863/15/742
f 866/8/743 858/16/743 876/17/743 868/9/743
f 858/16/744 862/5/744 873/7/744 876/17/744
f 867/11/745 875/10/745 870/13/745 864/18/745
f 869/4/746 872/3/746 863/15/746
f 870/13/747 875/10/747 865/1/747
f 869/4/748 871/12/748 865/1/748
f 873/7/749 874/6/749 859/19/749 865/1/749
f 868/9/750 876/17/750 865/1/750
f 875/10/751 868/9/751 865/1/751
f 876/17/752 873/7/752 865/1/752
f 870/13/753 871/12/753 860/14/753 864/18/753
f 884/1/754 880/2/754 891/3/754 888/4/754
f 881/5/755 893/6/755 892/7/755
f 885/8/756 887/9/756 894/10/756 886/11/756
f 884/1/757 890/12/757 889/13/757
f 879/14/758 890/12/758 888/4/758 882/15/758
f 885/8/759 877/16/759 895/17/759 887/9/759
f 877/16/760 881/5/760 892/7/760 895/17/760
f 886/11/761 894/10/761 889/13/761 883/18/761
f 888/4/762 891/3/762 882/15/762
f 889/13/763 894/10/763 884/1/763
f 888/4/764 890/12/764 884/1/764
f 892/7/765 893/6/765 878/19/765 884/1/765
f 887/9/766 895/17/766 884/1/766
f 894/10/767 887/9/767 884/1/767
f 895/17/768 892/7/768 884/1/768
f 889/13/769 890/12/769 879/14/769 883/18/769
f 903/1/770 899/2/770 910/3/770 907/4/770
f 900/5/771 912/6/771 911/7/771
f 904/8/772 906/9/772 913/10/772 905/11/772
f 903/1/773 909/12/773 908/13/773
f 898/14/774 909/12/774 907/4/774 901/15/774
f 904/8/775 896/16/775 914/17/775 906/9/775
f 896/16/776 900/5/776 911/7/776 914/17/776
f 905/11/777 913/10/777 908/13/777 902/18/777
f 907/4/778 910/3/778 901/15/778
f 908/13/779 913/10/779 903/1/779
f 907/4/780 909/12/780 903/1/780
f 911/7/781 912/6/781 897/19/781 903/1/781
f 906/9/782 914/17/782 903/1/782
f 913/10/783 906/9/783 903/1/783
f 914/17/784 911/7/784 903/1/784
f 908/13/785 909/12/785 898/14/785 902/18/785
