# Blender 4.5.2 LTS
# www.blender.org
mtllib PumpJack.mtl
o OilPumpHead001.001
v -2.348480 2.951040 -0.183040
v 0.605386 3.688250 -0.181526
v -2.317875 3.377194 -0.183740
v 0.432185 4.062382 -0.182329
v -2.348852 2.951718 0.213472
v 0.605013 3.688928 0.214986
v -2.318248 3.377872 0.212772
v 0.431813 4.063059 0.214183
v 0.741061 3.719708 -0.181453
v 0.740688 3.720387 0.215059
v -0.993601 3.707195 -0.183064
v -0.881752 3.317064 -0.182332
v -0.882124 3.317742 0.214180
v -0.993973 3.707873 0.213448
v -0.588351 3.390677 -0.182368
v -0.692740 3.783290 0.213369
v -0.692367 3.782612 -0.183143
v -0.588724 3.391355 0.214144
v -0.601452 3.230228 0.134227
v -0.797045 3.180456 -0.101809
v 0.339934 3.612322 -0.181680
v 0.339561 3.613000 0.214832
v 0.450071 3.493774 -0.125146
v 0.585052 3.527383 -0.125052
v 0.584797 3.527871 0.159021
v 0.449816 3.494262 0.158927
v -2.327534 2.976146 -0.183063
v -2.293257 3.356200 -0.183683
v -0.987312 3.682889 -0.183018
v -0.891773 3.705981 -0.183041
v -0.780872 3.735629 -0.183073
v -0.686083 3.758307 -0.183095
v 0.425498 4.036231 -0.182290
v 0.722837 3.743393 -0.181510
v -0.594348 3.414294 -0.182415
v -0.687267 3.391879 -0.182404
v -0.795845 3.362628 -0.182386
v -0.887868 3.340662 -0.182376
v -2.327906 2.976824 0.213449
v -0.888240 3.341340 0.214136
v -0.796217 3.363305 0.214126
v -0.687639 3.392557 0.214108
v -0.594720 3.414971 0.214097
v 0.722465 3.744071 0.215002
v 0.425125 4.036908 0.214222
v -0.686455 3.758984 0.213417
v -0.781245 3.736307 0.213439
v -0.892146 3.706659 0.213471
v -0.987684 3.683567 0.213494
v -2.293629 3.356878 0.212829
v -0.901184 3.697024 -0.086276
v -0.807854 3.369283 -0.085651
v -2.313282 2.993491 -0.086328
v -2.287575 3.351445 -0.086918
v -0.808059 3.369638 0.117360
v -0.901389 3.697379 0.116735
v -2.287780 3.351800 0.116092
v -2.313487 2.993846 0.116683
v -0.678779 3.401675 -0.085668
v -0.768662 3.730209 -0.086309
v 0.422938 4.026792 -0.085526
v 0.712150 3.746538 -0.084775
v -0.768825 3.730561 0.116702
v -0.678942 3.402026 0.117342
v 0.711987 3.746890 0.118236
v 0.422775 4.027143 0.117485
v 0.750181 3.754237 -0.181503
v 0.749809 3.754915 0.215009
v -2.317832 3.377114 -0.230429
v -2.411288 1.651207 -0.227666
v -2.494994 1.663386 -0.227637
v -2.721062 2.008620 -0.228468
v -2.925815 2.450150 -0.229415
v -3.017921 3.085540 -0.230671
v -2.914714 3.613523 -0.231394
v -2.736912 3.760551 -0.231478
v -2.318291 3.377952 0.259461
v -2.737372 3.761388 0.258412
v -2.915174 3.614360 0.258496
v -3.018381 3.086377 0.259219
v -2.926275 2.450987 0.260475
v -2.721522 2.009458 0.261422
v -2.495454 1.664224 0.262253
v -2.411748 1.652045 0.262224
v 0.339891 3.612388 -0.142956
v 0.605343 3.688315 -0.142803
v 0.605056 3.688862 0.176262
v 0.339604 3.612935 0.176108
v -0.588719 3.391223 0.148505
v -0.882061 3.317627 0.146761
v -0.797381 3.180820 0.134337
v -0.881757 3.317197 -0.116693
v -0.601117 3.229865 -0.101920
v -0.588414 3.390791 -0.115672
v -0.655281 3.289565 -0.421696
v -0.667328 3.316478 -0.421695
v -0.695227 3.327471 -0.421694
v -0.722636 3.316105 -0.421694
v -0.733498 3.289038 -0.421695
v -0.721451 3.262126 -0.421696
v -0.693552 3.251132 -0.421696
v -0.666143 3.262498 -0.421697
v -0.655227 3.289565 0.411515
v -0.667274 3.316478 0.411516
v -0.695173 3.327471 0.411517
v -0.722582 3.316106 0.411517
v -0.733444 3.289039 0.411516
v -0.721397 3.262126 0.411515
v -0.693498 3.251132 0.411514
v -0.666089 3.262498 0.411514
v -0.069706 0.340083 -0.429012
v 1.064091 0.340083 -0.429012
v 0.231387 1.268708 -0.429012
v 1.064091 1.268708 -0.429012
v -0.069706 0.340083 0.428364
v 1.064091 0.340083 0.428364
v 0.231387 1.268708 0.428364
v 1.064090 1.268708 0.428364
v -0.069706 0.320672 -0.936371
v -1.635576 0.320672 -0.936371
v -1.635576 0.320671 0.935723
v 1.251012 0.320672 0.935723
v 1.251012 0.320672 -0.936371
v 0.970820 1.268708 -0.335742
v -0.271200 0.340083 0.428364
v -0.271200 0.340083 -0.429012
v -1.571637 0.340083 -0.916960
v -0.325969 0.320807 -0.936371
v -1.442147 0.340083 -0.916960
v -0.069706 0.340083 -0.916960
v -1.454034 0.340083 0.893566
v -0.069706 0.340083 -0.790962
v -0.271200 0.340083 -0.790962
v -0.271200 0.340083 0.790314
v -0.328258 0.340083 0.790314
v -0.790217 2.806344 0.259802
v -0.596312 2.806344 0.259802
v -0.802104 3.321549 0.271689
v -0.596312 3.321548 0.259802
v -0.802104 2.806344 0.362231
v -0.584425 2.806344 0.362230
v -0.802104 3.321548 0.362231
v -0.584425 3.321548 0.362231
v -0.618349 3.364273 0.259802
v -0.780068 3.364273 0.271689
v -0.768180 3.364273 0.374118
v -0.606462 3.364273 0.362231
v -0.659590 3.379089 0.259802
v -0.729906 3.390976 0.271689
v -0.726939 3.379089 0.374118
v -0.656623 3.390976 0.362231
v -0.584425 2.806344 0.498797
v -0.961938 2.694191 0.374118
v -0.950051 2.694191 0.501076
v -0.790217 3.321548 -0.260447
v -0.584425 3.321548 -0.272334
v -0.802104 2.806345 -0.362875
v -0.584425 2.806345 -0.362875
v -0.802104 3.321548 -0.362875
v -0.584425 3.321548 -0.362875
v -0.606462 3.364274 -0.272334
v -0.768180 3.364274 -0.260447
v -0.780068 3.364273 -0.362875
v -0.618349 3.364273 -0.374762
v -0.656623 3.390977 -0.272334
v -0.726939 3.379089 -0.260447
v -0.729906 3.390977 -0.362875
v -0.659590 3.379089 -0.374762
v -0.802104 2.806344 -0.499442
v -0.950051 2.694191 -0.386650
v -0.961938 2.694191 -0.513608
v -0.313676 2.806344 0.259802
v -0.313676 2.806344 0.374118
v -0.299509 2.792177 0.512963
v -0.299509 2.694191 0.512963
v -0.299509 2.694191 -0.135541
v -0.299509 2.694192 -0.513608
v -0.313676 2.806344 -0.499442
v -0.313676 2.806344 -0.374763
v -0.313676 2.806345 -0.260447
v -1.087020 2.792178 -0.513608
v -1.087020 2.694191 -0.501721
v -1.075133 2.694191 -0.374763
v -1.087020 2.694191 0.386005
v -1.075133 2.694191 0.512963
v -1.072853 2.806344 0.498797
v 0.080088 0.802074 -0.124126
v 0.148986 1.014569 0.123480
v -0.436479 2.694191 -0.111766
v 0.076421 0.790767 0.111593
v -0.311397 2.694191 0.123008
v 0.152652 1.025877 -0.112239
v 0.210244 1.203500 -0.347140
v 0.173795 1.091085 -0.205998
v -0.030466 0.461107 -0.347140
v 0.173795 1.091085 0.205352
v -0.069706 0.079619 -0.429012
v 1.008927 0.079619 -0.429012
v 1.008927 0.079619 -0.790962
v -0.069706 0.079619 -0.790962
v 1.008927 0.079619 0.428364
v -0.069706 0.079619 0.428364
v -0.069706 0.079619 0.790314
v 1.008927 0.079619 0.790314
v 1.064091 0.426651 -0.342444
v 1.064091 0.973526 -0.342444
v 1.064090 0.973526 0.341796
v 1.064090 0.426651 0.341796
v 1.093112 0.436599 -0.329998
v 1.093112 0.963578 -0.329998
v 1.093112 0.963578 0.329350
v 1.093112 0.436598 0.329350
v 1.107246 0.463576 -0.299482
v 1.107246 0.936601 -0.299482
v 1.107246 0.936601 0.298835
v 1.107246 0.463575 0.298835
v 0.802319 1.268708 -0.335742
v 0.681288 1.268708 -0.335742
v 0.517001 1.268708 -0.335742
v 0.517001 1.268708 0.335095
v 0.681288 1.268708 0.335095
v 0.802318 1.268708 0.335095
v 0.970820 1.268708 0.335095
v 0.674984 1.305137 -0.318429
v 0.523304 1.305137 -0.318428
v 0.523304 1.305137 0.317781
v 0.674984 1.305137 0.317781
v 0.960302 1.305137 -0.318429
v 0.808622 1.305137 -0.318429
v 0.808622 1.305137 0.317781
v 0.960302 1.305137 0.317781
v 1.180383 0.340083 -0.429012
v 1.180383 0.340083 0.428364
v 1.180383 0.340083 0.790314
v 1.180383 0.340083 -0.790962
v 1.126323 0.241476 0.428364
v 1.130749 0.247234 0.790314
v 1.115541 0.227450 -0.429012
v -0.182711 0.212383 -0.790962
v 1.128576 0.244408 -0.790962
v -1.616165 0.340083 -0.916960
v -1.616165 0.340083 0.916312
v 1.231601 0.340083 0.916312
v 1.231601 0.340083 -0.916960
v -0.299509 2.797363 0.248847
v -0.299509 2.792178 0.374118
v -0.313675 2.806344 0.498797
v -0.299509 2.792178 -0.513608
v -0.299509 2.792178 -0.374763
v -0.299509 2.797363 -0.249492
v -1.072854 2.806345 -0.499442
v -1.087020 2.792177 0.512963
v -1.571637 0.340083 -0.882326
v -1.559749 0.340083 -0.894213
v -1.559749 0.340083 0.893566
v -1.571637 0.340082 0.881679
v -1.454034 0.340083 -0.894214
v -1.442147 0.340083 -0.882326
v -1.442147 0.340083 0.881679
v -1.571637 0.340082 0.778402
v -1.559749 0.340083 0.766514
v -1.454034 0.340083 0.766514
v -1.442147 0.340083 0.778402
v -1.559749 0.340083 -0.767162
v -1.571637 0.340083 -0.779050
v -1.442147 0.340083 -0.779050
v -1.454034 0.340083 -0.767162
v -0.436479 2.694191 0.111120
v -0.424592 2.694191 0.123008
v -0.950051 2.694191 0.386005
v -0.938163 2.694191 0.512963
v -0.950051 2.706078 0.512963
v -0.961938 2.694191 0.512963
v -0.961938 2.694191 -0.374763
v -0.950051 2.706079 -0.513608
v -0.938164 2.694191 -0.513608
v -0.950051 2.694192 -0.501721
v -0.299509 2.701728 -0.132846
v -0.299509 2.694192 -0.111766
v -0.311396 2.694191 -0.123653
v -1.087020 2.706079 -0.513608
v -1.075133 2.694192 -0.513608
v -1.087020 2.694191 -0.362875
v -1.087020 2.706079 -0.374763
v -1.087020 2.694192 -0.386650
v -1.087020 2.706079 0.374118
v -1.087020 2.694191 0.362230
v -1.075133 2.694191 0.374118
v -1.087020 2.706352 0.512963
v -1.087020 2.694191 0.501076
v 0.076421 0.790767 -0.112239
v 0.152652 1.025877 0.111593
v -0.424591 2.694191 -0.123654
v 0.080088 0.802074 0.123480
v -0.299509 2.694191 0.111120
v -0.299509 2.701728 0.132200
v -0.299509 2.694191 0.134895
v 0.148986 1.014569 -0.124126
v -0.813754 2.806344 0.253560
v -0.802104 2.806344 0.271689
v -0.584425 2.806344 0.271689
v -0.790217 3.321548 0.259802
v -0.584425 3.321548 0.271689
v -0.790217 2.806344 0.374118
v -0.596312 2.806344 0.374118
v -0.790217 3.321548 0.374118
v -0.596312 3.321548 0.374118
v -0.606462 3.364273 0.271689
v -0.768180 3.364273 0.259802
v -0.780068 3.364273 0.362231
v -0.618349 3.364273 0.374118
v -0.656623 3.390976 0.271689
v -0.726939 3.379089 0.259802
v -0.729906 3.390976 0.362231
v -0.659590 3.379089 0.374118
v -0.790217 2.806345 -0.260447
v -0.802104 2.806345 -0.272334
v -0.584425 2.806345 -0.272334
v -0.596313 2.806345 -0.260447
v -0.802104 3.321548 -0.272334
v -0.596313 3.321549 -0.260447
v -0.790217 2.806345 -0.374763
v -0.813937 2.806345 -0.387100
v -0.596312 2.806345 -0.374763
v -0.790217 3.321548 -0.374762
v -0.596313 3.321548 -0.374762
v -0.618349 3.364274 -0.260447
v -0.780068 3.364273 -0.272334
v -0.768180 3.364273 -0.374762
v -0.606462 3.364273 -0.362875
v -0.659590 3.379089 -0.260447
v -0.729906 3.390976 -0.272334
v -0.726939 3.379089 -0.374762
v -0.656623 3.390976 -0.362875
v -1.635576 0.266455 -0.870414
v -1.635576 0.266455 0.869766
v -1.571637 0.266454 0.935723
v 1.166776 0.266488 0.937747
v 1.251012 0.266454 0.869766
v 1.251012 0.266455 -0.870414
v 1.168766 0.266488 -0.934800
v -1.571636 0.266455 -0.936371
v -1.635576 0.037400 -0.870414
v -1.635577 0.037400 0.869767
v -1.571637 0.037400 0.935723
v 1.166027 0.037407 0.934576
v 1.251012 0.037400 0.869766
v 1.251012 0.037400 -0.870414
v 1.167889 0.037407 -0.937942
v -1.571637 0.037400 -0.936371
v 1.268920 0.266455 0.869766
v 1.268920 0.266455 -0.870414
v -1.653485 0.266455 -0.870414
v -1.653485 0.266454 0.869767
v -1.653485 -0.016216 -0.870414
v -1.653484 -0.016216 0.428364
v -1.653485 0.037400 0.869767
v -1.653485 0.037400 0.428364
v -1.653485 0.037400 -0.870414
v 1.268920 -0.016216 0.869766
v 1.268920 0.037400 -0.870414
v 1.268920 0.037400 0.869766
v -0.069706 0.320672 -0.954279
v 1.179142 0.320712 -0.954279
v 1.251012 0.320672 -0.954279
v 1.268920 0.320672 -0.954279
v 1.251012 0.266455 -0.954279
v 1.168766 0.266488 -0.952709
v -1.571637 0.266455 -0.954279
v -1.653485 0.320672 -0.954279
v -0.325969 0.320807 -0.954279
v -1.653484 0.320672 0.953631
v -1.571637 0.266455 0.953631
v 1.170628 0.266488 0.954778
v 1.268920 0.320671 0.953631
v -1.653485 -0.016216 -0.954279
v -1.571637 0.037400 -0.954279
v 1.167889 0.037407 -0.955850
v 1.268920 -0.016216 -0.954279
v 1.251012 -0.016216 -0.954279
v 1.064091 -0.016216 0.953631
v 1.251012 -0.016216 0.953631
v 1.268920 -0.016216 0.953631
v 1.268920 0.037400 0.953631
v 1.169878 0.037406 0.951608
v 1.064091 0.037400 0.953631
v -1.571637 0.037400 0.953631
v -1.653484 -0.016217 0.953631
v -1.414007 0.340083 0.916312
v 0.583093 1.866988 0.672181
v 0.422628 1.862913 0.672236
v 0.579260 2.017913 0.672027
v 0.418795 2.013838 0.672081
v 0.593742 1.867326 0.738388
v 0.412020 1.862711 0.738450
v 0.589909 2.018251 0.738234
v 0.408187 2.013636 0.738295
v 0.544402 1.839294 0.672222
v 0.452048 1.836957 0.680963
v 0.462698 1.837295 0.747169
v 0.555051 1.839632 0.738429
v 0.456422 2.115859 0.671964
v 0.547134 2.118171 0.680642
v 0.536526 2.117970 0.746857
v 0.445814 2.115657 0.738178
v 0.416549 3.685817 0.670355
v 0.496630 3.687850 0.670328
v 0.507279 3.688188 0.736535
v 0.405941 3.685615 0.736569
v 0.503582 1.836542 0.672238
v 0.503605 1.836633 0.747157
v 0.344370 3.799736 0.670260
v 0.562933 3.805287 0.670187
v 0.573582 3.805626 0.736393
v 0.333762 3.799535 0.736474
v 0.411925 3.917214 0.678827
v 0.486062 3.906688 0.670106
v 0.489525 3.919243 0.736302
v 0.411943 3.917273 0.736328
v 0.362625 3.858076 0.670194
v 0.552372 3.862905 0.678840
v 0.541764 3.862703 0.745053
v 0.352016 3.857875 0.736408
v 0.365563 3.742398 0.670313
v 0.555310 3.747226 0.678958
v 0.544702 3.747024 0.745172
v 0.354954 3.742196 0.736527
v 0.582684 1.865633 -0.640498
v 0.422219 1.861558 -0.640444
v 0.578851 2.016558 -0.640653
v 0.418386 2.012482 -0.640598
v 0.593292 1.865834 -0.706712
v 0.411570 1.861219 -0.706651
v 0.589459 2.016759 -0.706867
v 0.407736 2.012144 -0.706805
v 0.554619 1.838199 -0.649170
v 0.462266 1.835863 -0.640430
v 0.451616 1.835525 -0.706637
v 0.543970 1.837861 -0.715377
v 0.445381 2.114225 -0.649421
v 0.536093 2.116538 -0.640742
v 0.546701 2.116739 -0.706957
v 0.455989 2.114426 -0.715635
v 0.416140 3.684461 -0.642324
v 0.496221 3.686495 -0.642351
v 0.506829 3.686697 -0.708565
v 0.405491 3.684123 -0.708531
v 0.503494 1.822434 -0.649138
v 0.503476 1.822385 -0.706639
v 0.343961 3.798381 -0.642419
v 0.562524 3.803932 -0.642493
v 0.573132 3.804133 -0.708707
v 0.333312 3.798043 -0.708626
v 0.415586 3.903554 -0.642550
v 0.489093 3.917810 -0.651297
v 0.489075 3.917751 -0.708798
v 0.411493 3.915781 -0.708772
v 0.351584 3.856442 -0.651190
v 0.541331 3.861270 -0.642546
v 0.551940 3.861472 -0.708759
v 0.362192 3.856644 -0.717405
v 0.354522 3.740764 -0.651072
v 0.544269 3.745592 -0.642427
v 0.554878 3.745793 -0.708641
v 0.365130 3.740966 -0.717286
v 0.415704 3.804054 0.743607
v 0.423084 3.828907 0.743580
v 0.443658 3.844675 0.743557
v 0.469567 3.845333 0.743548
v 0.490915 3.830630 0.743557
v 0.499547 3.806183 0.743579
v 0.492167 3.781329 0.743607
v 0.471593 3.765562 0.743630
v 0.445684 3.764903 0.743639
v 0.424336 3.779606 0.743630
v 0.415249 3.802546 -0.715817
v 0.422629 3.827400 -0.715845
v 0.443203 3.843167 -0.715868
v 0.469112 3.843825 -0.715877
v 0.490460 3.829123 -0.715868
v 0.499092 3.804675 -0.715845
v 0.491712 3.779821 -0.715817
v 0.471138 3.764053 -0.715795
v 0.445229 3.763396 -0.715786
v 0.423881 3.778098 -0.715795
v 0.593724 1.867267 0.680887
v 0.412002 1.862652 0.680948
v 0.589891 2.018192 0.680732
v 0.408169 2.013577 0.680794
v 0.583116 1.867065 0.747101
v 0.422651 1.862990 0.747155
v 0.579283 2.017990 0.746946
v 0.418818 2.013915 0.747001
v 0.555033 1.839573 0.680928
v 0.462674 1.837218 0.672250
v 0.452067 1.837016 0.738464
v 0.544425 1.839371 0.747142
v 0.445796 2.115598 0.680677
v 0.536502 2.117893 0.671937
v 0.547152 2.118231 0.738144
v 0.456445 2.115936 0.746884
v 0.405923 3.685556 0.679068
v 0.507261 3.688129 0.679034
v 0.496653 3.687927 0.745248
v 0.416573 3.685894 0.745275
v 0.503908 1.823807 0.680960
v 0.503926 1.823878 0.738461
v 0.333744 3.799476 0.678973
v 0.573564 3.805566 0.678892
v 0.562956 3.805364 0.745106
v 0.344394 3.799814 0.745180
v 0.415995 3.904909 0.670129
v 0.489507 3.919184 0.678801
v 0.486085 3.906766 0.745025
v 0.416018 3.904986 0.745049
v 0.351999 3.857816 0.678907
v 0.541740 3.862626 0.670134
v 0.552390 3.862963 0.736341
v 0.362648 3.858154 0.745114
v 0.354937 3.742137 0.679026
v 0.544678 3.746947 0.670253
v 0.555328 3.747285 0.736459
v 0.365586 3.742475 0.745233
v 0.593310 1.865894 -0.649211
v 0.411587 1.861279 -0.649149
v 0.589477 2.016819 -0.649365
v 0.407754 2.012203 -0.649304
v 0.582660 1.865555 -0.715418
v 0.422196 1.861480 -0.715363
v 0.578827 2.016480 -0.715572
v 0.418362 2.012405 -0.715518
v 0.543993 1.837939 -0.640457
v 0.451634 1.835584 -0.649135
v 0.462242 1.835786 -0.715349
v 0.554601 1.838140 -0.706671
v 0.456013 2.114504 -0.640715
v 0.546719 2.116798 -0.649455
v 0.536070 2.116460 -0.715662
v 0.445364 2.114165 -0.706922
v 0.405509 3.684182 -0.651030
v 0.506847 3.686756 -0.651064
v 0.496197 3.686418 -0.717271
v 0.416117 3.684384 -0.717243
v 0.503173 1.835187 -0.640442
v 0.503149 1.835123 -0.715361
v 0.333330 3.798102 -0.651125
v 0.573150 3.804193 -0.651206
v 0.562501 3.803855 -0.717413
v 0.343938 3.798304 -0.717339
v 0.411511 3.915840 -0.651271
v 0.485653 3.905333 -0.642574
v 0.485630 3.905256 -0.717493
v 0.415563 3.903476 -0.717470
v 0.362216 3.856721 -0.642485
v 0.551957 3.861531 -0.651258
v 0.541308 3.861193 -0.717465
v 0.351566 3.856383 -0.708692
v 0.365154 3.741043 -0.642367
v 0.554895 3.745853 -0.651140
v 0.544246 3.745515 -0.717347
v 0.354505 3.740704 -0.708573
v 0.462643 1.927247 0.583663
v 0.470117 1.950400 0.583449
v 0.489686 1.964709 0.582891
v 0.513873 1.964709 0.582200
v 0.533441 1.950400 0.581642
v 0.540915 1.927247 0.581429
v 0.533441 1.904094 0.581642
v 0.513872 1.889785 0.582200
v 0.489685 1.889785 0.582891
v 0.470117 1.904095 0.583449
v 0.456959 1.927248 0.759297
v 0.464433 1.950400 0.759084
v 0.484002 1.964709 0.758525
v 0.508189 1.964709 0.757835
v 0.527757 1.950400 0.757276
v 0.535231 1.927247 0.757063
v 0.527757 1.904094 0.757276
v 0.508188 1.889785 0.757835
v 0.484001 1.889785 0.758525
v 0.464433 1.904095 0.759084
v 0.456941 1.927247 -0.552068
v 0.464415 1.950400 -0.552281
v 0.483984 1.964709 -0.552840
v 0.508171 1.964709 -0.553530
v 0.527739 1.950399 -0.554089
v 0.535213 1.927246 -0.554302
v 0.527739 1.904093 -0.554089
v 0.508170 1.889784 -0.553530
v 0.483983 1.889784 -0.552840
v 0.464415 1.904094 -0.552281
v 0.462625 1.927247 -0.727702
v 0.470099 1.950400 -0.727916
v 0.489668 1.964709 -0.728474
v 0.513855 1.964709 -0.729165
v 0.533423 1.950399 -0.729723
v 0.540897 1.927246 -0.729936
v 0.533423 1.904093 -0.729723
v 0.513855 1.889784 -0.729165
v 0.489667 1.889784 -0.728474
v 0.470099 1.904094 -0.727916
v 0.591192 1.043911 -0.639454
v 0.576230 1.090072 -0.639289
v 0.537061 1.118600 -0.638859
v 0.488646 1.118599 -0.638327
v 0.449478 1.090070 -0.637896
v 0.434518 1.043909 -0.637731
v 0.449479 0.997749 -0.637896
v 0.488648 0.969221 -0.638327
v 0.537063 0.969221 -0.638859
v 0.576231 0.997751 -0.639289
v 0.576137 1.043911 0.667092
v 0.561175 1.090071 0.667257
v 0.522006 1.118599 0.667687
v 0.473592 1.118598 0.668220
v 0.434423 1.090069 0.668650
v 0.419463 1.043909 0.668815
v 0.434425 0.997748 0.668650
v 0.473594 0.969220 0.668220
v 0.522008 0.969221 0.667687
v 0.561177 0.997750 0.667257
v 0.365791 1.050623 -0.477053
v 0.632055 1.050622 -0.477057
v 0.365793 2.219295 -0.477054
v 0.632057 2.219295 -0.477057
v 0.356054 1.050623 -0.616865
v 0.641787 1.050622 -0.616869
v 0.356056 2.219295 -0.616866
v 0.641790 2.219294 -0.616870
v 0.429211 0.948344 -0.477054
v 0.574126 0.938609 -0.484197
v 0.568632 0.948343 -0.624009
v 0.423717 0.938609 -0.616866
v 0.356057 1.566121 -0.484194
v 0.641791 2.059039 -0.484199
v 0.642518 2.044555 -0.607735
v 0.355330 2.044556 -0.493326
v 0.355328 2.044555 -0.607731
v 0.365804 1.050623 0.506484
v 0.632068 1.050623 0.506480
v 0.365806 2.219296 0.506483
v 0.632071 2.219295 0.506480
v 0.356071 1.050623 0.646296
v 0.641805 1.050623 0.646292
v 0.356074 2.219295 0.646359
v 0.641807 2.219295 0.646291
v 0.423732 0.938609 0.513624
v 0.564405 0.938609 0.506481
v 0.574142 0.938609 0.646293
v 0.429227 0.948344 0.653436
v 0.356071 2.059040 0.513624
v 0.641807 2.059039 0.646291
v 0.642522 1.580605 0.522963
v 0.355353 1.580605 0.522970
v 0.355344 1.580605 0.637166
v 0.620059 2.219295 -0.493000
v 0.377791 2.219295 -0.492996
v 0.377789 2.219295 -0.608065
v 0.620057 2.219294 -0.608068
v 0.377805 2.219295 0.522425
v 0.620073 2.219295 0.522422
v 0.620074 2.219295 0.637490
v 0.377806 2.219295 0.637494
v 0.619012 2.240768 -0.493497
v 0.378838 2.240769 -0.493494
v 0.378836 2.240769 -0.607567
v 0.619011 2.240768 -0.607571
v 0.378851 2.240770 0.522923
v 0.619026 2.240769 0.522919
v 0.619027 2.240769 0.636993
v 0.378853 2.240769 0.636996
v 0.612751 2.247084 -0.498090
v 0.385099 2.247085 -0.498087
v 0.385098 2.247085 -0.602974
v 0.612750 2.247084 -0.602977
v 0.385113 2.247086 0.527516
v 0.612765 2.247085 0.527513
v 0.612766 2.247085 0.632400
v 0.385114 2.247085 0.632403
v 0.356056 1.050623 -0.484194
v 0.641789 1.050622 -0.484198
v 0.356058 2.219295 -0.484195
v 0.641792 2.219294 -0.484199
v 0.365789 1.050623 -0.624006
v 0.632053 1.050622 -0.624010
v 0.365791 2.219295 -0.624007
v 0.634906 2.219294 -0.618961
v 0.632055 2.219294 -0.624011
v 0.423719 0.938609 -0.484195
v 0.568634 0.948343 -0.477056
v 0.574124 0.938609 -0.616868
v 0.429209 0.948343 -0.624007
v 0.641790 1.566121 -0.484198
v 0.356058 2.059039 -0.484195
v 0.356069 1.050623 0.513625
v 0.641803 1.050623 0.513621
v 0.356072 2.219296 0.513624
v 0.641805 2.219295 0.513620
v 0.365806 1.050623 0.653437
v 0.632070 1.050623 0.653433
v 0.632073 2.219295 0.653433
v 0.433467 0.938609 0.506483
v 0.574140 0.938609 0.513622
v 0.568649 0.948344 0.653434
v 0.423734 0.938609 0.646295
v 0.641806 1.566121 0.646292
v 0.642517 1.580604 -0.607735
v 0.642519 1.580604 -0.493321
v 0.642520 2.044555 -0.493321
v 0.355329 1.580605 -0.493325
v 0.355327 1.580605 -0.607731
v 0.978872 1.879868 -0.598618
v 0.978873 1.879868 -0.502454
v 0.018975 1.879870 -0.502448
v 0.018974 1.879870 -0.598605
v 1.085858 1.709309 -0.595718
v 1.068369 1.580603 -0.596192
v 1.068371 1.580604 -0.504884
v 1.085860 1.709309 -0.505358
v -0.088012 1.709311 -0.505349
v -0.070523 1.580606 -0.504875
v -0.070525 1.580606 -0.596176
v -0.088013 1.709311 -0.595702
v 0.642535 2.044555 0.637162
v 0.642534 1.580605 0.637162
v 0.642523 2.044555 0.522963
v 0.355354 2.044556 0.522970
v 0.355345 2.044556 0.637166
v 0.978888 1.879868 0.628031
v 0.978884 1.879869 0.531946
v 0.018993 1.879870 0.531962
v 0.018990 1.879870 0.628044
v 1.085874 1.709309 0.625126
v 1.068386 1.580604 0.625601
v 1.068383 1.580604 0.534336
v 1.085872 1.709309 0.534803
v -0.087996 1.709312 0.534822
v -0.070507 1.580606 0.534354
v -0.070508 1.580606 0.625617
v -0.087996 1.709311 0.625142
v 1.085858 1.598116 -0.595718
v 1.085859 1.598116 -0.505358
v -0.088012 1.598118 -0.505349
v -0.088013 1.598118 -0.595702
v 1.085874 1.598116 0.625127
v 1.085871 1.598116 0.534803
v -0.087996 1.598119 0.534822
v -0.087997 1.598119 0.625142
v 0.365722 2.219295 0.653436
v 0.360719 2.058977 0.642766
vn 0.9969 -0.0788 0.0014
vn -0.2408 0.9682 0.0675
vn -0.8502 -0.5265 -0.0003
vn 0.9281 -0.3724 -0.0001
vn 0.0012 -0.0020 -1.0000
vn 0.2416 -0.9704 0.0019
vn -0.3666 -0.9304 -0.0000
vn 0.6959 0.7181 -0.0006
vn 0.9918 -0.0805 0.0989
vn 0.9988 -0.0497 0.0010
vn -0.0009 0.0017 1.0000
vn 0.0009 -0.0017 -1.0000
vn -0.0003 0.0019 1.0000
vn -0.2418 0.9703 -0.0019
vn -0.0012 0.0020 1.0000
vn -0.9568 -0.2696 0.1084
vn 0.0323 -0.1159 -0.9927
vn 0.2409 -0.9671 -0.0815
vn 0.9920 -0.0808 -0.0969
vn -0.9072 -0.4207 -0.0001
vn 0.9588 0.2619 0.1097
vn 0.2414 -0.9678 0.0714
vn -0.6971 -0.7133 0.0718
vn 0.2445 -0.9696 0.0018
vn -0.2406 0.9680 -0.0712
vn 0.0180 -0.0850 0.9962
vn -0.6970 -0.7136 -0.0709
vn 0.0244 -0.0899 -0.9957
vn 0.2407 -0.9668 0.0853
vn -0.8508 -0.5255 0.0001
vn -0.9567 -0.2700 -0.1091
vn -0.9127 -0.4086 0.0001
vn -0.9770 0.2134 -0.0013
vn -0.9769 0.2135 -0.0013
vn 0.9668 -0.2554 0.0013
vn 0.0011 -0.0016 -1.0000
vn -0.0267 -0.9996 0.0015
vn -0.0267 -0.9996 0.0016
vn 0.9591 0.2616 -0.1085
vn 0.6750 0.7378 -0.0006
vn -0.9843 -0.1763 -0.0006
vn -0.6373 0.7706 -0.0019
vn 0.2422 -0.9702 0.0019
vn 0.2328 -0.9725 0.0019
vn 0.0302 -0.1125 0.9932
vn 0.2750 -0.9614 0.0019
vn -0.0011 0.0016 1.0000
vn -0.2419 0.9640 -0.1105
vn -0.7327 -0.6805 0.0005
vn 0.9922 -0.1250 0.0011
vn 0.2259 -0.9742 0.0019
vn 0.3831 -0.9237 -0.0000
vn -0.2421 0.9644 0.1068
vn 0.2415 -0.9680 -0.0677
vn -0.0000 -0.0000 -1.0000
vn 0.3666 0.9304 -0.0000
vn 0.9127 0.4086 -0.0001
vn -0.3830 0.9237 -0.0000
vn 0.0003 -0.0019 -1.0000
vn -0.9281 0.3724 0.0001
vn -0.0000 -0.0000 1.0000
vn 1.0000 -0.0000 -0.0000
vn -0.0000 1.0000 -0.0000
vn -0.0000 -1.0000 -0.0000
vn 0.0015 0.0048 -1.0000
vn -0.0000 1.0000 0.0002
vn -1.0000 -0.0000 -0.0000
vn -0.8887 0.4584 -0.0000
vn 0.8887 0.4584 -0.0000
vn -0.4699 0.8827 -0.0000
vn 0.4699 0.8827 -0.0000
vn -0.9512 0.3084 -0.0000
vn -0.9795 0.2016 -0.0000
vn -0.0000 0.1596 -0.9872
vn -0.0000 -0.1644 0.9864
vn 0.9788 -0.2046 -0.0000
vn -0.0000 -0.1644 -0.9864
vn -0.0000 0.1596 0.9872
vn -0.9656 -0.2602 -0.0000
vn -0.0002 0.0002 -1.0000
vn 0.9652 0.2616 -0.0000
vn -0.0002 0.0002 1.0000
vn 0.3941 -0.0000 -0.9191
vn 0.3242 0.9460 -0.0000
vn 0.3941 -0.0000 0.9191
vn 0.3242 -0.9460 -0.0000
vn 0.9074 -0.0000 -0.4203
vn 0.8858 0.4641 -0.0000
vn 0.9074 -0.0000 0.4203
vn 0.8858 -0.4641 -0.0000
vn -0.0000 0.4292 -0.9032
vn -0.9854 0.1705 -0.0000
vn -0.0000 0.4292 0.9032
vn 0.9854 0.1705 -0.0000
vn 0.9608 0.2774 -0.0000
vn 0.7909 0.6118 -0.0113
vn 0.7910 0.6119 -0.0000
vn -0.0001 -0.0134 -0.9999
vn -0.0027 -0.0065 -1.0000
vn -0.7071 0.7071 -0.0000
vn -0.8725 0.4886 -0.0043
vn -0.8793 0.4762 0.0016
vn -0.8092 0.5875 0.0003
vn -0.8101 0.5863 -0.0009
vn -0.0000 0.7071 -0.7071
vn 0.0069 0.0241 0.9997
vn 0.7071 0.7071 -0.0000
vn -0.0000 0.7071 0.7071
vn 0.6365 0.7711 0.0167
vn 0.6365 0.7711 -0.0167
vn 0.5355 0.8446 -0.0000
vn -0.0000 -0.7071 0.7071
vn -0.0000 -0.7071 -0.7071
vn 0.5355 -0.8446 -0.0000
vn -0.5774 -0.5773 -0.5774
vn -0.7071 -0.7071 -0.0000
vn -0.5817 -0.5686 0.5817
vn -0.6844 0.2515 -0.6844
vn -0.7068 0.0277 0.7068
vn 0.7067 -0.0335 -0.7067
vn 0.6834 -0.2568 0.6834
vn 0.6834 -0.2568 -0.6834
vn -0.7068 0.0277 -0.7068
vn -0.6844 0.2515 0.6844
vn 0.7067 -0.0335 0.7067
vn -0.7709 -0.2065 0.6026
vn 0.7695 0.2099 -0.6032
vn -0.7709 -0.2065 -0.6026
vn 0.7695 0.2099 0.6032
vn -0.7071 -0.0000 -0.7071
vn 0.7071 -0.0000 -0.7071
vn 0.7071 -0.0000 0.7071
vn -0.7071 -0.0000 0.7071
vn 0.6643 0.3426 -0.6643
vn -0.6643 0.3426 -0.6643
vn -0.6643 0.3426 0.6643
vn 0.6643 0.3426 0.6643
vn 0.3366 0.7411 -0.5809
vn -0.3366 0.7411 -0.5809
vn -0.3366 0.7411 0.5809
vn 0.3366 0.7411 0.5809
vn -0.0004 0.0043 1.0000
vn -0.0002 -0.0069 1.0000
vn 0.0005 1.0000 -0.0000
vn -0.0000 0.7078 -0.7064
vn -0.0000 0.0069 -1.0000
vn -1.0000 0.0038 -0.0000
vn -0.9754 0.0001 0.2206
vn 0.6332 0.0153 -0.7738
vn 0.2946 -0.9556 0.0010
vn -0.0254 0.9997 -0.0010
vn -0.9997 -0.0254 0.0003
vn 0.6337 0.0169 0.7734
vn -0.5400 -0.8417 0.0010
vn 0.9997 0.0254 -0.0003
vn 0.5820 -0.8132 0.0007
vn 0.9194 0.3932 -0.0007
vn -0.9382 0.3460 -0.0001
vn -0.6332 -0.0153 0.7738
vn -0.2457 -0.9693 0.0012
vn 0.0003 0.0010 1.0000
vn 0.7759 -0.6308 0.0004
vn -0.7429 -0.6694 0.0009
vn 0.9380 0.3467 -0.0006
vn -0.9544 0.2986 -0.0000
vn 0.6670 0.7450 -0.0010
vn -0.7040 0.7102 -0.0005
vn 0.9544 -0.2986 -0.0000
vn -0.9380 -0.3467 0.0006
vn 0.2946 -0.9556 0.0008
vn -0.2457 -0.9693 0.0010
vn -0.6337 -0.0169 -0.7734
vn -0.9586 0.2847 -0.0000
vn -0.6083 0.7937 -0.0006
vn 0.5672 0.8236 -0.0010
vn 0.9429 0.3329 -0.0006
vn 0.9586 -0.2847 -0.0000
vn 0.6083 -0.7937 0.0006
vn 0.0254 -0.9997 0.0010
vn -0.5672 -0.8236 0.0010
vn -0.9429 -0.3330 0.0006
vn -0.0003 -0.0010 -1.0000
vn -0.4457 -0.6949 -0.5643
vn 0.6078 0.2593 -0.7506
vn 0.6083 0.2608 0.7497
vn 0.1522 -0.7551 0.6377
vn -0.0143 0.5756 0.8176
vn 0.6136 0.2261 -0.7566
vn 0.6243 -0.1962 -0.7561
vn 0.6248 -0.1946 0.7561
vn 0.1524 -0.7551 0.6377
vn -0.1136 -0.7632 -0.6361
vn -0.4453 -0.6937 0.5660
vn 0.4800 -0.6714 -0.5647
vn -0.6207 0.2281 -0.7502
vn -0.1134 -0.7619 0.6377
vn 0.5691 -0.4619 0.6803
vn 0.5687 -0.4633 -0.6797
vn -0.0149 0.5739 -0.8188
vn 0.6141 0.2277 0.7557
vn -0.4643 0.4961 0.7337
vn 0.4390 0.5191 0.7334
vn 0.4385 0.5176 -0.7347
vn -0.4647 0.4946 -0.7344
vn -0.6136 -0.2261 0.7566
vn 0.6243 -0.1962 -0.7562
vn -0.6141 -0.2276 -0.7557
vn 0.1520 -0.7564 -0.6362
vn -0.1132 -0.7619 0.6377
vn -0.4453 -0.6938 0.5660
vn 0.4803 -0.6702 0.5657
vn -0.6202 0.2296 0.7501
vn -0.1138 -0.7632 -0.6361
vn -0.5449 -0.4915 -0.6793
vn -0.5445 -0.4901 0.6807
vn -0.0148 0.5739 -0.8188
vn -0.6248 0.1946 -0.7562
vn -0.6243 0.1962 0.7561
vn -0.6141 -0.2277 -0.7557
vn 0.1518 -0.7564 -0.6362
vn -0.5445 -0.4901 0.6806
vn -0.9995 -0.0000 -0.0323
vn -0.8145 0.5796 -0.0264
vn -0.8063 0.5909 -0.0261
vn -0.3215 0.9468 -0.0104
vn -0.2998 0.9540 -0.0097
vn 0.2998 0.9540 0.0097
vn 0.3215 0.9468 0.0104
vn 0.8063 0.5909 0.0261
vn 0.8145 0.5796 0.0264
vn 0.9995 -0.0000 0.0323
vn 0.8063 -0.5909 0.0261
vn 0.8145 -0.5796 0.0264
vn 0.2998 -0.9540 0.0097
vn 0.3215 -0.9468 0.0104
vn -0.3216 -0.9468 -0.0104
vn -0.2998 -0.9540 -0.0097
vn -0.8145 -0.5796 -0.0264
vn -0.8063 -0.5909 -0.0261
vn -0.0285 -0.0000 -0.9996
vn 0.0285 -0.0000 0.9996
vn 0.3216 0.9468 0.0104
vn -0.3215 -0.9468 -0.0104
vn 0.9999 -0.0000 0.0115
vn 0.8111 0.5848 0.0093
vn 0.8080 0.5890 0.0093
vn 0.3136 0.9495 0.0036
vn 0.3056 0.9522 0.0035
vn -0.3056 0.9521 -0.0035
vn -0.3136 0.9495 -0.0036
vn -0.8081 0.5890 -0.0093
vn -0.8111 0.5848 -0.0093
vn -0.9999 -0.0000 -0.0115
vn -0.8080 -0.5891 -0.0093
vn -0.8111 -0.5848 -0.0093
vn -0.3056 -0.9522 -0.0035
vn -0.3136 -0.9495 -0.0036
vn 0.3136 -0.9495 0.0036
vn 0.3056 -0.9521 0.0035
vn 0.8111 -0.5848 0.0093
vn 0.8081 -0.5890 0.0093
vn -0.0110 -0.0000 -0.9999
vn 0.0110 -0.0000 0.9999
vn 0.9988 0.0487 -0.0000
vn -0.0000 0.5882 -0.8088
vn -0.8471 0.5314 -0.0000
vn 0.4397 0.8981 -0.0000
vn -0.9988 0.0487 -0.0000
vn 0.9968 -0.0000 0.0796
vn 0.5570 -0.3365 -0.7593
vn 0.7076 -0.7066 -0.0000
vn -0.0000 -0.5915 -0.8063
vn -0.0271 -0.0000 0.9996
vn -1.0000 -0.0000 -0.0036
vn -0.0000 0.0231 -0.9997
vn 0.8471 0.5314 -0.0000
vn -0.0271 -0.0000 -0.9996
vn -0.0000 0.5881 -0.8088
vn -0.7703 -0.0000 0.6377
vn -0.9968 -0.0000 0.0795
vn 0.8560 -0.5170 -0.0000
vn 0.8560 -0.5171 -0.0000
vn -0.7216 -0.0000 0.6924
vn -0.5290 -0.3236 -0.7845
vn -0.9370 0.3492 -0.0001
vn -0.9967 0.0725 0.0359
vn -0.4397 0.8981 -0.0000
vn 0.9968 -0.0000 0.0795
vn -0.8560 -0.5170 -0.0000
vn -0.9999 -0.0009 0.0141
vn -0.0000 0.5881 0.8088
vn -0.0000 0.0232 0.9997
vn -0.5915 -0.0000 0.8063
vn -0.7076 -0.7066 -0.0000
vn -0.7102 0.7040 -0.0000
vn 0.7102 0.7040 -0.0000
vn 1.0000 -0.0000 -0.0036
vn -0.0000 -0.5915 0.8063
vn 0.5290 -0.3236 -0.7845
vn -0.5290 -0.3236 0.7845
vn 0.5290 -0.3236 0.7845
vn 0.5915 -0.0000 0.8063
vn -0.5915 -0.0000 -0.8063
vn -0.9997 -0.0147 0.0177
vn 0.0271 -0.0000 0.9996
vn -0.5570 -0.3365 -0.7593
vn 0.5915 -0.0000 -0.8063
vn 0.0271 -0.0000 -0.9996
vn 1.0000 -0.0000 -0.0035
vn 0.0267 -0.0000 -0.9996
vn -0.0267 -0.0000 -0.9996
vt 0.704164 0.911185
vt 0.704163 0.925612
vt 0.694385 0.926445
vt 0.694385 0.910305
vt 0.389243 0.738081
vt 0.389243 0.823464
vt 0.383331 0.824003
vt 0.383336 0.818300
vt 0.383331 0.737440
vt 0.161615 0.913101
vt 0.161615 0.929196
vt 0.153337 0.928292
vt 0.153336 0.913865
vt 0.882669 0.065803
vt 0.881053 0.065808
vt 0.881053 0.014904
vt 0.882669 0.014899
vt 0.098612 0.308300
vt 0.097078 0.308314
vt 0.097078 0.237515
vt 0.120036 0.223207
vt 0.121948 0.224257
vt 0.121812 0.232764
vt 0.122398 0.249623
vt 0.121847 0.307928
vt 0.120359 0.307935
vt 0.120275 0.224988
vt 0.098530 0.238298
vt 0.100484 0.911226
vt 0.100484 0.928582
vt 0.092105 0.928581
vt 0.092105 0.911226
vt 0.879918 0.181970
vt 0.881567 0.181969
vt 0.881567 0.232874
vt 0.879918 0.232875
vt 0.811729 0.852691
vt 0.811729 0.876916
vt 0.791892 0.876805
vt 0.791892 0.852580
vt 0.845854 0.918317
vt 0.845856 0.896563
vt 0.851770 0.896250
vt 0.851770 0.919324
vt 0.307623 0.413077
vt 0.310475 0.413078
vt 0.310480 0.438977
vt 0.334704 0.438992
vt 0.334700 0.413093
vt 0.337553 0.413094
vt 0.337553 0.518084
vt 0.307623 0.518066
vt 0.527512 0.432425
vt 0.519795 0.470882
vt 0.505847 0.497143
vt 0.490918 0.517459
vt 0.485771 0.517926
vt 0.485771 0.412335
vt 0.512600 0.390324
vt 0.522960 0.399878
vt 0.120395 0.326423
vt 0.121884 0.326409
vt 0.121950 0.418767
vt 0.097138 0.410667
vt 0.097106 0.327286
vt 0.098640 0.327272
vt 0.098746 0.409517
vt 0.120771 0.417155
vt 0.466921 0.105931
vt 0.466867 0.099978
vt 0.468401 0.099992
vt 0.468372 0.118960
vt 0.466839 0.118946
vt 0.466799 0.112942
vt 0.445027 0.112316
vt 0.445082 0.118095
vt 0.443593 0.118080
vt 0.443630 0.099603
vt 0.445119 0.099610
vt 0.445160 0.105448
vt 0.410487 0.102439
vt 0.410409 0.183733
vt 0.386184 0.183718
vt 0.386262 0.102424
vt 0.386294 0.083932
vt 0.386345 0.014899
vt 0.410570 0.014914
vt 0.410519 0.083947
vt 0.468401 0.029208
vt 0.466949 0.029989
vt 0.445202 0.016680
vt 0.443079 0.041309
vt 0.443665 0.024455
vt 0.443529 0.015948
vt 0.445442 0.014899
vt 0.468340 0.202324
vt 0.443526 0.210419
vt 0.444706 0.208808
vt 0.466732 0.201174
vt 0.928161 0.722798
vt 0.928161 0.742735
vt 0.922249 0.743125
vt 0.922249 0.722237
vt 0.922707 0.914756
vt 0.922413 0.923250
vt 0.913608 0.927732
vt 0.913608 0.910864
vt 0.751270 0.853207
vt 0.751275 0.784204
vt 0.757186 0.784399
vt 0.757186 0.858364
vt 0.751275 0.859087
vt 0.919517 0.858316
vt 0.919515 0.880070
vt 0.913608 0.881066
vt 0.913608 0.857991
vt 0.475890 0.312854
vt 0.505820 0.312836
vt 0.505803 0.339623
vt 0.475874 0.339641
vt 0.918451 0.555220
vt 0.918451 0.534884
vt 0.924366 0.534495
vt 0.924366 0.555772
vt 0.256827 0.804492
vt 0.256827 0.718434
vt 0.262737 0.717825
vt 0.262741 0.723752
vt 0.262737 0.804821
vt 0.937933 0.110545
vt 0.937933 0.127403
vt 0.932020 0.127591
vt 0.932020 0.109972
vt 0.804056 0.906713
vt 0.804056 0.921141
vt 0.791892 0.921162
vt 0.791892 0.906734
vt 0.817874 0.535140
vt 0.823785 0.534495
vt 0.823789 0.615355
vt 0.823784 0.621058
vt 0.817874 0.620523
vt 0.895755 0.605277
vt 0.895755 0.623748
vt 0.886396 0.620748
vt 0.886412 0.608405
vt 0.215284 0.945514
vt 0.215285 0.928655
vt 0.221194 0.928051
vt 0.221194 0.945671
vt 0.352397 0.893298
vt 0.352412 0.905643
vt 0.343061 0.908632
vt 0.343061 0.890155
vt 0.563220 0.784256
vt 0.563215 0.853260
vt 0.563220 0.859139
vt 0.557309 0.858414
vt 0.557310 0.784449
vt 0.505778 0.360508
vt 0.475848 0.360526
vt 0.307653 0.548565
vt 0.328459 0.547881
vt 0.328459 0.642678
vt 0.307623 0.635858
vt 0.925553 0.625783
vt 0.925553 0.605847
vt 0.931463 0.605277
vt 0.931463 0.626165
vt 0.884864 0.828193
vt 0.883231 0.828192
vt 0.883231 0.777287
vt 0.884864 0.777288
vt 0.475848 0.241775
vt 0.505778 0.241757
vt 0.505818 0.274104
vt 0.475888 0.274122
vt 0.813806 0.876912
vt 0.813806 0.852687
vt 0.117948 0.675175
vt 0.097146 0.675676
vt 0.097078 0.600653
vt 0.117948 0.587623
vt 0.014899 0.438613
vt 0.019451 0.406065
vt 0.029812 0.396508
vt 0.056645 0.418513
vt 0.056645 0.524102
vt 0.051498 0.523636
vt 0.036567 0.503324
vt 0.022617 0.477067
vt 0.916408 0.181969
vt 0.916408 0.211899
vt 0.911365 0.211906
vt 0.911365 0.181976
vt 0.924662 0.658698
vt 0.924662 0.679035
vt 0.918756 0.679602
vt 0.918756 0.658325
vt 0.383331 0.183716
vt 0.413261 0.183735
vt 0.413281 0.208865
vt 0.383351 0.208846
vt 0.413261 0.219905
vt 0.383331 0.219887
vt 0.117184 0.466778
vt 0.117282 0.448567
vt 0.121292 0.448565
vt 0.121303 0.466779
vt 0.121303 0.557825
vt 0.097078 0.557820
vt 0.097078 0.466774
vt 0.165336 0.671333
vt 0.165287 0.689544
vt 0.161276 0.689548
vt 0.161261 0.671334
vt 0.161261 0.613757
vt 0.185486 0.613756
vt 0.185486 0.671333
vt 0.427397 0.923024
vt 0.427103 0.914533
vt 0.436211 0.910661
vt 0.436211 0.927526
vt 0.946206 0.198492
vt 0.946206 0.181969
vt 0.948572 0.181970
vt 0.948572 0.198492
vt 0.666392 0.656347
vt 0.645555 0.663163
vt 0.645555 0.568386
vt 0.666362 0.569071
vt 0.256827 0.687525
vt 0.256827 0.599990
vt 0.277697 0.613020
vt 0.277630 0.688027
vt 0.782162 0.751463
vt 0.782162 0.659048
vt 0.788072 0.658325
vt 0.788069 0.663973
vt 0.788072 0.752357
vt 0.918810 0.408730
vt 0.918810 0.391375
vt 0.925958 0.390324
vt 0.925958 0.409817
vt 0.882697 0.741730
vt 0.882697 0.722237
vt 0.892451 0.723296
vt 0.892451 0.740651
vt 0.878196 0.286899
vt 0.878196 0.262674
vt 0.886607 0.262673
vt 0.886607 0.286898
vt 0.878196 0.181969
vt 0.878196 0.232874
vt 0.782164 0.628527
vt 0.782162 0.540143
vt 0.782165 0.534495
vt 0.788077 0.535214
vt 0.788077 0.627629
vt 0.607012 0.722764
vt 0.607012 0.808822
vt 0.601100 0.809149
vt 0.601104 0.728080
vt 0.601100 0.722153
vt 0.017941 0.984090
vt 0.016159 0.984079
vt 0.014899 0.982776
vt 0.014899 0.980944
vt 0.016159 0.979656
vt 0.017940 0.979667
vt 0.019200 0.980971
vt 0.019200 0.982803
vt 0.661318 0.800995
vt 0.663009 0.800995
vt 0.663009 0.851901
vt 0.661318 0.851901
vt 0.884350 0.065807
vt 0.884350 0.014903
vt 0.659630 0.800996
vt 0.659630 0.851901
vt 0.098680 0.321267
vt 0.098558 0.314255
vt 0.120317 0.313775
vt 0.120450 0.320643
vt 0.782413 0.333595
vt 0.782413 0.350118
vt 0.780048 0.350117
vt 0.780048 0.333595
vt 0.881568 0.828193
vt 0.881568 0.777288
vt 0.982927 0.322506
vt 0.981145 0.322517
vt 0.979885 0.321230
vt 0.979885 0.319398
vt 0.981145 0.318095
vt 0.982927 0.318084
vt 0.984186 0.319371
vt 0.984186 0.321203
vt 0.154936 0.721216
vt 0.183794 0.721205
vt 0.183794 0.757758
vt 0.154936 0.757769
vt 0.042380 0.600583
vt 0.042380 0.559599
vt 0.049773 0.559599
vt 0.049773 0.600583
vt 0.097078 0.705473
vt 0.119192 0.705473
vt 0.119192 0.771360
vt 0.097078 0.771360
vt 0.872332 0.319726
vt 0.874852 0.318821
vt 0.878966 0.318820
vt 0.881485 0.319724
vt 0.882831 0.322334
vt 0.882831 0.353808
vt 0.870986 0.353810
vt 0.870986 0.322337
vt 0.721472 0.770377
vt 0.699359 0.770377
vt 0.699359 0.704491
vt 0.721472 0.704491
vt 0.397305 0.601323
vt 0.397305 0.707637
vt 0.383331 0.707642
vt 0.383331 0.601328
vt 0.166385 0.192931
vt 0.161261 0.192931
vt 0.161261 0.015990
vt 0.161261 0.014899
vt 0.272701 0.014905
vt 0.277825 0.014905
vt 0.277825 0.015996
vt 0.277825 0.027384
vt 0.277825 0.192938
vt 0.245734 0.192936
vt 0.032345 0.600583
vt 0.060066 0.600583
vt 0.060066 0.559599
vt 0.032345 0.559599
vt 0.014899 0.553900
vt 0.065763 0.553900
vt 0.065763 0.606282
vt 0.014899 0.606282
vt 0.501519 0.015993
vt 0.498207 0.015993
vt 0.498207 0.014899
vt 0.518788 0.014899
vt 0.518788 0.015993
vt 0.515513 0.021072
vt 0.501516 0.021018
vt 0.557309 0.587635
vt 0.558350 0.587400
vt 0.558403 0.754458
vt 0.557309 0.754459
vt 0.749088 0.188431
vt 0.749209 0.181969
vt 0.750250 0.182204
vt 0.750250 0.349429
vt 0.749156 0.349429
vt 0.437566 0.250614
vt 0.446048 0.250614
vt 0.446051 0.256592
vt 0.422953 0.256591
vt 0.422788 0.256132
vt 0.421500 0.256592
vt 0.407883 0.256591
vt 0.406595 0.256132
vt 0.406431 0.256591
vt 0.383333 0.256591
vt 0.383331 0.250614
vt 0.391814 0.250614
vt 0.399467 0.250297
vt 0.429912 0.250297
vt 0.155409 0.849219
vt 0.157929 0.848313
vt 0.162044 0.848313
vt 0.164563 0.849218
vt 0.165910 0.851829
vt 0.165910 0.883303
vt 0.154063 0.883303
vt 0.154063 0.851829
vt 0.129183 0.188385
vt 0.127793 0.187659
vt 0.127793 0.181202
vt 0.129183 0.180475
vt 0.515949 0.888714
vt 0.515840 0.857283
vt 0.521372 0.857265
vt 0.521480 0.888697
vt 0.955573 0.861023
vt 0.955573 0.865499
vt 0.950041 0.865499
vt 0.950041 0.861023
vt 0.888289 0.456931
vt 0.888287 0.488404
vt 0.882756 0.488404
vt 0.882758 0.456930
vt 0.882756 0.454301
vt 0.888287 0.454301
vt 0.515840 0.854604
vt 0.521372 0.854587
vt 0.955573 0.868596
vt 0.950041 0.868596
vt 0.950041 0.857991
vt 0.955573 0.857991
vt 0.585996 0.353202
vt 0.585996 0.241764
vt 0.606549 0.241757
vt 0.606549 0.358318
vt 0.589267 0.358325
vt 0.603241 0.353196
vt 0.603241 0.246882
vt 0.589267 0.246887
vt 0.589267 0.353201
vt 0.350924 0.015310
vt 0.353533 0.020697
vt 0.318417 0.037706
vt 0.317447 0.037369
vt 0.317110 0.038340
vt 0.310886 0.041354
vt 0.309916 0.041017
vt 0.307623 0.036284
vt 0.384070 0.858054
vt 0.385416 0.855443
vt 0.387935 0.854537
vt 0.392049 0.854537
vt 0.394569 0.855441
vt 0.395915 0.858051
vt 0.395915 0.889525
vt 0.384070 0.889527
vt 0.888390 0.424475
vt 0.882858 0.424492
vt 0.882750 0.393061
vt 0.888281 0.393043
vt 0.655144 0.947937
vt 0.660676 0.947937
vt 0.660676 0.952413
vt 0.655144 0.952413
vt 0.883427 0.660966
vt 0.888958 0.660966
vt 0.888956 0.692439
vt 0.883425 0.692439
vt 0.883425 0.658336
vt 0.888956 0.658336
vt 0.882750 0.390382
vt 0.888281 0.390365
vt 0.655145 0.955510
vt 0.660676 0.955510
vt 0.660676 0.944905
vt 0.655145 0.944905
vt 0.200203 0.583956
vt 0.161296 0.583958
vt 0.161296 0.560860
vt 0.162020 0.560134
vt 0.168916 0.560134
vt 0.169640 0.559407
vt 0.169640 0.545790
vt 0.168916 0.545064
vt 0.162020 0.545064
vt 0.161296 0.544338
vt 0.161296 0.521240
vt 0.200202 0.521238
vt 0.200927 0.521964
vt 0.200927 0.528994
vt 0.201651 0.529720
vt 0.208547 0.529720
vt 0.209271 0.530446
vt 0.209271 0.574747
vt 0.208547 0.575473
vt 0.201651 0.575473
vt 0.200927 0.576200
vt 0.200927 0.583230
vt 0.034252 0.339031
vt 0.047927 0.339037
vt 0.048653 0.338343
vt 0.062278 0.359279
vt 0.062278 0.313710
vt 0.014899 0.309684
vt 0.067280 0.309709
vt 0.067280 0.366711
vt 0.014899 0.366685
vt 0.028524 0.320594
vt 0.053655 0.320606
vt 0.048653 0.325300
vt 0.047927 0.324606
vt 0.034252 0.324599
vt 0.033526 0.325293
vt 0.033526 0.338336
vt 0.246464 0.228721
vt 0.269761 0.372969
vt 0.263451 0.372969
vt 0.239434 0.228721
vt 0.352884 0.181123
vt 0.347071 0.183939
vt 0.688292 0.211898
vt 0.687845 0.358326
vt 0.681520 0.357020
vt 0.681520 0.210500
vt 0.601100 0.548494
vt 0.608034 0.547336
vt 0.608034 0.691316
vt 0.601811 0.692355
vt 0.646268 0.391900
vt 0.653036 0.390481
vt 0.653036 0.537122
vt 0.646715 0.538448
vt 0.185198 0.228721
vt 0.192228 0.228721
vt 0.168298 0.372969
vt 0.161988 0.372969
vt 0.690473 0.391506
vt 0.689762 0.535450
vt 0.683543 0.534389
vt 0.683543 0.390324
vt 0.350224 0.240580
vt 0.314089 0.383279
vt 0.308283 0.380452
vt 0.344007 0.237554
vt 0.048007 0.223224
vt 0.034390 0.223218
vt 0.427103 0.601323
vt 0.433785 0.603105
vt 0.434516 0.709497
vt 0.427103 0.720955
vt 0.421378 0.359848
vt 0.407703 0.359848
vt 0.216015 0.615540
vt 0.222695 0.613756
vt 0.222695 0.733393
vt 0.215284 0.721936
vt 0.480803 0.637227
vt 0.491043 0.644670
vt 0.491043 0.710570
vt 0.475131 0.722880
vt 0.475131 0.634195
vt 0.129183 0.017155
vt 0.129183 0.096643
vt 0.121485 0.096643
vt 0.121485 0.020283
vt 0.099372 0.020283
vt 0.099372 0.027387
vt 0.046990 0.027387
vt 0.046990 0.020284
vt 0.024877 0.020284
vt 0.024877 0.108951
vt 0.024877 0.112436
vt 0.025604 0.180476
vt 0.019295 0.180476
vt 0.018568 0.181202
vt 0.017179 0.178757
vt 0.017179 0.017155
vt 0.527512 0.547743
vt 0.527512 0.604397
vt 0.522223 0.599114
vt 0.522223 0.565750
vt 0.480420 0.565735
vt 0.480420 0.599098
vt 0.475131 0.604378
vt 0.475131 0.547724
vt 0.659630 0.915108
vt 0.659630 0.881699
vt 0.661403 0.882297
vt 0.661403 0.914491
vt 0.053042 0.911629
vt 0.053042 0.869825
vt 0.054803 0.870585
vt 0.054803 0.910868
vt 0.914415 0.318084
vt 0.914415 0.351492
vt 0.912629 0.350875
vt 0.912629 0.318682
vt 0.016713 0.864351
vt 0.016713 0.906155
vt 0.014899 0.905394
vt 0.014899 0.865111
vt 0.153336 0.719358
vt 0.185486 0.719346
vt 0.185486 0.759628
vt 0.153336 0.759640
vt 0.515119 0.824748
vt 0.515119 0.785879
vt 0.524384 0.785879
vt 0.524384 0.824748
vt 0.062307 0.801158
vt 0.062307 0.840027
vt 0.053042 0.840027
vt 0.053042 0.801158
vt 0.980608 0.181969
vt 0.980608 0.192006
vt 0.978370 0.191622
vt 0.978370 0.182355
vt 0.902223 0.109972
vt 0.902223 0.150957
vt 0.899992 0.149899
vt 0.899992 0.111030
vt 0.980609 0.221804
vt 0.980609 0.231840
vt 0.978370 0.231472
vt 0.978370 0.222207
vt 0.881568 0.898975
vt 0.881568 0.857991
vt 0.883811 0.859051
vt 0.883811 0.897919
vt 0.517357 0.966672
vt 0.517357 0.976967
vt 0.515119 0.976583
vt 0.515119 0.967316
vt 0.477362 0.862479
vt 0.477362 0.903464
vt 0.475131 0.902406
vt 0.475131 0.863537
vt 0.385571 0.967486
vt 0.385571 0.977779
vt 0.383331 0.977154
vt 0.383331 0.967888
vt 0.886396 0.575479
vt 0.886396 0.534495
vt 0.888653 0.535556
vt 0.888653 0.574425
vt 0.740130 0.122984
vt 0.748209 0.123019
vt 0.748209 0.145132
vt 0.731661 0.145053
vt 0.731661 0.122940
vt 0.710933 0.858394
vt 0.710933 0.880507
vt 0.694385 0.880429
vt 0.694385 0.858316
vt 0.498207 0.193444
vt 0.498199 0.112339
vt 0.498207 0.096683
vt 0.498204 0.020384
vt 0.501519 0.188443
vt 0.515512 0.188443
vt 0.518788 0.193444
vt 0.384214 0.509672
vt 0.384214 0.570659
vt 0.383331 0.571525
vt 0.383331 0.508806
vt 0.427103 0.880863
vt 0.427103 0.858750
vt 0.432995 0.858745
vt 0.434043 0.880857
vt 0.092105 0.859315
vt 0.098178 0.859310
vt 0.097822 0.881423
vt 0.092105 0.881428
vt 0.233902 0.415079
vt 0.233902 0.480969
vt 0.224014 0.488138
vt 0.217991 0.491439
vt 0.217991 0.484335
vt 0.161261 0.484323
vt 0.161261 0.433456
vt 0.217991 0.415076
vt 0.217991 0.402767
vt 0.455974 0.400799
vt 0.455974 0.466698
vt 0.440062 0.479009
vt 0.440062 0.466698
vt 0.383331 0.448302
vt 0.383331 0.397428
vt 0.440062 0.397429
vt 0.440062 0.390324
vt 0.446942 0.394285
vt 0.414049 0.509672
vt 0.413322 0.517289
vt 0.401478 0.517289
vt 0.400752 0.518015
vt 0.400752 0.523547
vt 0.401478 0.524273
vt 0.400041 0.524655
vt 0.400752 0.556784
vt 0.400752 0.562316
vt 0.400029 0.563796
vt 0.400752 0.570659
vt 0.108172 0.859298
vt 0.108172 0.881412
vt 0.443170 0.858734
vt 0.443170 0.880847
vt 0.322906 0.027907
vt 0.349762 0.014899
vt 0.308019 0.035118
vt 0.017179 0.191105
vt 0.129183 0.191105
vt 0.130369 0.192314
vt 0.015993 0.192315
vt 0.565891 0.180910
vt 0.569166 0.180911
vt 0.569166 0.192329
vt 0.565889 0.187374
vt 0.783409 0.391517
vt 0.783409 0.503519
vt 0.782162 0.504697
vt 0.782162 0.390324
vt 0.310244 0.214462
vt 0.311393 0.214046
vt 0.326264 0.221284
vt 0.353091 0.234343
vt 0.353498 0.235517
vt 0.431441 0.524943
vt 0.430587 0.524273
vt 0.430587 0.517289
vt 0.431435 0.517290
vt 0.437571 0.249703
vt 0.445188 0.249703
vt 0.384202 0.249703
vt 0.391819 0.249703
vt 0.431435 0.563043
vt 0.430587 0.563042
vt 0.430587 0.556058
vt 0.431441 0.555389
vt 0.120031 0.187659
vt 0.120757 0.188385
vt 0.127067 0.188385
vt 0.018568 0.187659
vt 0.019295 0.188386
vt 0.025604 0.188386
vt 0.026331 0.187659
vt 0.026331 0.181202
vt 0.046990 0.108951
vt 0.046990 0.096643
vt 0.099372 0.096643
vt 0.099372 0.108951
vt 0.121485 0.108950
vt 0.127067 0.180475
vt 0.120757 0.180475
vt 0.120031 0.181202
vt 0.200872 0.521237
vt 0.201651 0.521238
vt 0.201651 0.583956
vt 0.200872 0.583956
vt 0.161261 0.560695
vt 0.161296 0.559408
vt 0.310228 0.041663
vt 0.238706 0.228711
vt 0.237981 0.228721
vt 0.238708 0.227995
vt 0.192955 0.227995
vt 0.193681 0.228721
vt 0.192953 0.228711
vt 0.184471 0.228711
vt 0.184472 0.227979
vt 0.161296 0.545790
vt 0.161261 0.544502
vt 0.346413 0.184248
vt 0.262723 0.372959
vt 0.317759 0.038015
vt 0.353533 0.180799
vt 0.680799 0.356862
vt 0.680799 0.210342
vt 0.653745 0.390324
vt 0.653745 0.536965
vt 0.646002 0.538588
vt 0.645555 0.392041
vt 0.161261 0.372959
vt 0.343347 0.237222
vt 0.307623 0.380121
vt 0.033662 0.223207
vt 0.407162 0.256553
vt 0.406978 0.360526
vt 0.048732 0.223214
vt 0.422232 0.256553
vt 0.422106 0.360526
vt 0.556198 0.246881
vt 0.556198 0.326230
vt 0.552923 0.326230
vt 0.552923 0.246881
vt 0.257553 0.870344
vt 0.256827 0.870335
vt 0.256827 0.838861
vt 0.257553 0.838870
vt 0.269400 0.838870
vt 0.270126 0.838861
vt 0.270126 0.870335
vt 0.269400 0.870344
vt 0.870248 0.353801
vt 0.870248 0.322327
vt 0.882030 0.456920
vt 0.882028 0.488393
vt 0.515119 0.857246
vt 0.515119 0.854567
vt 0.258173 0.836251
vt 0.258900 0.836260
vt 0.882028 0.454290
vt 0.522103 0.857224
vt 0.522103 0.854546
vt 0.265715 0.834619
vt 0.265534 0.835354
vt 0.261419 0.835355
vt 0.261237 0.834619
vt 0.879135 0.318084
vt 0.874658 0.318085
vt 0.956299 0.858717
vt 0.956299 0.861218
vt 0.956299 0.867870
vt 0.956299 0.865332
vt 0.949315 0.867870
vt 0.949315 0.865332
vt 0.949315 0.858717
vt 0.949315 0.861219
vt 0.882699 0.660955
vt 0.882697 0.692428
vt 0.383331 0.889518
vt 0.383331 0.858044
vt 0.166635 0.851820
vt 0.166635 0.883294
vt 0.153336 0.883294
vt 0.153336 0.851820
vt 0.889012 0.390324
vt 0.889012 0.393002
vt 0.882697 0.658325
vt 0.154682 0.849210
vt 0.882028 0.390345
vt 0.882028 0.393024
vt 0.392218 0.853801
vt 0.387742 0.853802
vt 0.162224 0.847578
vt 0.157747 0.847578
vt 0.654418 0.948133
vt 0.654419 0.945632
vt 0.654418 0.952246
vt 0.654419 0.954784
vt 0.661402 0.952246
vt 0.661403 0.954784
vt 0.661402 0.948133
vt 0.661403 0.945632
vt 0.401478 0.563042
vt 0.413322 0.563042
vt 0.414049 0.562316
vt 0.414049 0.556784
vt 0.413322 0.556058
vt 0.401478 0.556058
vt 0.413322 0.524273
vt 0.414049 0.523547
vt 0.414049 0.518015
vt 0.430587 0.509672
vt 0.430587 0.570660
vt 0.548586 0.193418
vt 0.548586 0.014899
vt 0.569166 0.014904
vt 0.565891 0.019903
vt 0.551898 0.019899
vt 0.551897 0.187413
vt 0.569166 0.193423
vt 0.565891 0.193422
vt 0.701863 0.014899
vt 0.701863 0.121216
vt 0.687871 0.121216
vt 0.687871 0.014899
vt 0.557309 0.557602
vt 0.557309 0.390324
vt 0.571302 0.390327
vt 0.571301 0.557562
vt 0.022700 0.641487
vt 0.030811 0.648392
vt 0.030811 0.714282
vt 0.020744 0.721589
vt 0.014899 0.724752
vt 0.014899 0.648388
vt 0.014899 0.636080
vt 0.351202 0.240230
vt 0.343672 0.236583
vt 0.342701 0.236918
vt 0.307623 0.219843
vt 0.585996 0.358326
vt 0.130369 0.096666
vt 0.130369 0.015993
vt 0.015993 0.015993
vt 0.130369 0.112319
vt 0.131463 0.112319
vt 0.131463 0.193408
vt 0.014899 0.193409
vt 0.014899 0.014900
vt 0.131463 0.014899
vt 0.131463 0.015993
vt 0.131463 0.020383
vt 0.131463 0.096666
vt 0.818961 0.764642
vt 0.817870 0.764642
vt 0.817870 0.658325
vt 0.818961 0.658325
vt 0.813364 0.288286
vt 0.813364 0.181969
vt 0.814455 0.181969
vt 0.814455 0.288286
vt 0.813326 0.121216
vt 0.812232 0.121216
vt 0.812232 0.041867
vt 0.812232 0.014899
vt 0.813326 0.014899
vt 0.813207 0.496641
vt 0.813207 0.390324
vt 0.814301 0.390324
vt 0.814301 0.496641
vt 0.752364 0.587461
vt 0.752364 0.754406
vt 0.751270 0.754406
vt 0.751270 0.587462
vt 0.751270 0.390325
vt 0.752364 0.390324
vt 0.752364 0.557662
vt 0.751270 0.557663
vt 0.718090 0.262660
vt 0.718090 0.183156
vt 0.719290 0.181969
vt 0.719290 0.262659
vt 0.719282 0.278315
vt 0.719290 0.358326
vt 0.718090 0.357141
vt 0.718090 0.354420
vt 0.718090 0.346509
vt 0.967731 0.123946
vt 0.967731 0.109972
vt 0.968825 0.109972
vt 0.968825 0.123946
vt 0.256827 0.964680
vt 0.256827 0.950687
vt 0.257921 0.950687
vt 0.257921 0.964680
vt 0.263700 0.402767
vt 0.277697 0.402821
vt 0.277697 0.570193
vt 0.263704 0.570192
vt 0.956863 0.468286
vt 0.956863 0.454290
vt 0.957957 0.454305
vt 0.957957 0.468301
vt 0.791892 0.964953
vt 0.791892 0.950960
vt 0.792985 0.950960
vt 0.792985 0.964953
vt 0.961261 0.619270
vt 0.961261 0.605277
vt 0.962355 0.605277
vt 0.962355 0.619270
vt 0.694385 0.970239
vt 0.694385 0.956243
vt 0.695426 0.956261
vt 0.695426 0.970257
vt 0.720271 0.403879
vt 0.720271 0.391529
vt 0.721472 0.390324
vt 0.721472 0.566655
vt 0.720271 0.565489
vt 0.957959 0.736230
vt 0.957959 0.722237
vt 0.959053 0.722237
vt 0.959053 0.736230
vt 0.952505 0.969435
vt 0.952505 0.955461
vt 0.953599 0.955461
vt 0.953599 0.969435
vt 0.184472 0.222736
vt 0.247190 0.222736
vt 0.247190 0.227995
vt 0.535618 0.358321
vt 0.535618 0.241757
vt 0.556198 0.241757
vt 0.538930 0.246881
vt 0.538930 0.353197
vt 0.552923 0.353198
vt 0.556198 0.358321
vt 0.268054 0.836260
vt 0.611845 0.140372
vt 0.611196 0.140379
vt 0.611196 0.131156
vt 0.611845 0.131149
vt 0.950887 0.070714
vt 0.950887 0.067526
vt 0.954400 0.067526
vt 0.954400 0.070714
vt 0.309802 0.954395
vt 0.306289 0.954395
vt 0.306289 0.949653
vt 0.309802 0.949653
vt 0.782432 0.127510
vt 0.782432 0.136726
vt 0.778919 0.136726
vt 0.778919 0.127510
vt 0.645172 0.131151
vt 0.645830 0.131157
vt 0.645828 0.140380
vt 0.645170 0.140374
vt 0.950886 0.076133
vt 0.950887 0.073812
vt 0.954400 0.073812
vt 0.954399 0.076133
vt 0.060609 0.757965
vt 0.060610 0.748744
vt 0.064122 0.748746
vt 0.064121 0.757966
vt 0.954399 0.065041
vt 0.950886 0.065041
vt 0.060628 0.742505
vt 0.064141 0.742506
vt 0.778916 0.121244
vt 0.782429 0.121244
vt 0.653821 0.124979
vt 0.653181 0.124985
vt 0.653200 0.029044
vt 0.653840 0.029037
vt 0.638099 0.347360
vt 0.638758 0.347367
vt 0.638756 0.356590
vt 0.638097 0.356584
vt 0.655635 0.131157
vt 0.655634 0.140380
vt 0.653228 0.142011
vt 0.650731 0.142115
vt 0.648234 0.142011
vt 0.648287 0.124985
vt 0.648306 0.029044
vt 0.645281 0.025509
vt 0.644077 0.021974
vt 0.645283 0.018440
vt 0.648615 0.015662
vt 0.652897 0.015662
vt 0.656228 0.018440
vt 0.657432 0.021974
vt 0.656226 0.025509
vt 0.611525 0.404462
vt 0.611525 0.500401
vt 0.610875 0.500408
vt 0.610876 0.404469
vt 0.064151 0.646596
vt 0.060638 0.646595
vt 0.060617 0.643147
vt 0.064130 0.643148
vt 0.782429 0.025373
vt 0.778916 0.025373
vt 0.778920 0.021963
vt 0.782433 0.021963
vt 0.064121 0.639648
vt 0.060609 0.639647
vt 0.060618 0.636080
vt 0.064131 0.636081
vt 0.782434 0.018479
vt 0.778921 0.018480
vt 0.778920 0.014899
vt 0.782433 0.014899
vt 0.306286 0.945882
vt 0.309799 0.945882
vt 0.309799 0.958128
vt 0.306286 0.958128
vt 0.951469 0.017384
vt 0.954982 0.017384
vt 0.954982 0.020572
vt 0.951469 0.020572
vt 0.613981 0.515796
vt 0.613332 0.515804
vt 0.613332 0.506581
vt 0.613981 0.506574
vt 0.954463 0.666838
vt 0.954463 0.662096
vt 0.957976 0.662096
vt 0.957976 0.666838
vt 0.641235 0.245253
vt 0.641215 0.341194
vt 0.640556 0.341188
vt 0.640576 0.245247
vt 0.954982 0.025991
vt 0.951468 0.025991
vt 0.951469 0.023670
vt 0.954982 0.023670
vt 0.951468 0.014899
vt 0.954982 0.014899
vt 0.524355 0.746861
vt 0.520842 0.746859
vt 0.520860 0.740620
vt 0.524373 0.740622
vt 0.783566 0.294580
vt 0.780053 0.294580
vt 0.780049 0.288314
vt 0.783562 0.288314
vt 0.520871 0.644710
vt 0.524384 0.644711
vt 0.780048 0.192444
vt 0.783561 0.192443
vt 0.603525 0.506581
vt 0.603525 0.515804
vt 0.602875 0.515796
vt 0.602875 0.506573
vt 0.524362 0.641263
vt 0.520849 0.641262
vt 0.649156 0.234650
vt 0.650361 0.238184
vt 0.649155 0.241719
vt 0.646128 0.245253
vt 0.646108 0.341195
vt 0.648563 0.347367
vt 0.648561 0.356590
vt 0.646155 0.358221
vt 0.643658 0.358326
vt 0.641161 0.358221
vt 0.638210 0.241719
vt 0.637005 0.238184
vt 0.638211 0.234650
vt 0.641543 0.231872
vt 0.645825 0.231872
vt 0.783564 0.189033
vt 0.780051 0.189033
vt 0.524363 0.634196
vt 0.524354 0.637763
vt 0.520841 0.637762
vt 0.520850 0.634195
vt 0.783564 0.181969
vt 0.783566 0.185550
vt 0.780053 0.185550
vt 0.780051 0.181969
vt 0.954460 0.658325
vt 0.957973 0.658325
vt 0.957973 0.670571
vt 0.954460 0.670571
vt 0.850245 0.777288
vt 0.851770 0.777287
vt 0.851770 0.866451
vt 0.850245 0.866452
vt 0.844253 0.181969
vt 0.845529 0.181970
vt 0.845529 0.271134
vt 0.844253 0.271133
vt 0.847112 0.181970
vt 0.847112 0.271134
vt 0.848398 0.181969
vt 0.848398 0.271133
vt 0.853586 0.534496
vt 0.855106 0.534499
vt 0.855106 0.623661
vt 0.853586 0.623657
vt 0.856598 0.534495
vt 0.856598 0.623657
vt 0.848759 0.658325
vt 0.850085 0.658325
vt 0.850085 0.747489
vt 0.848759 0.747489
vt 0.851667 0.658325
vt 0.851667 0.747489
vt 0.852899 0.658325
vt 0.852899 0.747489
vt 0.848759 0.777287
vt 0.848759 0.866451
vt 0.649202 0.356584
vt 0.649204 0.347360
vt 0.685673 0.174739
vt 0.685673 0.176323
vt 0.684742 0.177604
vt 0.683236 0.178093
vt 0.681730 0.177603
vt 0.680799 0.176322
vt 0.680799 0.174738
vt 0.681730 0.173457
vt 0.683236 0.172968
vt 0.684742 0.173458
vt 0.613902 0.400934
vt 0.610926 0.517435
vt 0.608428 0.517539
vt 0.605931 0.517435
vt 0.605981 0.500408
vt 0.605982 0.404469
vt 0.602955 0.400934
vt 0.601750 0.397400
vt 0.602955 0.393865
vt 0.606288 0.391088
vt 0.610570 0.391088
vt 0.613902 0.393865
vt 0.615107 0.397400
vt 0.950354 0.075484
vt 0.950355 0.073164
vt 0.608739 0.124984
vt 0.609389 0.124977
vt 0.647629 0.124979
vt 0.954932 0.068175
vt 0.954932 0.070675
vt 0.648377 0.014899
vt 0.653117 0.014899
vt 0.612971 0.021975
vt 0.611766 0.018440
vt 0.612415 0.018433
vt 0.613620 0.021968
vt 0.611766 0.025510
vt 0.612415 0.025502
vt 0.644623 0.025503
vt 0.643418 0.021968
vt 0.605332 0.500401
vt 0.605332 0.404462
vt 0.955514 0.018033
vt 0.955514 0.020532
vt 0.950937 0.023021
vt 0.950937 0.020532
vt 0.955514 0.023021
vt 0.955514 0.025342
vt 0.950936 0.025342
vt 0.950937 0.018033
vt 0.950936 0.015548
vt 0.647648 0.029037
vt 0.646769 0.245247
vt 0.646749 0.341188
vt 0.520841 0.756080
vt 0.524354 0.756081
vt 0.637551 0.241712
vt 0.614551 0.400927
vt 0.641305 0.231109
vt 0.646046 0.231109
vt 0.606058 0.390324
vt 0.610799 0.390324
vt 0.636347 0.238178
vt 0.637552 0.234643
vt 0.614551 0.393858
vt 0.615757 0.397393
vt 0.649797 0.234643
vt 0.602306 0.393858
vt 0.651001 0.238178
vt 0.649795 0.241712
vt 0.602306 0.400927
vt 0.601100 0.397393
vt 0.656274 0.140374
vt 0.656276 0.131151
vt 0.600739 0.131149
vt 0.601389 0.131156
vt 0.601389 0.140379
vt 0.600739 0.140372
vt 0.950355 0.070675
vt 0.950355 0.068175
vt 0.954932 0.073164
vt 0.950354 0.065690
vt 0.954931 0.075484
vt 0.954931 0.065690
vt 0.603196 0.124977
vt 0.603845 0.124984
vt 0.603195 0.029037
vt 0.603845 0.029044
vt 0.783566 0.303796
vt 0.780053 0.303797
vt 0.845030 0.502675
vt 0.844099 0.501393
vt 0.844099 0.499809
vt 0.845030 0.498528
vt 0.846535 0.498039
vt 0.848041 0.498528
vt 0.848972 0.499810
vt 0.848972 0.501394
vt 0.848041 0.502675
vt 0.846535 0.503165
vt 0.600169 0.025503
vt 0.600819 0.025510
vt 0.608739 0.029044
vt 0.609389 0.029037
vt 0.656867 0.025503
vt 0.603921 0.014899
vt 0.608663 0.014899
vt 0.608433 0.015663
vt 0.604151 0.015663
vt 0.598964 0.021968
vt 0.600169 0.018433
vt 0.600819 0.018441
vt 0.599613 0.021975
vt 0.644624 0.018434
vt 0.656868 0.018434
vt 0.658073 0.021968
vt 0.955514 0.015548
vt 0.608790 0.142010
vt 0.606292 0.142115
vt 0.603795 0.142010
vt 0.154757 0.959007
vt 0.153336 0.969724
vt 0.153336 0.958994
vt 0.154757 0.969737
vt 0.604963 0.947868
vt 0.603752 0.958531
vt 0.603752 0.947795
vt 0.604963 0.958604
vt 0.602276 0.958441
vt 0.602276 0.947705
vt 0.601100 0.958369
vt 0.601100 0.947633
vt 0.427103 0.968056
vt 0.428540 0.957342
vt 0.428540 0.968074
vt 0.427103 0.957324
vt 0.429928 0.957327
vt 0.429928 0.968060
vt 0.849706 0.949122
vt 0.848450 0.959932
vt 0.848450 0.949196
vt 0.849706 0.959858
vt 0.846978 0.960022
vt 0.846978 0.949286
vt 0.845854 0.960093
vt 0.845854 0.949357
vt 0.156165 0.958996
vt 0.156165 0.969725
vt 0.216153 0.979824
vt 0.218965 0.979814
vt 0.217559 0.980279
vt 0.219834 0.977122
vt 0.219834 0.978609
vt 0.217559 0.975468
vt 0.218965 0.975923
vt 0.215284 0.977138
vt 0.216153 0.975933
vt 0.215284 0.978625
vt 0.959139 0.502909
vt 0.961416 0.501255
vt 0.960546 0.502454
vt 0.961416 0.499769
vt 0.093526 0.969123
vt 0.092105 0.958380
vt 0.093526 0.958393
vt 0.092105 0.969110
vt 0.959043 0.273644
vt 0.957832 0.262835
vt 0.959043 0.262908
vt 0.957832 0.273571
vt 0.956357 0.262745
vt 0.956357 0.273481
vt 0.955181 0.262673
vt 0.955181 0.273409
vt 0.913608 0.957530
vt 0.915045 0.968280
vt 0.913608 0.968262
vt 0.915045 0.957548
vt 0.916434 0.968266
vt 0.916434 0.957534
vt 0.959608 0.401060
vt 0.958352 0.401134
vt 0.958352 0.390398
vt 0.956880 0.390488
vt 0.956880 0.401224
vt 0.955756 0.390559
vt 0.955756 0.401295
vt 0.094934 0.969111
vt 0.094934 0.958381
vt 0.955989 0.823557
vt 0.953713 0.821886
vt 0.955120 0.822351
vt 0.951437 0.823540
vt 0.952306 0.822341
vt 0.952306 0.826232
vt 0.951437 0.825026
vt 0.955120 0.826242
vt 0.953713 0.826696
vt 0.955989 0.825043
vt 0.345336 0.982631
vt 0.343930 0.978285
vt 0.346742 0.982167
vt 0.343061 0.979491
vt 0.959608 0.390324
vt 0.347611 0.979475
vt 0.345336 0.977821
vt 0.346742 0.978276
vt 0.347611 0.980962
vt 0.343061 0.980977
vt 0.343930 0.982177
vt 0.957733 0.498553
vt 0.956863 0.501239
vt 0.956863 0.499752
vt 0.959139 0.498099
vt 0.957733 0.502444
vt 0.960546 0.498563
vt 0.345926 0.860357
vt 0.343061 0.860340
vt 0.343061 0.780512
vt 0.345926 0.780529
vt 0.482872 0.832681
vt 0.480515 0.832627
vt 0.480515 0.752798
vt 0.482872 0.752852
vt 0.477558 0.832560
vt 0.477558 0.752731
vt 0.475131 0.832507
vt 0.475131 0.752678
vt 0.307623 0.780512
vt 0.310456 0.780521
vt 0.310456 0.860343
vt 0.307623 0.860334
vt 0.313263 0.780513
vt 0.313263 0.860335
vt 0.014899 0.754724
vt 0.017153 0.754670
vt 0.017153 0.834499
vt 0.014899 0.834553
vt 0.020101 0.754604
vt 0.020101 0.834433
vt 0.022619 0.754550
vt 0.022619 0.834379
vt 0.348693 0.860341
vt 0.348693 0.780513
vt 0.054781 0.942346
vt 0.057595 0.941426
vt 0.062148 0.947699
vt 0.060409 0.950100
vt 0.347614 0.938430
vt 0.350427 0.939350
vt 0.344800 0.947103
vt 0.343061 0.944703
vt 0.343061 0.941738
vt 0.344800 0.939342
vt 0.352166 0.941750
vt 0.347614 0.948023
vt 0.352166 0.944715
vt 0.350427 0.947111
vt 0.060409 0.942339
vt 0.062148 0.944735
vt 0.057595 0.951020
vt 0.053042 0.944747
vt 0.054781 0.950107
vt 0.053042 0.947711
vt 0.383519 0.929841
vt 0.389037 0.929841
vt 0.389037 0.936634
vt 0.383518 0.936634
vt 0.981199 0.359315
vt 0.979885 0.359345
vt 0.979885 0.352315
vt 0.981199 0.352346
vt 0.951826 0.777351
vt 0.951826 0.792025
vt 0.951437 0.791642
vt 0.951437 0.777734
vt 0.515306 0.929028
vt 0.515119 0.918512
vt 0.520993 0.918512
vt 0.520826 0.929028
vt 0.915220 0.777287
vt 0.921090 0.777287
vt 0.921639 0.797632
vt 0.914662 0.797632
vt 0.944351 0.335622
vt 0.944349 0.328839
vt 0.949869 0.328839
vt 0.949872 0.335622
vt 0.983328 0.777318
vt 0.984640 0.777287
vt 0.984640 0.784317
vt 0.983328 0.784287
vt 0.751270 0.945772
vt 0.759376 0.945773
vt 0.759376 0.954935
vt 0.751270 0.954935
vt 0.850694 0.025567
vt 0.851252 0.024682
vt 0.851241 0.054754
vt 0.850684 0.053872
vt 0.749118 0.086294
vt 0.744984 0.093137
vt 0.744390 0.093142
vt 0.748524 0.086299
vt 0.221567 0.872310
vt 0.215988 0.872310
vt 0.216018 0.871164
vt 0.221538 0.871164
vt 0.926629 0.454290
vt 0.927065 0.454884
vt 0.927065 0.471149
vt 0.926629 0.471743
vt 0.919061 0.470416
vt 0.926091 0.470416
vt 0.926091 0.455617
vt 0.919061 0.455617
vt 0.918087 0.471154
vt 0.918087 0.454884
vt 0.918523 0.454290
vt 0.312093 0.750125
vt 0.320611 0.750125
vt 0.320946 0.750714
vt 0.311757 0.750714
vt 0.920584 0.014899
vt 0.921138 0.035243
vt 0.914148 0.035243
vt 0.914708 0.014899
vt 0.215284 0.898253
vt 0.222274 0.898253
vt 0.870194 0.149871
vt 0.869126 0.150941
vt 0.843124 0.150957
vt 0.843124 0.122614
vt 0.863661 0.132662
vt 0.870194 0.143078
vt 0.215287 0.803093
vt 0.215845 0.802209
vt 0.222835 0.802208
vt 0.222832 0.773866
vt 0.215843 0.773867
vt 0.215285 0.772982
vt 0.215284 0.763192
vt 0.223389 0.763191
vt 0.223395 0.834583
vt 0.215290 0.834584
vt 0.914148 0.078947
vt 0.914148 0.065041
vt 0.920556 0.065041
vt 0.920556 0.078947
vt 0.021307 0.949858
vt 0.014899 0.949858
vt 0.014899 0.935953
vt 0.021307 0.935953
vt 0.881957 0.928837
vt 0.883269 0.928773
vt 0.883269 0.943574
vt 0.881957 0.943511
vt 0.480783 0.944016
vt 0.475265 0.944016
vt 0.475131 0.933262
vt 0.481001 0.933262
vt 0.098642 0.811212
vt 0.119192 0.801158
vt 0.119192 0.829501
vt 0.093174 0.829492
vt 0.092105 0.828422
vt 0.092105 0.821629
vt 0.520826 0.935821
vt 0.515306 0.935821
vt 0.881568 0.943128
vt 0.881568 0.929220
vt 0.427103 0.822146
vt 0.427103 0.750753
vt 0.427537 0.750762
vt 0.427756 0.760551
vt 0.427541 0.822154
vt 0.720885 0.667853
vt 0.717011 0.674102
vt 0.708494 0.674104
vt 0.704620 0.667857
vt 0.704620 0.596463
vt 0.720885 0.596459
vt 0.557309 0.953247
vt 0.557309 0.945271
vt 0.557746 0.944678
vt 0.565851 0.944678
vt 0.565851 0.953841
vt 0.557746 0.953840
vt 0.882881 0.980372
vt 0.881568 0.980402
vt 0.881568 0.973372
vt 0.882881 0.973403
vt 0.843150 0.092810
vt 0.843124 0.086197
vt 0.851229 0.086203
vt 0.851255 0.092816
vt 0.662427 0.692963
vt 0.662422 0.764357
vt 0.658548 0.770606
vt 0.650031 0.770608
vt 0.646157 0.764361
vt 0.646157 0.692967
vt 0.852230 0.468241
vt 0.844125 0.468235
vt 0.844099 0.461622
vt 0.852204 0.461628
vt 0.924947 0.280126
vt 0.916841 0.280126
vt 0.917379 0.278799
vt 0.924409 0.278799
vt 0.924409 0.264000
vt 0.925074 0.263093
vt 0.925383 0.279532
vt 0.428098 0.789779
vt 0.428098 0.761437
vt 0.307623 0.743871
vt 0.308218 0.743876
vt 0.435075 0.761437
vt 0.435646 0.760551
vt 0.601660 0.917835
vt 0.601100 0.897088
vt 0.608090 0.897088
vt 0.607535 0.917835
vt 0.751270 0.915974
vt 0.751966 0.890031
vt 0.757542 0.890032
vt 0.758247 0.915974
vt 0.851658 0.429297
vt 0.851668 0.400992
vt 0.852227 0.400107
vt 0.852216 0.430178
vt 0.312561 0.916084
vt 0.306985 0.916084
vt 0.306286 0.890141
vt 0.313263 0.890141
vt 0.917379 0.264000
vt 0.916405 0.279532
vt 0.916405 0.263267
vt 0.916841 0.262673
vt 0.924947 0.262673
vt 0.925383 0.263267
vt 0.818961 0.814904
vt 0.818961 0.821697
vt 0.817893 0.822767
vt 0.791892 0.822782
vt 0.791892 0.794440
vt 0.812429 0.804488
vt 0.215284 0.841366
vt 0.223389 0.841365
vt 0.263255 0.920889
vt 0.257385 0.920888
vt 0.256826 0.900142
vt 0.263803 0.900142
vt 0.944213 0.318084
vt 0.950088 0.318084
vt 0.435075 0.789779
vt 0.435646 0.822154
vt 0.918520 0.471743
vt 0.983788 0.955491
vt 0.985101 0.955461
vt 0.985101 0.962491
vt 0.983788 0.962461
vt 0.954554 0.534559
vt 0.954554 0.549231
vt 0.954164 0.548853
vt 0.954164 0.534946
vt 0.952894 0.910928
vt 0.954207 0.910864
vt 0.954207 0.925663
vt 0.952894 0.925599
vt 0.721472 0.596453
vt 0.721472 0.606243
vt 0.721472 0.636355
vt 0.721472 0.667847
vt 0.324486 0.743876
vt 0.308218 0.672481
vt 0.324486 0.672481
vt 0.520853 0.936874
vt 0.515275 0.936874
vt 0.983397 0.962181
vt 0.983397 0.955772
vt 0.435640 0.828936
vt 0.427534 0.828936
vt 0.981605 0.352629
vt 0.981605 0.359037
vt 0.843150 0.014899
vt 0.851255 0.014905
vt 0.843704 0.025562
vt 0.843694 0.053867
vt 0.953138 0.777287
vt 0.953138 0.792089
vt 0.982936 0.784007
vt 0.982936 0.777599
vt 0.658876 0.771195
vt 0.649688 0.771197
vt 0.952505 0.925221
vt 0.952505 0.911315
vt 0.751995 0.888885
vt 0.757514 0.888885
vt 0.480786 0.950800
vt 0.475267 0.950800
vt 0.717339 0.674691
vt 0.708151 0.674693
vt 0.325080 0.743871
vt 0.663009 0.764351
vt 0.645555 0.764355
vt 0.704018 0.667851
vt 0.704018 0.636359
vt 0.704018 0.606247
vt 0.704018 0.596457
vt 0.389063 0.937688
vt 0.383488 0.937688
vt 0.307623 0.672476
vt 0.435646 0.750762
vt 0.557309 0.888937
vt 0.564299 0.888937
vt 0.563595 0.914880
vt 0.558016 0.914880
vt 0.624975 0.201307
vt 0.623907 0.200237
vt 0.623907 0.193445
vt 0.630445 0.183026
vt 0.651001 0.172968
vt 0.651001 0.201311
vt 0.645555 0.732864
vt 0.645555 0.702751
vt 0.645555 0.692961
vt 0.732256 0.086299
vt 0.736390 0.093142
vt 0.735795 0.093137
vt 0.731661 0.086294
vt 0.748524 0.014904
vt 0.749118 0.014899
vt 0.731661 0.024689
vt 0.731661 0.014899
vt 0.732256 0.014904
vt 0.621649 0.849001
vt 0.628186 0.859418
vt 0.628186 0.866211
vt 0.627117 0.867281
vt 0.601100 0.867290
vt 0.601100 0.838947
vt 0.844125 0.390324
vt 0.852230 0.390330
vt 0.844692 0.400987
vt 0.844681 0.429292
vt 0.325080 0.672476
vt 0.955866 0.534495
vt 0.955866 0.549294
vt 0.159875 0.799496
vt 0.180431 0.789438
vt 0.180431 0.817780
vt 0.154405 0.817777
vt 0.153336 0.816707
vt 0.153336 0.809914
vt 0.383331 0.919325
vt 0.389201 0.919325
vt 0.833914 0.328138
vt 0.840450 0.338555
vt 0.840450 0.345348
vt 0.839381 0.346418
vt 0.813364 0.346427
vt 0.813364 0.318084
vt 0.694385 0.820647
vt 0.700922 0.810229
vt 0.721472 0.800175
vt 0.721472 0.828518
vt 0.695453 0.828510
vt 0.694385 0.827440
vt 0.883287 0.973686
vt 0.883287 0.980094
s 0
usemtl Material
f 19/1/1 93/2/1 94/3/1 89/4/1
f 65/5/2 64/6/2 42/7/2 43/8/2 44/9/2
f 90/10/3 92/11/3 20/12/3 91/13/3
f 103/14/4 110/15/4 102/16/4 95/17/4
f 32/18/5 17/19/5 4/20/5 67/21/5 9/22/5 2/23/5 21/24/5 15/25/5 35/26/5 34/27/5 33/28/5
f 26/29/6 23/30/6 24/31/6 25/32/6
f 109/33/7 108/34/7 100/35/7 101/36/7
f 68/37/8 67/38/8 4/39/8 8/40/8
f 58/41/9 57/42/9 50/43/9 39/44/9
f 69/45/10 3/46/10 1/47/10 5/48/10 7/49/10 77/50/10 84/51/10 70/52/10
f 80/53/11 81/54/11 82/55/11 83/56/11 84/57/11 77/58/11 78/59/11 79/60/11
f 38/61/12 12/62/12 1/63/12 3/64/12 11/65/12 29/66/12 28/67/12 27/68/12
f 47/69/13 46/70/13 16/71/13 14/72/13 49/73/13 48/74/13 41/75/13 40/76/13 13/77/13 18/78/13 43/79/13 42/80/13
f 11/81/14 3/82/14 7/83/14 14/84/14 16/85/14 8/86/14 4/87/14 17/88/14
f 8/89/15 16/71/15 46/70/15 45/90/15 44/91/15 43/79/15 18/78/15 22/92/15 6/93/15 10/94/15 68/95/15
f 49/73/11 14/72/11 7/96/11 5/97/11 13/77/11 40/76/11 39/98/11 50/99/11
f 56/100/16 55/101/16 41/102/16 48/103/16
f 24/104/17 23/105/17 85/106/17 86/107/17
f 32/108/18 33/109/18 61/110/18 60/111/18 31/112/18
f 54/113/19 53/114/19 27/115/19 28/116/19
f 81/117/20 73/118/20 72/119/20 82/120/20
f 64/121/21 63/122/21 47/123/21 42/124/21
f 57/125/22 56/126/22 48/127/22 49/128/22 50/129/22
f 66/130/23 65/131/23 44/132/23 45/133/23
f 91/134/24 20/135/24 93/136/24 19/137/24
f 62/138/25 34/139/25 35/140/25 36/141/25 59/142/25
f 89/143/26 90/144/26 91/145/26 19/146/26
f 62/147/27 61/148/27 33/149/27 34/150/27
f 93/151/28 20/152/28 92/153/28 94/154/28
f 45/155/29 46/156/29 47/157/29 63/158/29 66/159/29
f 71/160/30 83/161/30 82/120/30 72/119/30
f 51/162/12 52/163/12 53/164/12 54/165/12
f 52/166/31 51/167/31 30/168/31 37/169/31
f 108/170/32 107/171/32 99/172/32 100/173/32
f 79/174/33 75/175/34 74/176/34 80/177/34
f 9/178/35 67/38/35 68/37/35 10/179/35
f 59/180/36 60/181/36 61/182/36 62/183/36
f 74/184/12 75/185/12 76/186/12 69/187/12 70/188/12 71/189/12 72/190/12 73/191/12
f 83/192/37 71/193/37 70/194/38 84/195/38
f 60/196/39 59/197/39 36/198/39 31/199/39
f 77/200/40 7/83/40 3/82/40 69/201/40 76/202/40 78/203/40
f 73/118/41 81/117/41 80/177/41 74/176/41
f 78/203/42 76/202/42 75/204/42 79/205/42
f 90/206/43 89/207/43 18/208/43 13/209/43 5/210/43 1/211/43 12/212/43
f 94/213/44 92/214/44 12/215/44 15/216/44 21/217/44 22/218/44 18/219/44
f 26/220/45 25/221/45 87/222/45 88/223/45
f 88/224/46 87/225/46 6/226/46 22/227/46
f 57/228/11 58/229/11 55/230/11 56/231/11
f 64/232/47 65/233/47 66/234/47 63/235/47
f 53/236/48 52/237/48 37/238/48 38/239/48 27/240/48
f 23/241/49 26/242/49 88/243/49 85/244/49
f 86/245/50 87/246/50 25/247/50 24/248/50
f 9/249/51 10/250/51 6/251/51 2/252/51
f 110/253/52 109/33/52 101/36/52 102/254/52
f 39/255/53 40/256/53 41/257/53 55/258/53 58/259/53
f 51/260/54 54/261/54 28/262/54 29/263/54 30/264/54
f 95/265/55 102/266/55 101/267/55 100/268/55 99/269/55 98/270/55 97/271/55 96/272/55
f 105/273/56 104/274/56 96/275/56 97/276/56
f 104/277/57 103/14/57 95/17/57 96/278/57
f 106/279/58 105/273/58 97/276/58 98/280/58
f 30/281/59 29/66/59 11/65/59 17/19/59 32/18/59 31/282/59 36/283/59 35/26/59 15/25/59 12/62/59 38/61/59 37/284/59
f 86/285/46 85/286/46 21/287/46 2/288/46
f 107/171/60 106/289/60 98/290/60 99/172/60
f 110/291/61 103/292/61 104/293/61 105/294/61 106/295/61 107/296/61 108/297/61 109/298/61
f 213/299/62 214/300/62 215/301/62 216/302/62
f 218/303/63 221/304/63 222/305/63 217/306/63
f 198/307/63 199/308/63 200/309/63 197/310/63
f 311/311/61 315/312/61 150/313/61 146/314/61 306/315/61 304/316/61 305/317/61 307/318/61
f 202/319/63 203/320/63 204/321/63 201/322/63
f 340/323/62 339/324/62 347/325/62 348/326/62
f 355/327/64 376/328/64 380/329/64 379/330/64 360/331/64 383/332/64 382/333/64 381/334/64 388/335/64 356/336/64
f 219/337/63 218/303/63 217/306/63 124/338/63 223/339/63 222/305/63 221/304/63 220/340/63 117/341/63 118/342/63 114/343/63 113/344/63
f 367/345/65 365/346/65 366/347/65 379/348/65 380/349/65 378/350/65 368/351/65
f 338/352/64 374/353/64 373/354/64 337/355/64
f 386/356/66 385/357/66 346/358/66 345/359/66 387/360/66
f 246/361/62 174/362/62 175/363/62 297/364/62 296/365/62 295/366/62 279/367/62 278/368/62 176/369/62 177/370/62 248/371/62 249/372/62 250/373/62 245/374/62
f 329/375/55 333/376/55 168/377/55 164/378/55 326/379/55 324/380/55 322/381/55 325/382/55
f 127/383/63 254/384/63 257/385/63 129/386/63
f 301/387/62 303/388/62 143/389/62 141/390/62
f 312/391/63 149/392/63 314/393/63 151/394/63
f 138/395/67 300/396/67 140/397/67 142/398/67
f 138/395/68 142/398/68 310/399/68 145/400/68
f 143/389/69 303/388/69 308/401/69 147/402/69
f 145/403/70 310/404/70 314/393/70 149/392/70
f 147/405/71 308/406/71 312/391/71 151/394/71
f 360/407/62 379/408/62 366/409/62 375/410/62 384/411/62 351/412/62 352/413/62 361/414/62 362/415/62
f 248/416/55 177/417/55 276/418/55 275/419/55 171/420/55 282/421/55 281/422/55 181/423/55
f 321/424/61 327/425/61 331/426/61 166/427/61 162/428/61 155/429/61 316/430/61 319/431/61
f 318/432/62 158/433/62 160/434/62 156/435/62
f 165/436/63 334/437/63 167/438/63 332/439/63
f 320/440/67 159/441/67 157/442/67 317/443/67
f 320/440/68 328/444/68 163/445/68 159/441/68
f 160/434/69 330/446/69 161/447/69 156/435/69
f 328/448/70 332/439/70 167/438/70 163/449/70
f 330/450/71 334/437/71 165/436/71 161/451/71
f 276/452/64 177/453/64 176/454/64 280/455/64 293/456/64 189/457/64 268/458/64 269/459/64 191/460/64 297/461/64 175/462/64 271/463/64 154/464/64 270/465/64 153/466/64 288/467/64 287/468/64 283/469/64 183/470/64 274/471/64 170/472/64 277/473/64
f 190/474/72 291/475/72 187/476/72 195/477/72 193/478/72 117/479/72 113/480/72 111/481/72 115/482/72 196/483/72 194/484/72 298/485/72 192/486/72 292/487/72 188/488/72 294/489/72
f 182/490/73 253/491/73 265/492/73 285/493/73
f 282/421/74 171/420/74 257/494/74 254/495/74
f 183/496/75 264/497/75 267/498/75 274/499/75
f 277/500/76 170/501/76 266/502/76 258/503/76
f 288/504/77 153/505/77 262/506/77 261/507/77
f 290/508/73 184/509/73 260/510/73 256/511/73
f 154/512/76 259/513/76 263/514/76 270/515/76
f 185/516/78 255/517/78 131/518/78 273/519/78
f 189/520/79 291/475/79 190/474/79 268/521/79
f 293/522/80 280/523/80 298/524/80 187/525/80
f 295/366/81 292/526/81 192/527/81 279/367/81
f 191/528/82 269/529/82 294/530/82 188/531/82
f 187/476/72 298/485/72 194/484/72 196/483/72 115/482/72 117/479/72 193/478/72 195/477/72
f 237/532/55 204/533/55 203/534/55 134/535/55 234/536/55
f 244/537/63 130/538/63 132/539/63 235/540/63 232/541/63 112/542/63 116/543/63 233/544/63 234/545/63 134/546/63 135/547/63 263/548/63 259/549/63 131/550/63 389/551/63 243/552/63
f 118/553/62 116/554/62 208/555/62 207/556/62 206/557/62 205/558/62 112/559/62 114/560/62
f 116/554/62 112/559/62 205/558/62 208/555/62
f 205/561/83 206/562/83 210/563/83 209/564/83
f 206/565/84 207/566/84 211/567/84 210/568/84
f 207/569/85 208/570/85 212/571/85 211/572/85
f 208/573/86 205/574/86 209/575/86 212/576/86
f 213/299/87 209/577/87 210/578/87 214/300/87
f 214/300/88 210/578/88 211/579/88 215/301/88
f 215/301/89 211/579/89 212/580/89 216/302/89
f 216/302/90 212/580/90 209/577/90 213/299/90
f 225/581/63 226/582/63 227/583/63 224/584/63
f 231/585/63 228/586/63 229/587/63 230/588/63
f 218/589/91 219/590/91 225/591/91 224/592/91
f 219/593/92 220/594/92 226/595/92 225/596/92
f 220/597/93 221/598/93 227/599/93 226/600/93
f 221/601/94 218/602/94 224/603/94 227/604/94
f 124/605/91 217/606/91 229/607/91 228/608/91
f 217/609/92 222/610/92 230/611/92 229/612/92
f 222/613/93 223/614/93 231/615/93 230/616/93
f 223/617/95 124/618/95 228/619/95 231/620/95
f 239/621/96 133/622/96 126/623/96 197/624/96 200/625/96
f 125/626/97 134/627/97 203/628/97 202/629/97
f 370/630/98 371/631/98 363/632/98 364/633/98 365/346/98 367/345/98 368/351/98 369/634/98 377/635/98 378/350/99 380/349/98 376/636/98
f 186/637/100 251/638/100 181/639/100 252/640/100
f 232/641/101 235/642/101 240/643/101 238/644/101
f 233/645/102 236/646/102 237/647/102 234/648/102
f 202/649/61 201/650/61 236/651/61 233/652/61 116/653/61 118/654/61 117/655/61 115/656/61 125/657/61
f 198/658/55 197/659/55 126/660/55 111/661/55 113/662/55 114/663/55 112/664/55 232/665/55 238/666/55
f 186/637/63 152/667/63 305/668/63 304/669/63 140/670/63 300/671/63 136/672/63 299/673/63 317/674/63 157/675/63 323/676/63 169/677/63 251/638/63
f 236/646/103 201/678/103 204/679/103 237/647/103
f 199/680/104 198/681/104 238/644/104 240/643/104
f 169/682/105 178/683/105 248/416/105 181/423/105 251/684/105
f 242/685/100 241/686/100 120/687/100 121/688/100
f 386/689/106 381/690/106 382/691/106 385/692/106
f 244/693/107 243/694/107 122/695/107 123/696/107
f 174/697/108 247/698/108 152/699/108 186/700/108 252/701/108
f 245/702/109 172/703/109 173/704/109 246/705/109
f 246/361/107 173/706/107 247/707/107 174/362/107
f 248/371/107 178/708/107 179/709/107 249/372/107
f 249/710/110 179/711/110 180/712/110 250/713/110
f 250/713/111 180/712/111 172/703/111 245/702/111
f 264/714/63 265/715/63 253/716/63 254/384/63 127/383/63 241/686/63 242/685/63 389/551/63 131/550/63 255/717/63 256/718/63 260/719/63 261/720/63 262/721/63 263/548/63 135/547/63 134/546/63 125/722/63 115/723/63 111/724/63 126/725/63 133/726/63 132/539/63 130/538/63 129/386/63 257/385/63 258/727/63 266/728/63 267/729/63
f 154/464/112 271/463/112 272/730/112 273/731/112
f 171/732/113 275/733/113 276/452/113 277/473/113
f 176/454/114 278/734/114 279/735/114 280/455/114
f 182/736/115 281/422/115 282/421/115
f 183/737/116 283/738/116 284/739/116 285/493/116
f 184/509/116 286/740/116 287/741/116 288/742/116
f 185/743/117 289/744/117 290/508/117
f 191/460/114 295/745/114 296/746/114 297/461/114
f 182/736/118 282/421/118 254/495/118 253/747/118
f 265/492/119 264/748/119 183/737/119 285/493/119
f 171/420/120 277/749/120 258/750/120 257/494/120
f 267/498/121 266/751/121 170/752/121 274/499/121
f 153/505/122 270/753/122 263/754/122 262/506/122
f 261/507/123 260/755/123 184/756/123 288/504/123
f 256/511/124 255/757/124 185/743/124 290/508/124
f 154/758/125 273/519/125 131/518/125 259/759/125
f 269/760/126 268/521/126 190/474/126 294/489/126
f 280/761/127 279/367/127 192/527/127 298/762/127
f 189/520/128 293/763/128 187/476/128 291/475/128
f 295/366/129 191/764/129 188/765/129 292/526/129
f 355/766/67 356/767/67 358/768/67 359/769/67
f 136/770/130 300/771/130 138/772/130 302/773/130
f 139/774/131 303/775/131 301/776/131 137/777/131
f 305/317/132 141/778/132 143/779/132 307/318/132
f 306/780/133 142/398/133 140/397/133 304/781/133
f 303/388/134 139/782/134 144/783/134 308/401/134
f 302/773/135 138/772/135 145/784/135 309/785/135
f 142/398/136 306/780/136 146/786/136 310/399/136
f 307/787/137 143/389/137 147/402/137 311/788/137
f 312/789/105 148/790/105 313/791/105 149/792/105
f 314/793/108 150/313/108 315/312/108 151/794/108
f 308/406/138 144/795/138 148/796/138 312/391/138
f 309/797/139 145/403/139 149/392/139 313/798/139
f 310/404/140 146/799/140 150/800/140 314/393/140
f 311/801/141 147/405/141 151/394/141 315/802/141
f 155/803/133 320/440/133 317/443/133 316/804/133
f 319/431/132 318/805/132 156/806/132 321/424/132
f 326/379/131 160/807/131 158/808/131 324/380/131
f 322/381/130 157/809/130 159/810/130 325/382/130
f 161/447/137 327/811/137 321/812/137 156/435/137
f 162/813/136 328/444/136 320/440/136 155/803/136
f 163/814/135 329/375/135 325/382/135 159/810/135
f 164/815/134 330/446/134 160/434/134 326/816/134
f 332/817/108 166/427/108 331/426/108 165/818/108
f 334/819/105 168/377/105 333/376/105 167/820/105
f 165/436/141 331/821/141 327/822/141 161/451/141
f 166/823/140 332/439/140 328/448/140 162/824/140
f 167/438/139 333/825/139 329/826/139 163/449/139
f 168/827/138 334/437/138 330/450/138 164/828/138
f 169/677/63 323/676/63 157/675/63 322/829/63 324/830/63 158/831/63 318/832/63 319/833/63 316/834/63 317/674/63 299/673/63 136/672/63 137/835/63 301/836/63 141/837/63 305/668/63 152/667/63 247/838/63 173/704/63 172/703/63 180/712/63 179/711/63 178/839/63
f 375/840/142 372/841/142 388/842/142 381/690/142 386/689/142 387/843/142 373/844/142 374/845/142 385/692/142 382/691/142 383/846/142 384/847/142
f 343/848/67 344/849/67 336/850/67 335/851/67
f 338/852/143 337/853/143 345/854/143 346/855/143
f 239/856/61 200/857/61 199/858/61 240/859/61 235/860/61 132/861/61 133/862/61
f 174/697/61 252/701/61 289/863/61 185/516/61 273/519/61 272/864/61 271/865/61 175/866/61
f 384/411/62 383/867/62 360/407/62 362/415/62 351/412/62
f 119/868/66 123/869/66 122/870/66 121/688/66 120/687/66 128/871/66 371/872/66 370/873/66 372/874/66 375/875/66 366/876/66 365/877/66 364/878/66 363/879/66
f 340/880/64 352/881/64 351/882/64 339/883/64
f 335/884/64 336/885/64 354/886/64 353/887/64
f 343/888/63 359/889/63 358/890/63 357/891/63 344/892/63
f 348/893/63 347/894/63 362/895/63 361/896/63
f 341/897/64 342/898/64 369/899/64 368/900/64
f 128/871/144 119/868/144 363/879/144 371/872/144
f 117/341/63 220/340/63 219/337/63 113/344/63
f 349/901/63 378/902/63 377/903/63 350/904/63
f 130/905/145 244/906/145 123/907/145 119/908/145 128/909/145 120/910/145 241/911/145 127/912/145 129/913/145
f 377/914/62 369/915/62 342/916/62 350/917/62
f 343/918/61 335/919/61 353/920/61 359/921/61
f 341/922/146 349/923/146 350/924/146 342/925/146
f 349/926/147 341/927/147 368/928/147 378/929/147
f 361/930/61 352/931/61 340/932/61 348/933/61
f 347/934/55 339/935/55 351/936/55 362/937/55
f 385/938/148 374/939/148 338/940/148 346/941/148
f 389/942/108 242/943/108 121/944/108 122/945/108 243/946/108
f 357/947/55 354/948/55 336/949/55 344/950/55
f 345/951/62 337/952/62 373/953/62 387/954/62
f 289/744/67 252/955/67 181/956/67 281/957/67 182/490/67 285/493/67 284/739/67 283/738/67 287/741/67 286/740/67 184/509/67 290/508/67
f 372/958/67 370/959/67 376/960/67 355/766/67 359/769/67 353/961/67 354/962/67 357/963/67 358/768/67 356/767/67 388/964/67
f 309/785/55 313/791/55 148/790/55 144/965/55 139/774/55 137/777/55 136/770/55 302/773/55
f 486/966/149 390/967/149 392/968/149 488/969/149
f 506/970/150 494/971/150 401/972/150 507/973/150
f 416/974/151 419/975/151 418/976/151 513/977/151
f 489/978/152 487/979/152 395/980/152 397/981/152
f 396/982/153 492/983/153 490/984/153 394/985/153
f 487/986/154 399/987/154 496/988/154 395/989/154
f 486/990/155 488/991/155 396/992/155 394/993/155
f 394/994/156 401/972/156 494/971/156 486/995/156
f 488/991/157 403/996/157 500/997/157 396/992/157
f 397/981/158 405/998/158 498/999/158 489/978/158
f 405/1000/159 501/1001/159 505/1002/159 409/1003/159
f 506/970/160 507/973/160 496/988/160 399/987/160
f 526/1004/153 430/1005/153 428/1006/153 524/1007/153
f 501/1001/161 493/1008/161 491/1009/161 400/1010/161 411/1011/161 497/1012/161 490/984/161 492/983/161 404/1013/161 504/1014/161 426/1015/161 510/1016/161 422/1017/161 514/1018/161 515/1019/161 519/1020/161 511/1021/161 523/1022/161 505/1002/161
f 446/1023/149 442/1024/149 538/1025/149 542/1026/149
f 408/1027/162 503/1028/162 425/1029/162 522/1030/162
f 502/1031/163 409/1032/163 427/1033/163 520/1034/163
f 414/1035/164 509/1036/164 421/1037/164 518/1038/164
f 508/1039/165 415/1040/165 423/1041/165 516/1042/165
f 418/976/166 518/1043/166 421/1044/166 513/977/166
f 416/974/167 516/1045/167 423/1046/167 419/975/167
f 414/1035/168 522/1030/168 425/1029/168 509/1036/168
f 508/1039/169 520/1034/169 427/1033/169 415/1040/169
f 535/1047/170 436/1048/170 448/1049/170 449/1050/170
f 432/1051/149 528/1052/149 530/1053/149 434/1054/149
f 550/1055/151 455/1056/151 456/1057/151 457/1058/151
f 445/1059/153 441/1060/153 537/1061/153 541/1062/153
f 525/1063/154 433/1064/154 438/1065/154 533/1066/154
f 432/1067/156 524/1068/156 436/1048/156 535/1047/156
f 526/1069/157 434/1070/157 442/1071/157 537/1072/157
f 435/1073/158 527/1074/158 440/1075/158 539/1076/158
f 537/1072/155 442/1071/155 446/1077/155 541/1078/155
f 448/1049/171 533/1066/171 438/1065/171 449/1050/171
f 539/1076/152 440/1075/152 540/1079/152 447/1080/152
f 531/1081/172 529/1082/172 433/1083/172 435/1084/172
f 559/1085/162 541/1078/162 446/1077/162 464/1086/162
f 554/1087/161 450/1088/161 558/1089/161 444/1090/161 536/1091/161 431/1092/161 429/1093/161 437/1094/161 544/1095/161 532/1096/161 428/1006/161 430/1005/161 441/1060/161 445/1059/161 463/1097/161 451/1098/161 459/1099/161 551/1100/161 454/1101/161
f 561/1102/163 447/1080/163 540/1079/163 462/1103/163
f 555/1104/164 547/1105/164 452/1106/164 460/1107/164
f 557/1108/165 453/1109/165 546/1110/165 458/1111/165
f 555/1112/166 460/1113/166 456/1057/166 455/1056/166
f 557/1114/167 458/1115/167 550/1055/167 457/1058/167
f 559/1085/168 464/1086/168 452/1106/168 547/1105/168
f 561/1102/169 462/1103/169 546/1110/169 453/1109/169
f 466/1116/173 467/1117/173 477/1118/173 476/1119/173
f 467/1120/174 468/1121/174 478/1122/174 477/1123/174
f 468/1121/151 469/1124/151 479/1125/151 478/1122/151
f 469/1124/175 470/1126/175 480/1127/175 479/1125/175
f 470/1128/176 471/1129/176 481/1130/176 480/1131/176
f 471/1129/177 472/1132/177 482/1133/177 481/1130/177
f 472/1134/178 473/1135/178 483/1136/178 482/1137/178
f 473/1135/179 474/1138/179 484/1139/179 483/1136/179
f 474/1138/180 475/1140/180 485/1141/180 484/1139/180
f 475/1142/181 466/1116/181 476/1119/181 485/1143/181
f 408/1027/155 500/997/155 403/996/155 503/1028/155
f 525/1144/159 429/1093/159 431/1092/159 527/1145/159
f 482/1146/182 483/1147/182 484/1148/182 485/1149/182 476/1150/182 477/1151/182 478/1152/182 479/1153/182 480/1154/182 481/1155/182
f 560/1156/182 542/1026/182 538/1025/182 530/1053/182 528/1052/182 439/1157/182 545/1158/182 534/1159/182 529/1082/182 531/1081/182 443/1160/182 543/1161/182 465/1162/182 549/1163/182 461/1164/182 553/1165/182 552/1166/182 556/1167/182 548/1168/182
f 391/1169/183 495/1170/183 399/987/183 487/986/183
f 392/968/184 499/1171/184 403/1172/184 488/969/184
f 396/982/185 500/1173/185 404/1013/185 492/983/185
f 507/973/186 401/972/186 497/1174/186 411/1175/186
f 418/1176/187 419/1177/187 515/1019/187 514/1018/187
f 413/1178/188 517/1179/188 421/1180/188 509/1181/188
f 521/1182/189 413/1178/189 509/1181/189 425/1183/189
f 522/1184/190 414/1185/190 510/1016/190 426/1015/190
f 543/1161/172 443/1160/172 539/1186/172 447/1187/172
f 448/1049/191 436/1048/191 532/1188/191 544/1189/191
f 449/1050/192 438/1065/192 534/1190/192 545/1191/192
f 437/1192/193 429/1193/193 525/1063/193 533/1066/193
f 438/1065/183 433/1064/183 529/1194/183 534/1190/183
f 439/1195/194 528/1196/194 432/1067/194 535/1047/194
f 441/1060/185 430/1005/185 526/1004/185 537/1061/185
f 442/1024/184 434/1054/184 530/1053/184 538/1025/184
f 443/1160/195 531/1081/195 435/1084/195 539/1186/195
f 404/1013/153 500/1173/153 408/1197/153 504/1014/153
f 540/1198/159 440/1199/159 536/1091/159 444/1090/159
f 432/1200/155 434/1070/155 526/1069/155 524/1201/155
f 533/1066/196 448/1049/196 544/1189/196 437/1192/196
f 463/1097/197 445/1059/197 541/1062/197 559/1202/197
f 464/1203/198 446/1023/198 542/1026/198 560/1156/198
f 455/1204/187 550/1205/187 454/1101/187 551/1100/187
f 457/1206/199 456/1207/199 552/1166/199 553/1165/199
f 459/1099/200 451/1098/200 547/1208/200 555/1209/200
f 460/1210/188 452/1211/188 548/1168/188 556/1167/188
f 550/1205/201 458/1212/201 554/1087/201 454/1101/201
f 551/1100/202 459/1099/202 555/1209/202 455/1204/202
f 456/1207/203 460/1210/203 556/1167/203 552/1166/203
f 553/1165/204 461/1164/204 557/1213/204 457/1206/204
f 546/1214/205 462/1215/205 558/1089/205 450/1088/205
f 451/1098/190 463/1097/190 559/1202/190 547/1208/190
f 452/1211/206 464/1203/206 560/1156/206 548/1168/206
f 549/1163/207 465/1162/207 561/1216/207 453/1217/207
f 395/1218/159 491/1009/159 493/1008/159 397/1219/159
f 489/1220/172 393/1221/172 391/1222/172 487/1223/172
f 494/971/208 506/970/208 410/1224/208 398/1225/208
f 496/988/209 507/973/209 411/1175/209 400/1226/209
f 486/995/194 494/971/194 398/1225/194 390/1227/194
f 395/989/210 496/988/210 400/1226/210 491/1228/210
f 490/1229/211 497/1174/211 401/972/211 394/994/211
f 489/1220/195 498/1230/195 402/1231/195 393/1221/195
f 493/1008/212 501/1001/212 405/1000/212 397/1219/212
f 402/1231/172 498/1230/172 502/1232/172 406/1233/172
f 435/1073/152 433/1234/152 525/1235/152 527/1074/152
f 472/1236/161 471/1237/161 470/1238/161 469/1239/161 468/1240/161 467/1241/161 466/1242/161 475/1243/161 474/1244/161 473/1245/161
f 506/970/213 399/987/213 495/1170/213 410/1224/213
f 502/1232/214 520/1246/214 424/1247/214 406/1233/214
f 407/1248/198 521/1182/198 425/1183/198 503/1249/198
f 408/1197/197 522/1184/197 426/1015/197 504/1014/197
f 505/1002/215 523/1022/215 427/1250/215 409/1003/215
f 416/1251/216 513/1252/216 417/1253/216 512/1254/216
f 508/1255/217 516/1256/217 420/1257/217 412/1258/217
f 414/1185/200 518/1259/200 422/1017/200 510/1016/200
f 511/1021/218 519/1020/218 423/1260/218 415/1261/218
f 516/1256/204 416/1251/204 512/1254/204 420/1257/204
f 517/1179/203 417/1253/203 513/1252/203 421/1180/203
f 518/1259/202 418/1176/202 514/1018/202 422/1017/202
f 519/1020/201 515/1019/201 419/1177/201 423/1260/201
f 520/1246/219 508/1255/219 412/1258/219 424/1247/219
f 523/1022/205 511/1021/205 415/1261/205 427/1250/205
f 403/1172/149 499/1171/149 407/1248/149 503/1249/149
f 436/1048/211 524/1068/211 428/1262/211 532/1188/211
f 440/1199/212 527/1145/212 431/1092/212 536/1091/212
f 535/1047/220 449/1050/220 545/1191/220 439/1195/220
f 462/1215/221 540/1198/221 444/1090/221 558/1089/221
f 465/1162/214 543/1161/214 447/1187/214 561/1216/214
f 458/1212/218 546/1214/218 450/1088/218 554/1087/218
f 461/1164/217 549/1163/217 453/1217/217 557/1213/217
f 499/1171/182 392/968/182 390/967/182 398/1263/182 410/1264/182 495/1265/182 391/1222/182 393/1221/182 402/1231/182 406/1233/182 424/1247/182 412/1258/182 420/1257/182 512/1254/182 417/1253/182 517/1179/182 413/1178/182 521/1182/182 407/1248/182
f 502/1031/152 498/999/152 405/998/152 409/1032/152
s 1
f 562/1266/222 573/1267/223 563/1268/224
f 573/1267/223 562/1266/222 572/1269/222
f 563/1270/224 574/1271/225 564/1272/226
f 574/1271/225 563/1270/224 573/1273/223
f 564/1272/226 575/1274/227 565/1275/228
f 575/1274/227 564/1272/226 574/1271/225
f 565/1275/228 576/1276/229 566/1277/230
f 576/1276/229 565/1275/228 575/1274/227
f 566/1278/230 577/1279/231 567/1280/231
f 577/1279/231 566/1278/230 576/1281/229
f 567/1280/231 578/1282/232 568/1283/233
f 578/1282/232 567/1280/231 577/1279/231
f 568/1284/233 579/1285/234 569/1286/235
f 579/1285/234 568/1284/233 578/1287/232
f 569/1286/235 580/1288/236 570/1289/237
f 580/1288/236 569/1286/235 579/1285/234
f 570/1289/237 581/1290/238 571/1291/239
f 581/1290/238 570/1289/237 580/1288/236
f 571/1292/239 572/1269/222 562/1266/222
f 572/1269/222 571/1292/239 581/1293/238
f 570/1294/240 568/1295/240 569/1296/240
f 568/1295/240 566/1297/240 567/1298/240
f 566/1297/240 564/1299/240 565/1300/240
f 564/1299/240 562/1301/240 563/1302/240
f 566/1297/240 562/1301/240 564/1299/240
f 568/1295/240 562/1301/240 566/1297/240
f 570/1294/240 562/1301/240 568/1295/240
f 571/1303/240 562/1301/240 570/1294/240
f 579/1304/241 581/1305/241 580/1306/241
f 581/1305/241 579/1304/241 572/1307/241
f 582/1308/222 593/1309/224 592/1310/222
f 593/1309/224 582/1308/222 583/1311/223
f 583/1312/223 594/1313/226 593/1314/224
f 594/1313/226 583/1312/223 584/1315/225
f 584/1315/225 595/1316/242 594/1313/226
f 595/1316/242 584/1315/225 585/1317/227
f 585/1317/227 596/1318/230 595/1316/242
f 596/1318/230 585/1317/227 586/1319/229
f 586/1320/229 597/1321/231 596/1322/230
f 597/1321/231 586/1320/229 587/1323/231
f 587/1323/231 598/1324/233 597/1321/231
f 598/1324/233 587/1323/231 588/1325/232
f 588/1326/232 589/1327/234 599/1328/235
f 589/1327/234 600/1329/237 599/1328/235
f 600/1329/237 589/1327/234 590/1330/243
f 590/1330/243 601/1331/239 600/1329/237
f 601/1331/239 590/1330/243 591/1332/238
f 591/1333/238 592/1310/222 601/1334/239
f 592/1310/222 591/1333/238 582/1308/222
f 582/1335/241 584/1336/241 583/1337/241
f 584/1336/241 586/1338/241 585/1339/241
f 582/1335/241 586/1338/241 584/1336/241
f 586/1338/241 588/1340/241 587/1341/241
f 582/1335/241 588/1340/241 586/1338/241
f 588/1340/241 590/1342/241 589/1343/241
f 582/1335/241 590/1342/241 588/1340/241
f 591/1344/241 590/1342/241 582/1335/241
f 599/1345/240 593/1346/240 598/1347/240
f 593/1346/240 599/1345/240 592/1348/240
f 588/1326/232 599/1328/235 598/1349/233
f 596/1350/240 594/1351/240 595/1352/240
f 594/1351/240 596/1350/240 597/1353/240
f 597/1353/240 593/1346/240 594/1351/240
f 593/1346/240 597/1353/240 598/1347/240
f 601/1354/240 599/1345/240 600/1355/240
f 599/1345/240 601/1354/240 592/1348/240
f 575/1356/241 577/1357/241 576/1358/241
f 577/1357/241 575/1356/241 574/1359/241
f 574/1359/241 578/1360/241 577/1357/241
f 578/1360/241 574/1359/241 573/1361/241
f 573/1361/241 579/1304/241 578/1360/241
f 579/1304/241 573/1361/241 572/1307/241
f 602/1362/244 603/1363/245 613/1364/246 612/1365/244
f 603/1366/245 604/1367/247 614/1368/248 613/1369/246
f 604/1367/247 605/1370/249 615/1371/250 614/1368/248
f 605/1370/249 606/1372/251 616/1373/252 615/1371/250
f 606/1374/251 607/1375/253 617/1376/253 616/1377/252
f 607/1375/253 608/1378/254 618/1379/255 617/1376/253
f 608/1380/254 609/1381/256 619/1382/257 618/1383/255
f 609/1381/256 610/1384/258 620/1385/259 619/1382/257
f 610/1384/258 611/1386/260 621/1387/261 620/1385/259
f 611/1388/260 602/1362/244 612/1365/244 621/1389/261
f 606/1390/262 605/1391/262 602/1392/262 611/1393/262
f 615/1394/263 616/1395/263 621/1396/263 612/1397/263
f 613/1398/263 614/1399/263 615/1394/263 612/1397/263
f 617/1400/263 620/1401/263 621/1396/263 616/1395/263
f 618/1402/263 619/1403/263 620/1401/263 617/1400/263
f 604/1404/262 603/1405/262 602/1392/262 605/1391/262
f 610/1406/262 607/1407/262 606/1390/262 611/1393/262
f 609/1408/262 608/1409/262 607/1407/262 610/1406/262
s 0
f 740/1410/67 737/1411/67 747/1412/67 748/1413/67
f 664/1414/264 656/1415/264 659/1416/264 667/1417/264
f 667/1418/265 666/1419/265 674/1420/265 675/1421/265
f 720/1422/266 714/1423/266 715/1424/266 723/1425/266
f 729/1426/267 730/1427/267 726/1428/267 724/1429/267
f 741/1430/62 716/1431/62 719/1432/62 742/1433/62
f 668/1434/268 660/1435/268 663/1436/268 671/1437/268
f 691/1438/64 631/1439/64 689/1440/64 633/1441/64
f 709/1442/269 635/1443/269 693/1444/269 708/1445/269
f 696/1446/270 703/1447/270 648/1448/270 640/1449/270
f 718/1450/271 717/1451/271 741/1452/271 742/1453/271
f 698/1454/63 642/1455/63 641/1456/63 697/1457/63 663/1458/63 660/1459/63 661/1460/63 662/1461/63 749/1462/63 701/1463/63 646/1464/63
f 692/1465/272 632/1466/272 691/1467/272 633/1468/272
f 712/1469/267 636/1470/267 709/1471/267 713/1472/267
f 707/1473/64 717/1451/64 718/1450/64 708/1474/64
f 743/1475/273 721/1476/273 710/1477/273 637/1478/273 714/1479/273 720/1480/273
f 634/1481/274 710/1482/274 711/1483/274 638/1484/274 637/1485/274 694/1486/274 682/1487/274 628/1488/274 626/1489/274 680/1490/274
f 679/1491/63 678/1492/63 677/1493/63 676/1494/63
f 674/1495/63 673/1496/63 672/1497/63 675/1498/63
f 669/1499/275 661/1500/275 660/1501/275 668/1502/275
f 733/1503/276 736/1504/276 730/1505/276 729/1506/276
f 715/1507/277 638/1508/277 711/1509/277 722/1510/277 744/1511/277 723/1512/277
f 723/1425/67 744/1513/67 743/1514/67 720/1422/67
f 669/1499/278 668/1502/278 676/1515/278 677/1516/278
f 699/1517/279 749/1518/279 645/1519/279 750/1520/279 643/1521/279
f 622/1522/61 630/1523/61 690/1524/61 623/1525/61 625/1526/61 624/1527/61
f 702/1528/64 648/1529/64 703/1530/64 649/1531/64 705/1532/64 647/1533/64
f 670/1534/264 662/1535/264 661/1536/264 669/1537/264
f 710/1482/280 634/1481/280 694/1486/280 637/1485/280
f 691/1538/281 627/1539/281 681/1540/281 631/1541/281
f 749/1542/61 699/1543/61 650/1544/61 704/1545/61 700/1546/61 701/1547/61
f 649/1548/282 703/1549/282 696/1550/282 644/1551/282
f 628/1552/63 682/1553/63 657/1554/63 658/1555/63 659/1556/63 687/1557/63 686/1558/63
f 655/1559/283 750/1520/283 728/1560/283
f 633/1468/284 626/1561/284 684/1562/284 692/1465/284
f 750/1520/285 727/1563/285 728/1560/285
f 727/1563/286 750/1520/286 651/1564/286
f 714/1565/287 637/1566/287 638/1567/287 715/1568/287
f 653/1569/64 735/1570/64 734/1571/64 725/1572/64
f 725/1573/288 724/1574/288 652/1575/288 706/1576/288
f 739/1577/64 738/1578/64 654/1579/64 655/1580/64
f 656/1581/63 657/1554/63 682/1553/63 624/1582/63 625/1583/63 683/1584/63 629/1585/63 688/1586/63 686/1558/63 687/1557/63 659/1556/63
f 740/1587/273 748/1588/273 739/1589/273 655/1590/273 728/1591/273 732/1592/273
f 689/1593/289 680/1490/289 626/1489/289 633/1594/289
f 731/1595/287 732/1596/287 728/1597/287 727/1598/287
f 716/1431/276 712/1599/276 713/1600/276 719/1432/276
f 643/1521/290 750/1520/290 655/1559/290 654/1601/290 727/1563/290 651/1564/290 695/1602/290
f 663/1458/63 697/1457/63 645/1603/63 749/1462/63 662/1461/63
f 666/1604/268 658/1605/268 657/1606/268 665/1607/268
f 665/1608/291 664/1609/291 672/1610/291 673/1611/291
f 671/1612/292 663/1613/292 662/1614/292 670/1615/292
f 622/1522/293 624/1527/293 682/1616/293 694/1617/293 634/1618/293 680/1619/293
f 685/1620/55 632/1466/55 692/1465/55 684/1562/55 686/1621/55 688/1622/55
f 722/1623/294 721/1624/294 743/1514/294 744/1513/294
f 666/1604/295 665/1607/295 673/1625/295 674/1626/295
f 647/1627/289 705/1628/289 643/1521/289 695/1602/289
f 664/1414/296 667/1417/296 675/1629/296 672/1630/296
f 627/1539/297 629/1631/297 683/1632/297 635/1443/297 709/1442/297 636/1633/297 707/1634/297 708/1445/297 693/1444/297 681/1540/297
f 667/1418/275 659/1635/275 658/1636/275 666/1419/275
f 668/1434/295 671/1437/295 679/1637/295 676/1638/295
f 704/1545/298 650/1544/298 705/1639/298 649/1640/298
f 671/1612/291 670/1615/291 678/1641/291 679/1642/291
f 734/1571/271 735/1570/271 746/1643/271 745/1644/271
f 745/1645/62 746/1646/62 736/1504/62 733/1503/62
f 690/1524/298 630/1523/298 689/1647/298 631/1648/298
f 632/1466/299 685/1620/299 627/1649/299 691/1467/299
f 643/1650/300 705/1639/300 650/1544/300 699/1543/300
f 700/1546/301 704/1545/301 649/1640/301 644/1651/301
f 623/1525/302 681/1652/302 693/1653/302 635/1654/302 683/1655/302 625/1526/302
f 738/1656/294 739/1657/294 748/1413/294 747/1412/294
f 628/1658/303 686/1621/303 684/1562/303 626/1561/303
f 651/1564/304 750/1520/304 645/1519/304 697/1659/304
f 711/1660/64 710/1661/64 721/1662/64 722/1663/64
f 718/1664/305 742/1665/305 719/1666/305 713/1667/305 709/1668/305 708/1669/305
f 631/1648/301 681/1652/301 623/1525/301 690/1524/301
f 630/1523/300 622/1522/300 680/1619/300 689/1647/300
f 700/1546/302 644/1651/302 706/1670/302 652/1671/302 646/1672/302 701/1547/302
f 639/1673/306 702/1674/306 647/1675/306 695/1676/306
f 640/1449/307 642/1677/307 698/1678/307 696/1446/307
f 639/1673/303 695/1676/303 651/1679/303 697/1680/303 641/1681/303
f 712/1682/308 716/1683/308 741/1684/308 717/1685/308 707/1686/308 636/1687/308
f 706/1576/309 644/1551/309 696/1550/309 698/1688/309 646/1689/309 652/1575/309 724/1574/309 726/1690/309 653/1691/309 725/1573/309
f 641/1681/55 642/1677/55 640/1449/55 648/1448/55 702/1674/55 639/1673/55
f 685/1620/307 688/1622/307 629/1692/307 627/1649/307
f 665/1608/292 657/1693/292 656/1694/292 664/1609/292
f 729/1695/305 724/1696/305 725/1697/305 734/1698/305 745/1699/305 733/1700/305
f 737/1411/266 740/1410/266 732/1701/266 731/1702/266
f 730/1703/310 736/1704/310 746/1705/310 735/1706/310 653/1707/310 726/1708/310
f 737/1709/311 731/1710/311 727/1711/311 654/1712/311 738/1713/311 747/1714/311
f 670/1534/296 669/1537/296 677/1715/296 678/1716/296
